<svg xmlns="http://www.w3.org/2000/svg" width="115" height="115" viewBox="0 0 115 115">
  <g id="beach-act-04" transform="translate(-212.264 -354.968)">
    <g id="Group_90-inner" data-name="Group 90-inner" transform="translate(-1515.627 -1837.093)">
      <path id="Path_150" data-name="Path 150" d="M1819.154,2278h-67.527v-10.129c42.767-6.548,67.527-28.137,67.527-28.137Z" transform="translate(0 5.328)" fill="#75d6ff"/>
      <path id="Path_151" data-name="Path 151" d="M1769.926,2272.245c-2.808-.144-14.956-.5-14.956-2.653,0-.878,4.1-2.715,9.071-4.064,22.451-6.109,44.47-6.459,44.47-5.053,0,.7-.845,1.793,0,2.566,2.434,2.233,5.661,2.272,5.661,2.392C1814.171,2267.86,1795.284,2273.531,1769.926,2272.245Z" transform="translate(0.744 9.794)" fill="#7924a6" fill-rule="evenodd"/>
      <path id="Path_152" data-name="Path 152" d="M1808.509,2262.708a1.3,1.3,0,0,1-.288-1.417c-6.279.829-40.775,5.374-51.722,6.668-.963.516-1.529.974-1.529,1.3,0,.407.435.748,1.157,1.039l54.7-6.1A8.354,8.354,0,0,1,1808.509,2262.708Z" transform="translate(0.744 10.128)" fill="#b86acb"/>
      <path id="Path_153" data-name="Path 153" d="M1807.165,2239.294c-2.519.843-4.663-.319-6.08.092-.295-.8-2.439-2.066-5.135-2.835a7.19,7.19,0,0,0-3.992-2.377c-2.282-.327-3.187.2-2.9-2.73l-3.691-.743c-.84,2.658-3.229,2.17-4.752,2.06-3.784-.268-5.632,1.584-6.5,4.357a14.752,14.752,0,0,0-3.027,3.522,7.073,7.073,0,0,0-1.536,4.8c.015,1.95,0,5.28,0,5.28l2.752-.2.566-6.376s3.349-1.126,4.216-3.752c-.9,5.12.807,4.184-.309,8.35,0,0,11.189,1.458,11.189,1.437.34-6.618,2.851-4.2,3.9-10.2a66.116,66.116,0,0,0,7.85,2.606c2.962.713,8.727-.493,8.727-.493Z" transform="translate(3.99 3.318)" fill="#d6a57c" fill-rule="evenodd"/>
      <path id="Path_154" data-name="Path 154" d="M1806.171,2238.927c-.355-2.07-1.975-2.275-3.219-2.182a.606.606,0,0,0-.786-.593l-1.571.3a1.168,1.168,0,0,0-.94,1.293l.3,1.773c.448,2.631.448,2.631,4.112,2.076C1806.555,2241.215,1806.227,2239.277,1806.171,2238.927Z" transform="translate(10.688 4.528)" fill="#d6a57c"/>
      <path id="Path_155" data-name="Path 155" d="M1802.387,2236.769a1.008,1.008,0,0,1-.4.359,1.89,1.89,0,0,1-.549.15c-.312.054-.624.107-.933.164a.175.175,0,1,0,.068.342l.96-.168a2.132,2.132,0,0,0,.636-.187,1.476,1.476,0,0,0,.526-.466C1802.839,2236.781,1802.53,2236.589,1802.387,2236.769Z" transform="translate(10.849 4.653)" fill="#b58360"/>
      <path id="Path_156" data-name="Path 156" d="M1774.149,2247.645a1.125,1.125,0,0,0-1.187-.91l-1.767.106c-2.619.157-2.619.157-2.385,3.315a2.087,2.087,0,0,0,2.439,2.009,2.293,2.293,0,0,0,2.415-2.546c.037,0,.679-.164.652-.62Z" transform="translate(3.804 6.887)" fill="#d6a57c"/>
      <path id="Path_157" data-name="Path 157" d="M1787.362,2246.375a3.749,3.749,0,0,0,.675,1.121c4,.629,8.475,1.829,9.2,3.574.5,1.213-1.461,5.328-1.759,6.982-.9,4.991-8.349-3.328-9.453-2.444-.736.591.824,2.566.335,3.006-1.294,1.158-7.393,3-9.684.354-.771-.891-.209-2.625-.726-3.1-3.923-3.565-1.314-6.073-.131-10.689C1775.814,2245.183,1777.773,2245.975,1787.362,2246.375Z" transform="translate(4.95 6.542)" fill="#ff71d0" fill-rule="evenodd"/>
      <path id="Path_158" data-name="Path 158" d="M1771.418,2240.481l1.034,1.484-.266,2.677A22.416,22.416,0,0,0,1771.418,2240.481Z" transform="translate(4.406 5.495)" fill="#b58360" fill-rule="evenodd"/>
      <path id="Path_159" data-name="Path 159" d="M1785.343,2238.949a.5.5,0,1,1-.572.492A.537.537,0,0,1,1785.343,2238.949Z" transform="translate(7.378 5.154)" fill="#b58360" fill-rule="evenodd"/>
      <path id="Path_160" data-name="Path 160" d="M1778.682,2238.028a.5.5,0,1,1-.573.491A.537.537,0,0,1,1778.682,2238.028Z" transform="translate(5.895 4.949)" fill="#b58360" fill-rule="evenodd"/>
      <path id="Path_161" data-name="Path 161" d="M1775.713,2237.088a4.092,4.092,0,0,0,3,3.279A11.939,11.939,0,0,1,1775.713,2237.088Z" transform="translate(5.362 4.74)" fill="#b58360" fill-rule="evenodd"/>
      <path id="Path_162" data-name="Path 162" d="M1791.322,2239.359a4.62,4.62,0,0,0,4.536-.869A13.434,13.434,0,0,1,1791.322,2239.359Z" transform="translate(8.837 5.052)" fill="#b58360" fill-rule="evenodd"/>
      <path id="Path_163" data-name="Path 163" d="M1784.983,2255.084a3.812,3.812,0,0,1-3.975,3.623c-2.195,0-4.485.1-4.485-1.9s1.02-5.241,4.485-5.348A3.771,3.771,0,0,1,1784.983,2255.084Z" transform="translate(5.543 7.939)" fill="#8f4074" fill-rule="evenodd"/>
      <path id="Path_164" data-name="Path 164" d="M1792.084,2254.29c0,2-1.3,5.821-2.6,2.41-.714-1.869,1.247-6.806,3.2-6.806C1795.194,2249.893,1792.084,2252.289,1792.084,2254.29Z" transform="translate(8.394 7.59)" fill="#8f4074" fill-rule="evenodd"/>
      <path id="Path_165" data-name="Path 165" d="M1784.224,2256.082c1.878-4.151-5.02-6.189-6.213-1.512a44.528,44.528,0,0,0-1.263,9.389c-.128,1.336-1.264,2.23-1.049,2.742.684,1.635.693,4.159,1.3,4.608.713.53,4.437-.259,4.537-.78.263-1.365-2.147-2.972-1.494-6.052C1780.6,2261.823,1782.944,2258.905,1784.224,2256.082Z" transform="translate(5.353 8.034)" fill="#d6a57c" fill-rule="evenodd"/>
      <path id="Path_166" data-name="Path 166" d="M1798.575,2253.8c-.03-.941-2.893-2.962-6.12-3.806-1.827.422-2.872,4.544-2.408,5.184a6.677,6.677,0,0,0,3.132,1.566c-1.579,1.884.312,3.6-.354,6.823-.437,2.108-.374,3.912,1.19,5.022.727.518,4.885-.483,4.567-1.271-.655-1.608-2.553-2.957-2.62-4.282C1795.788,2259.786,1798.709,2258.006,1798.575,2253.8Z" transform="translate(8.528 7.614)" fill="#d6a57c" fill-rule="evenodd"/>
      <path id="Path_167" data-name="Path 167" d="M1773.863,2251.39a4.714,4.714,0,0,0,2.082,3.541s.122-4.244,3.421-5.509C1779.367,2249.422,1775.287,2249.094,1773.863,2251.39Z" transform="translate(4.95 7.482)" fill="#6ceda9" fill-rule="evenodd"/>
      <path id="Path_168" data-name="Path 168" d="M1775.285,2246.581a7.723,7.723,0,0,0-1.283,3.76s2.041-3.093,6.89-2.545C1780.892,2247.795,1777.788,2245.539,1775.285,2246.581Z" transform="translate(4.981 6.792)" fill="#6ceda9" fill-rule="evenodd"/>
      <path id="Path_169" data-name="Path 169" d="M1786.565,2247.191a9.629,9.629,0,0,1,3.6.828s-3.622-.494-5.432.9C1784.737,2248.914,1784.859,2247.052,1786.565,2247.191Z" transform="translate(7.371 6.987)" fill="#6ceda9" fill-rule="evenodd"/>
      <path id="Path_170" data-name="Path 170" d="M1790.373,2248.1a8.625,8.625,0,0,1,2.742,1.251s-3.332-.8-5.142.592C1787.972,2249.943,1788.669,2247.961,1790.373,2248.1Z" transform="translate(8.091 7.189)" fill="#6ceda9" fill-rule="evenodd"/>
      <path id="Path_171" data-name="Path 171" d="M1787.342,2247.067c-3.92.859-10.151-1.3-12.031-.981-.375.064-.011-1.5.371-1.5,4.242-.023,7.425,1.342,11.231,1.16C1787.258,2245.729,1787.749,2246.976,1787.342,2247.067Z" transform="translate(5.238 6.409)" fill="#6ceda9" fill-rule="evenodd"/>
      <path id="Path_172" data-name="Path 172" d="M1777.332,2224.635l.758,1.865,16.682,1.932.944-1.787c.779-6.717-.453-9.741-7.874-10.669C1780.346,2215.037,1778.123,2217.8,1777.332,2224.635Z" transform="translate(5.722 0)" fill="#594640"/>
      <path id="Path_173" data-name="Path 173" d="M1795.165,2225.677a3.494,3.494,0,0,1-.359.93,1.607,1.607,0,0,1-.664.508,10.893,10.893,0,0,0,.276-1.789c.3-6.237-.407-3.307-7.227-4.1s-6.837-3.8-7.97,2.326a11.257,11.257,0,0,0-.141,1.815,1.62,1.62,0,0,1-.532-.648,3.447,3.447,0,0,1-.134-.987c-.627-.244-1.472-.2-1.687,1.659a1.906,1.906,0,0,0,1.6,2.421c.053,3.927,4.931,7.108,7.252,7.379s7.8-1.712,8.747-5.524c1.44.062,1.974-.839,2.109-1.993C1796.643,2225.823,1795.827,2225.585,1795.165,2225.677Z" transform="translate(5.582 0.889)" fill="#d6a57c"/>
      <path id="Path_174" data-name="Path 174" d="M1782.161,2223.952a1.441,1.441,0,1,1-1.44,1.44A1.441,1.441,0,0,1,1782.161,2223.952Z" transform="translate(6.477 1.816)" fill="#664e27"/>
      <path id="Path_175" data-name="Path 175" d="M1787.884,2224.616a1.439,1.439,0,1,1-1.44,1.439A1.44,1.44,0,0,1,1787.884,2224.616Z" transform="translate(7.751 1.963)" fill="#664e27"/>
      <path id="Path_176" data-name="Path 176" d="M1787.1,2229.346a3.5,3.5,0,0,1-4.573-.531c-.163-.156-.349.064-.253.3a2.815,2.815,0,0,0,5,.579C1787.425,2229.485,1787.294,2229.23,1787.1,2229.346Z" transform="translate(6.817 2.887)" fill="#664e27"/>
    </g>
    <rect id="Group_90-area" data-name="Group 90-area" width="115" height="115" transform="translate(212.264 354.968)" fill="none"/>
  </g>
</svg>
