<svg xmlns="http://www.w3.org/2000/svg" width="115" height="115" viewBox="0 0 115 115">
  <g id="beach-act-01" transform="translate(-19.593 -202.593)">
    <g id="Group_91-inner" data-name="Group 91-inner" transform="translate(-4337.532 -1987.797)">
      <path id="Path_177" data-name="Path 177" d="M4403.78,2229.2l2.231-2.84,4.164,9.993-6.455,2.687Z" transform="translate(3.435 1.713)" fill="#b47d56"/>
      <path id="Path_178" data-name="Path 178" d="M4401.682,2235.266c2.388.379,2.369,3.435,2.369,3.435,2.648-1.1,2.331-7.047,1-10.232Z" transform="translate(3.104 2.054)" fill="#935e3e"/>
      <path id="Path_179" data-name="Path 179" d="M4402.146,2216.878l-9.873,8.8c-.348,3.287,1.237,4.289,1.668,5.465.191.523-.459,1.9-.805,2.616-.775,1.609,1.653,1.635,2.356,1.154.967.948-.2,2.21,2.946.116,0,0-2.9,2.969-.11,2.605.325,1.49,1.176,4.225,7.243-1.5,1.8-1.7,1.017-5.79,1.017-5.79l3.349-2.135Z" transform="translate(1.57 0.175)" fill="#b47d56"/>
      <path id="Path_180" data-name="Path 180" d="M4393.679,2219.482c6.528-5.679,12.3-3.471,13.751-2.027,3.852,3.849,4.36,9.71,2.429,15.083a3.944,3.944,0,0,1-3.146-2.015s2.231.06,1.4-4.266c-.7-3.677-5.011-3.918-4.871,1.428l-.482.2c-1.957-1.877-1.348-5.545-4.4-5.322-2.691.2-6.015,4.02-6.015,4.02C4390.985,2225.435,4391.012,2221.8,4393.679,2219.482Z" transform="translate(1.447)" fill="#231f20"/>
      <path id="Path_181" data-name="Path 181" d="M4396.437,2228.288a1.271,1.271,0,0,1-.375,1.7c-.509.21-.9-.317-1.2-1.042s-.4-1.374.108-1.585S4396.136,2227.562,4396.437,2228.288Z" transform="translate(1.958 1.865)" fill="#664e27"/>
      <path id="Path_182" data-name="Path 182" d="M4402.794,2226.847a2.833,2.833,0,0,1,1.263-3.61s-1.335,2.511.129,4.565A1.529,1.529,0,0,1,4402.794,2226.847Z" transform="translate(3.249 1.206)" fill="#935e3e"/>
      <path id="Path_183" data-name="Path 183" d="M4398.8,2231.851s-.977,1.643-1.363,2.088c-.814.945-1.122.693-.73-.015a8.377,8.377,0,0,1,1.032-1.32Z" transform="translate(2.27 2.602)" fill="#664e27"/>
      <path id="Path_184" data-name="Path 184" d="M4403.9,2236.3l-1.627,7.928,3.3.592.747-6.738Z" transform="translate(3.2 3.324)" fill="#112f55"/>
      <path id="Path_185" data-name="Path 185" d="M4406.246,2243.428a1.639,1.639,0,0,0-2-1.189l-6.377,1.449.731,3.183,6.377-1.444A1.686,1.686,0,0,0,4406.246,2243.428Z" transform="translate(2.486 4.279)" fill="#112f55"/>
      <path id="Path_186" data-name="Path 186" d="M4399.286,2245.179l-.206-1.585a1.044,1.044,0,0,0-1.185-.882l-.787.1a1.064,1.064,0,0,0-.876.7c-1.042.21-2.367.765-2.116,2.66a1.9,1.9,0,0,0,2.37,1.767C4399.594,2247.53,4399.594,2247.53,4399.286,2245.179Z" transform="translate(1.872 4.361)" fill="#935e3e"/>
      <path id="Path_187" data-name="Path 187" d="M4408.631,2259.462a3.087,3.087,0,0,0-2.89,3.266l7.416-.575a1.545,1.545,0,0,0,1.446-1.634l-.114-1.51Z" transform="translate(3.762 7.005)" fill="#d3976e"/>
      <path id="Path_188" data-name="Path 188" d="M4414.2,2260.447l-5.892.455-.784-10.318,5.893-.456Z" transform="translate(4.05 5.565)" fill="#3e4347"/>
      <path id="Path_189" data-name="Path 189" d="M4413.593,2253.434l-6.071-1.9,5.723-7.262,6.907,1.268Z" transform="translate(4.05 4.615)" fill="#3e4347"/>
      <path id="Path_190" data-name="Path 190" d="M4395.129,2251.928a10.207,10.207,0,1,0,10.416,10.2A10.324,10.324,0,0,0,4395.129,2251.928Zm0,22.545a12.735,12.735,0,0,1-4.9-.969,12.575,12.575,0,0,1-4-2.644,12.229,12.229,0,0,1-2.7-3.922,12.116,12.116,0,0,1,0-9.608,12.236,12.236,0,0,1,2.7-3.922,12.541,12.541,0,0,1,4-2.646,12.872,12.872,0,0,1,9.807,0,12.519,12.519,0,0,1,4,2.646,12.234,12.234,0,0,1,2.7,3.922,12.132,12.132,0,0,1,0,9.608,12.272,12.272,0,0,1-2.7,3.922,12.554,12.554,0,0,1-4,2.644A12.743,12.743,0,0,1,4395.129,2274.473Z" transform="translate(0 5.511)" fill="#333"/>
      <path id="Path_191" data-name="Path 191" d="M4428.682,2251.928a10.207,10.207,0,1,0,10.417,10.2A10.323,10.323,0,0,0,4428.682,2251.928Zm0,22.545a12.745,12.745,0,0,1-4.9-.969,12.612,12.612,0,0,1-4-2.644,12.234,12.234,0,0,1-2.7-3.922,12.121,12.121,0,0,1,0-9.608,12.225,12.225,0,0,1,2.7-3.922,12.578,12.578,0,0,1,4-2.646,12.876,12.876,0,0,1,9.808,0,12.536,12.536,0,0,1,4,2.646,12.275,12.275,0,0,1,2.7,3.922,12.143,12.143,0,0,1,0,9.608,12.33,12.33,0,0,1-2.7,3.922,12.57,12.57,0,0,1-4,2.644A12.751,12.751,0,0,1,4428.682,2274.473Z" transform="translate(5.439 5.511)" fill="#333"/>
      <path id="Path_192" data-name="Path 192" d="M4415.022,2263.655l-13.494-13.154.653-1.568h18.832Zm8.042-15.529,2.272-5.585-1.485-.58-2.2,5.406h-23.9l-2.321-2.428-1.167,1.069,2.794,2.925,3.639,0,.05,3.028,14.863,14.477,6.645-16.327,9.241,13.621,1.446-.667Z" transform="translate(1.902 4.241)" fill="#ed4c5c"/>
      <path id="Path_193" data-name="Path 193" d="M4427.276,2258.286a2.47,2.47,0,1,1-2.52,2.469A2.494,2.494,0,0,1,4427.276,2258.286Z" transform="translate(6.845 6.887)" fill="#333"/>
      <rect id="Rectangle_17" data-name="Rectangle 17" width="4.32" height="1.345" transform="translate(4409.168 2269.227)" fill="#94989b"/>
      <rect id="Rectangle_18" data-name="Rectangle 18" width="4.317" height="1.348" transform="translate(4421.765 2270.949)" fill="#94989b"/>
      <path id="Path_194" data-name="Path 194" d="M4408.977,2262.071v.652l4.247.574v-.654Z" transform="translate(4.287 7.501)" fill="#b3b3b3"/>
      <path id="Path_195" data-name="Path 195" d="M4413.125,2260.362a3.466,3.466,0,1,1-3.537,3.464A3.5,3.5,0,0,1,4413.125,2260.362Z" transform="translate(4.386 7.224)" fill="#333"/>
      <path id="Path_196" data-name="Path 196" d="M4412.755,2262.6a.864.864,0,1,1-.882.863A.873.873,0,0,1,4412.755,2262.6Z" transform="translate(4.755 7.587)" fill="#b3b3b3"/>
      <path id="Path_197" data-name="Path 197" d="M4412.631,2263.715l4.253.572v-.651l-4.253-.573Z" transform="translate(4.88 7.662)" fill="#b3b3b3"/>
      <path id="Path_198" data-name="Path 198" d="M4416.54,2261.937a3.057,3.057,0,0,0-2.027,3.839l7.071-2.266a1.523,1.523,0,0,0,1.011-1.92l-.471-1.442Z" transform="translate(5.161 7.189)" fill="#d3976e"/>
      <path id="Path_199" data-name="Path 199" d="M4422.283,2261.857l-5.022,1.61-3.878-12.067,5.618-1.8Z" transform="translate(5.001 5.48)" fill="#3e4347"/>
      <path id="Path_200" data-name="Path 200" d="M4419.609,2252.908l-6.227-.466,4.9-9.267,5.231,2.579Z" transform="translate(5.001 4.438)" fill="#3e4347"/>
      <path id="Path_201" data-name="Path 201" d="M4426.175,2241.578l-12.306,4.781-10.2-9.258s2.574-5.247,3.978-5.506C4417.607,2229.73,4426.175,2241.578,4426.175,2241.578Z" transform="translate(3.427 2.529)" fill="#1c5295"/>
      <path id="Path_202" data-name="Path 202" d="M4423.661,2246.291l-10.923.592-.289-1.9,12.1-5.126C4426.447,2242.65,4423.661,2246.291,4423.661,2246.291Z" transform="translate(4.849 3.901)" fill="#3e4347"/>
      <path id="Path_203" data-name="Path 203" d="M4403.719,2236.3l-.344,7.913,3.355.13.307-6.265C4407.087,2237.178,4403.719,2236.3,4403.719,2236.3Z" transform="translate(3.379 3.324)" fill="#1c5295"/>
      <path id="Path_204" data-name="Path 204" d="M4407.324,2243a1.65,1.65,0,0,0-2.154-.9l-6.1,2.32,1.183,3.049,6.1-2.317A1.672,1.672,0,0,0,4407.324,2243Z" transform="translate(2.68 4.244)" fill="#1c5295"/>
      <path id="Path_205" data-name="Path 205" d="M4400.659,2245.637l-.431-1.542a1.051,1.051,0,0,0-1.3-.707l-.766.213a1.058,1.058,0,0,0-.765.819c-1,.351-2.231,1.084-1.712,2.926a1.913,1.913,0,0,0,2.6,1.417C4401.3,2247.926,4401.3,2247.926,4400.659,2245.637Z" transform="translate(2.111 4.466)" fill="#b47d56"/>
      <path id="Path_206" data-name="Path 206" d="M4394.007,2263.37l-1.473-.83,8.9-15.517,1.475.832Z" transform="translate(1.621 5.062)" fill="#ed4c5c"/>
      <path id="Path_207" data-name="Path 207" d="M4393.548,2259.348a1.235,1.235,0,1,1-1.261,1.234A1.247,1.247,0,0,1,4393.548,2259.348Z" transform="translate(1.582 7.059)" fill="#333"/>
    </g>
    <rect id="Group_91-area" data-name="Group 91-area" width="115" height="115" transform="translate(19.593 202.593)" fill="none"/>
  </g>
</svg>
