<svg xmlns="http://www.w3.org/2000/svg" width="115" height="115" viewBox="0 0 115 115">
  <g id="beach-act-02-true" transform="translate(-225.264 -204.484)">
    <g id="sailboat-inner" transform="translate(-124.114 133.8)">
      <g id="Group_55" data-name="Group 55" transform="translate(373.114 90.79)">
        <g id="Group_42" data-name="Group 42" transform="translate(27.552 8.729)">
          <path id="Path_97" data-name="Path 97" d="M389.094,95.853c3.278,17.044,6.348,34.111,4.515,51.718l31.789-4.912C419.785,125.29,405.416,110.3,389.094,95.853Z" transform="translate(-389.094 -95.853)" fill="#e2e3d9"/>
        </g>
        <g id="Group_45" data-name="Group 45" transform="translate(30.293 21.822)">
          <g id="Group_43" data-name="Group 43">
            <path id="Path_98" data-name="Path 98" d="M401.806,103.447l-11.122,2.119c.671,4.191,1.243,8.4,1.653,12.619l19.484-3.365A138.337,138.337,0,0,0,401.806,103.447Z" transform="translate(-390.684 -103.447)" fill="#1c5295"/>
          </g>
          <g id="Group_44" data-name="Group 44" transform="translate(1.798 21.767)">
            <path id="Path_99" data-name="Path 99" d="M391.727,132.663l10.46-1.353,21.3-3.291a62.855,62.855,0,0,0-5.377-11.946l-25.889,3.59A107.233,107.233,0,0,1,391.727,132.663Z" transform="translate(-391.727 -116.072)" fill="#1c5295"/>
          </g>
        </g>
        <g id="Group_46" data-name="Group 46" transform="translate(8.071 1.84)">
          <path id="Path_100" data-name="Path 100" d="M395.751,96.769c-6.493,1.772-11.17-3.917-17.957-2.541,6.405-4.031,12.4-.178,17.957-2.371Z" transform="translate(-377.795 -91.857)" fill="#cf1d1d"/>
        </g>
        <g id="Group_47" data-name="Group 47" transform="translate(2.482 9.124)">
          <path id="Path_101" data-name="Path 101" d="M397.873,96.082c-2.01,17.431-3.927,37.463-2.314,51.889l-21.006-2.033A531.867,531.867,0,0,1,397.873,96.082Z" transform="translate(-374.553 -96.082)" fill="#1c5295"/>
        </g>
        <g id="Group_48" data-name="Group 48" transform="translate(25.769)">
          <path id="Path_102" data-name="Path 102" d="M388.571,155.667v0Z" transform="translate(-387.69 -90.42)" fill="#a39351"/>
          <path id="Path_103" data-name="Path 103" d="M388.941,156.918a.882.882,0,0,1-.881-.881V91.671a.881.881,0,0,1,1.762,0v64.366A.882.882,0,0,1,388.941,156.918Z" transform="translate(-388.06 -90.79)" fill="#a39351"/>
        </g>
        <g id="Group_49" data-name="Group 49" transform="translate(0 57.623)">
          <path id="Path_104" data-name="Path 104" d="M373.506,124.6l25.518,2.712Z" transform="translate(-372.829 -123.927)" fill="#a39351"/>
          <path id="Path_105" data-name="Path 105" d="M399.309,128.279a.551.551,0,0,1-.072-.005l-25.519-2.71a.675.675,0,0,1-.6-.745.662.662,0,0,1,.745-.6l25.518,2.71a.678.678,0,0,1-.072,1.352Z" transform="translate(-373.114 -124.212)" fill="#a39351"/>
        </g>
        <g id="Group_50" data-name="Group 50" transform="translate(25.746 54.913)">
          <path id="Path_106" data-name="Path 106" d="M428.865,123.034l-40.425,5.421Z" transform="translate(-387.762 -122.355)" fill="#a39351"/>
          <path id="Path_107" data-name="Path 107" d="M388.723,129.417a.678.678,0,0,1-.088-1.35l40.425-5.419a.678.678,0,1,1,.179,1.343l-40.425,5.419A.542.542,0,0,1,388.723,129.417Z" transform="translate(-388.047 -122.64)" fill="#a39351"/>
        </g>
        <g id="Group_51" data-name="Group 51" transform="translate(0.735 58.076)">
          <path id="Path_108" data-name="Path 108" d="M426.387,141.187h-47.43a30.033,30.033,0,0,1-5.417-11.293c20.6,1.81,50.137-1.581,63.687-5.419A39.767,39.767,0,0,1,426.387,141.187Z" transform="translate(-373.54 -124.475)" fill="#cf1d1d"/>
        </g>
        <g id="Group_53" data-name="Group 53" transform="translate(48.945 58.076)">
          <g id="Group_52" data-name="Group 52">
            <path id="Path_109" data-name="Path 109" d="M412.06,125.649A53.609,53.609,0,0,1,401.5,141.187h4.638a39.767,39.767,0,0,0,10.839-16.712C415.514,124.889,413.848,125.277,412.06,125.649Z" transform="translate(-401.502 -124.475)" fill="#ce4545"/>
          </g>
        </g>
        <g id="Group_54" data-name="Group 54" transform="translate(0.735 58.076)">
          <path id="Path_110" data-name="Path 110" d="M436.382,126.692c.3-.729.583-1.467.845-2.217-13.55,3.838-43.085,7.229-63.687,5.419.153.666.369,1.314.576,1.965C394.195,133.558,422.5,130.392,436.382,126.692Z" transform="translate(-373.54 -124.475)" fill="#d6c192"/>
        </g>
      </g>
      <path id="star-4" d="M380.771,118.808l-.672,1.362-1.5.219,1.088,1.06-.257,1.5,1.345-.707,1.345.707-.257-1.5,1.088-1.06-1.5-.219Z" transform="translate(3.969 20.288)" fill="#fff"/>
      <path id="star-4-2" data-name="star-4" d="M383.217,114.73l-.672,1.364-1.5.217,1.088,1.06-.257,1.5,1.345-.707,1.345.707-.255-1.5,1.088-1.06-1.5-.217Z" transform="translate(5.74 17.335)" fill="#fff"/>
      <path id="star-4-3" data-name="star-4" d="M384.615,118.808l-.672,1.362-1.5.219,1.088,1.06-.257,1.5,1.345-.707,1.347.707-.257-1.5,1.088-1.06-1.5-.219Z" transform="translate(6.753 20.288)" fill="#fff"/>
    </g>
    <rect id="sailboat-area" width="115" height="115" transform="translate(225.264 204.484)" fill="none"/>
  </g>
</svg>
