<svg xmlns="http://www.w3.org/2000/svg" width="115" height="115" viewBox="0 0 115 115">
  <g id="food-02" transform="translate(-258.033 -204.698)">
    <g id="spaghetti-inner" transform="translate(277.066 228)">
      <path id="Path_8" data-name="Path 8" d="M1439.68,2541.019c0,11.8-17.223,21.37-38.467,21.37s-38.467-9.567-38.467-21.37,17.223-21.371,38.467-21.371,38.467,9.567,38.467,21.371" transform="translate(-1362.746 -2493.992)" fill="#939598"/>
      <path id="Path_9" data-name="Path 9" d="M1439.68,2534.379c0,11.8-17.223,21.37-38.467,21.37s-38.467-9.567-38.467-21.37,17.223-21.371,38.467-21.371,38.467,9.567,38.467,21.371" transform="translate(-1362.746 -2491.626)" fill="#f1f2f2"/>
      <path id="Path_10" data-name="Path 10" d="M1436.625,2535.913c0,8.98-14.16,16.265-31.628,16.265s-31.628-7.285-31.628-16.264,14.16-16.267,31.628-16.267,31.628,7.283,31.628,16.265" transform="translate(-1366.53 -2493.992)" fill="#ffcc4d"/>
      <path id="Path_11" data-name="Path 11" d="M1405.708,2551.932a2.137,2.137,0,0,1,0-4.275c12.175,0,21.014-2.666,26.271-7.922a2.137,2.137,0,0,1,3.022,3.022c-6.088,6.087-15.942,9.174-29.293,9.174m-12.823-2.137a2.137,2.137,0,0,1,0-4.275c4.056,0,6.587-2.319,6.783-3.921.195-1.573-2.052-2.31-3.028-2.553-1.936-.481-3.377.069-5.039.714-2.282.885-5.409,2.091-8.774-1.277a4.729,4.729,0,0,1-1.051-5.37c1.566-3.781,7.359-6.826,11.11-6.826a2.137,2.137,0,0,1,0,4.274c-2.383,0-6.4,2.349-7.161,4.188-.158.381-.1.492.124.712,1.344,1.342,1.984,1.171,4.212.312a11.829,11.829,0,0,1,7.616-.874c5.095,1.274,6.561,4.563,6.234,7.22-.464,3.772-4.714,7.675-11.025,7.675" transform="translate(-1369.378 -2496.357)" fill="#ffe8b6"/>
      <path id="Path_12" data-name="Path 12" d="M1424.926,2542.543a13.962,13.962,0,0,1-3.4-.407c-1.161-.288-4.689-1.171-4.8-4.023-.081-2.137,1.411-4.641,12.69-8.457a12.849,12.849,0,0,0-7.375-2.415c-5.37,0-8.115.45-9.174,1.51a2.137,2.137,0,0,1-3.022-3.021c2.041-2.04,5.229-2.763,12.2-2.763,5.12,0,11.534,2.849,12.13,6.524.231,1.415-.413,3.219-2.906,4.05-5.518,1.84-8.378,3.313-9.617,4.182.24.086.541.174.913.268,6.9,1.718,15.647-5.057,16.6-6.8a2.137,2.137,0,0,1,4.251.322c0,1.508-1.355,3.333-4.03,5.42-3.727,2.909-9.168,5.6-14.458,5.606" transform="translate(-1379.302 -2495.174)" fill="#ffe8b6"/>
      <path id="Path_13" data-name="Path 13" d="M1428.986,2535.9c0,5.31-4.336,11.754-14.959,11.754s-8.548-4.274-25.645-10.686c-7.214-2.7,10.748-10.685,21.371-10.685s19.233,4.305,19.233,9.617" transform="translate(-1371.286 -2496.357)" fill="#dd2e44"/>
      <path id="Path_14" data-name="Path 14" d="M1417.312,2543.384a2.137,2.137,0,1,1,0-4.274c3.948,0,9.72-2.056,11.312-3.648a2.137,2.137,0,0,1,3.022,3.022c-2.759,2.759-9.972,4.9-14.333,4.9m0-8.549c-5.158,0-7.877-2.715-10.06-4.9a2.137,2.137,0,1,1,3.022-3.021c2.039,2.038,3.648,3.649,7.038,3.649,1.652,0,5.527,0,7.038-1.511a2.137,2.137,0,0,1,3.021,3.022h0c-2.763,2.762-7.691,2.762-10.059,2.762m-8.548,8.549a2.135,2.135,0,0,1-1.512-3.647c.6-.652.24-1.014,0-1.253-1.192-1.193-4.782-1.316-8.218.4a2.138,2.138,0,0,1-1.911-3.826c4.226-2.112,10.1-2.654,13.152.4a5.013,5.013,0,0,1,0,7.3,2.136,2.136,0,0,1-1.51.626" transform="translate(-1374.571 -2496.357)" fill="#ea596e"/>
      <path id="Path_15" data-name="Path 15" d="M1413.268,2520.644a2.135,2.135,0,0,1-1.915-1.182c-2.133-4.267-6.573-13.148-8.756-30.608a2.137,2.137,0,1,1,4.24-.53h0c2.092,16.732,6.311,25.171,8.339,29.229a2.135,2.135,0,0,1-1.909,3.091" transform="translate(-1376.937 -2482.166)" fill="#ffac33"/>
      <path id="Path_16" data-name="Path 16" d="M1447.213,2499.128l-32.569-9.623c-7.161-11.346-16.169-9.519-21.125-9.7-.534-.019-1.75.47-1.781,1.336-.032.838,2.191.72,2.535.733,3.644.133,8.43.376,13.1,5.315-5.681-1.982-14.406-3.253-16-3.11-.979.09-1.069.8.09,1.337.949.439,9.771,3.519,14.615,5-3.032,1.048-7.02,1.528-13.75-1.839-1.06-.53-2.564-1.279-3.093-.223s1.082,1.609,2.137,2.137c4.616,2.307,7.33,4.983,10.307,4.983a19.641,19.641,0,0,0,8.1-1.923,19.5,19.5,0,0,1,1.929-.734c.035.022.06.051.1.071l31.637,14.087c1.039.567,3.36-1.691,3.926-2.726s.6-4.644-.169-5.122" transform="translate(-1372.149 -2479.794)" fill="#99aab5"/>
      <path id="Path_17" data-name="Path 17" d="M1402.322,2518.508a2.135,2.135,0,0,1-1.511-.627c-2.81-2.811-9.5-18.95-.158-30.628a2.138,2.138,0,0,1,3.338,2.672c-7.8,9.746-1.665,23.427-.158,24.935a2.136,2.136,0,0,1-1.512,3.649" transform="translate(-1374.541 -2482.166)" fill="#ffac33"/>
    </g>
    <rect id="spaghetti-area" width="115" height="115" transform="translate(258.033 204.698)" fill="none"/>
  </g>
</svg>
