<svg xmlns="http://www.w3.org/2000/svg" xmlns:xlink="http://www.w3.org/1999/xlink" width="115" height="115" viewBox="0 0 115 115">
  <defs>
    <clipPath id="clip-path">
      <path id="Path_38" data-name="Path 38" d="M4506.015,2514.3a2.136,2.136,0,0,0-.955.709c-2.651,3.491-5.587,17.347,2.147,24.888,7.6,7.412,14.579,9.2,18.757,9.606.07.006.23.015.3.015,5.253,0,39.176-23,41.724-28.284,2.93-6.073,2.738-17.949-4.231-22.007a6.827,6.827,0,0,0-3.49-.721c-11.927,0-52.533,15.148-54.253,15.794" transform="translate(-4502.233 -2498.508)" fill="none"/>
    </clipPath>
  </defs>
  <g id="food-04" transform="translate(-252.177 -352.874)">
    <g id="sushi-inner" transform="translate(272.997 374)">
      <path id="Path_36" data-name="Path 36" d="M4526.933,2549.52c-.1,0-.2-.008-.3-.015a26.4,26.4,0,0,1-18.76-11.743c-4.274-6.411-4.8-19.26-2.146-22.751a2.124,2.124,0,0,1,.952-.711c1.725-.644,42.328-15.792,54.255-15.792a6.828,6.828,0,0,1,3.49.721c6.969,4.057,7.163,15.933,4.231,22.009-2.547,5.285-36.471,28.282-41.724,28.282" transform="translate(-4502.901 -2484.247)" fill="#eee"/>
      <g id="Group_22" data-name="Group 22" transform="translate(0 14.261)">
        <g id="Group_21" data-name="Group 21" clip-path="url(#clip-path)">
          <path id="Path_37" data-name="Path 37" d="M4541.677,2524.538c-2.137,6.41-6.411,29.918,4.275,34.192s51.289-25.467,47.015-37.309-14.959-22.527-23.507-16.117-27.783,19.235-27.783,19.235" transform="translate(-4515.333 -2500.243)" fill="#ccd6dd"/>
        </g>
      </g>
      <path id="Path_39" data-name="Path 39" d="M4569.559,2494.5a2.128,2.128,0,0,0-1.809-.551l-62.777,10.329a2.138,2.138,0,0,0-1.789,2.165c.058,2.161.041,3.732.021,5.5-.011.983-.021,2.027-.021,3.258a2.138,2.138,0,0,0,.77,1.645c4.347,3.606,18.624,13.158,21.871,14.782a2.138,2.138,0,0,0,2.259-.217c5.462-4.2,35.225-21.219,39.886-23.241a2.135,2.135,0,0,0,1.276-1.767c.268-2.934.979-10.13.979-10.13a2.137,2.137,0,0,0-.665-1.774" transform="translate(-4502.571 -2482.612)" fill="#a0041e"/>
      <path id="Path_40" data-name="Path 40" d="M4569.7,2488.39c-4.316-4.906-20.573-11.914-23.329-12.031a2.065,2.065,0,0,0-.509.036c-21.6,4.3-35.73,16.681-41.052,21.342l-.888.774a2.145,2.145,0,0,0-.213,3.025,2.232,2.232,0,0,0,.362.331c.725.52,17.774,12.737,21.922,15.083a2.146,2.146,0,0,0,2.475-.268c8.366-7.478,36.543-23.422,40.386-24.884a2.136,2.136,0,0,0,1.241-2.755,2.108,2.108,0,0,0-.4-.654" transform="translate(-4502.573 -2476.355)" fill="#dd2e44"/>
      <path id="Path_41" data-name="Path 41" d="M4563.179,2485.357a42.286,42.286,0,0,1,2.225,10.507m-16.028-12.732c2.137,6.411,3.4,16.591,3.92,20.034m-16.83-15.405c2.227,6.054,4.631,19.945,4.808,23.508m-16.652-16.2a116.948,116.948,0,0,1,3.74,16.739" transform="translate(-4510.209 -2478.77)" fill="none" stroke="#ea596e" stroke-linecap="round" stroke-linejoin="round" stroke-width="1.354"/>
      <path id="Path_42" data-name="Path 42" d="M4587.6,2547.159a25.659,25.659,0,0,0-28.361,0h-6.123v10.686c0,8.247,9.108,14.958,20.3,14.958s20.3-6.712,20.3-14.958v-10.686Z" transform="translate(-4520.359 -2500.055)" fill="#292f33"/>
      <path id="Path_43" data-name="Path 43" d="M4573.416,2526.287c-11.194,0-20.3,6.712-20.3,14.959s9.108,14.96,20.3,14.96,20.3-6.713,20.3-14.96-9.108-14.959-20.3-14.959" transform="translate(-4520.359 -2494.143)" fill="#292f33"/>
      <path id="Path_44" data-name="Path 44" d="M4591.41,2543.612c0,5.9-6.777,10.686-15.137,10.686s-15.14-4.783-15.14-10.686,6.779-10.685,15.14-10.685,15.137,4.782,15.137,10.685" transform="translate(-4523.216 -2496.508)" fill="#e1e8ed"/>
      <path id="Path_45" data-name="Path 45" d="M4591.41,2543.612c0,5.9-6.777,10.686-15.137,10.686s-15.14-4.783-15.14-10.686,6.779-10.685,15.14-10.685S4591.41,2537.709,4591.41,2543.612Z" transform="translate(-4523.216 -2496.508)" fill="none" stroke="#e1e8ed" stroke-linecap="round" stroke-linejoin="round" stroke-width="1.129"/>
      <path id="Path_46" data-name="Path 46" d="M4570.406,2547.271c0-.9,3.859-.716,9.17-.716s9-1.167,9-.265c0,3.794-3.685,7.592-9,7.592s-9.17-2.816-9.17-6.61" transform="translate(-4526.519 -2501.147)" fill="#77b255"/>
      <path id="Path_47" data-name="Path 47" d="M4570.406,2547.271c0-.9,3.859-.716,9.17-.716s9-1.167,9-.265c0,3.794-3.685,7.592-9,7.592S4570.406,2551.065,4570.406,2547.271Z" transform="translate(-4526.519 -2501.147)" fill="none" stroke="#77b255" stroke-miterlimit="10" stroke-width="0.677"/>
      <path id="Path_48" data-name="Path 48" d="M4588.946,2543.333s-4.274-2.137-10.686,0c-5.037,1.679-8.548,5.473-8.548,1.677s4.306-6.866,9.616-6.866,9.617,3.051,9.617,5.188" transform="translate(-4526.272 -2498.367)" fill="#f4900c"/>
      <path id="Path_49" data-name="Path 49" d="M4588.946,2543.333s-4.274-2.137-10.686,0c-5.037,1.679-8.548,5.473-8.548,1.677s4.306-6.866,9.616-6.866S4588.946,2541.2,4588.946,2543.333Z" transform="translate(-4526.272 -2498.367)" fill="none" stroke="#f4900c" stroke-linecap="round" stroke-linejoin="round" stroke-width="0.677"/>
    </g>
    <rect id="sushi-area" width="115" height="115" transform="translate(252.177 352.874)" fill="none"/>
  </g>
</svg>
