<svg xmlns="http://www.w3.org/2000/svg" width="115" height="115" viewBox="0 0 115 115">
  <g id="food-03" transform="translate(-19.207 -352.173)">
    <g id="salad-inner" transform="translate(40.288 375)">
      <path id="Path_50" data-name="Path 50" d="M2062.31,2492.269c-7.123-8.993-61.263-3.74-68.743,16.385-1.869,21.1,13.558,45.2,40.517,42.471,28.139-2.849,38.644-26.533,28.226-58.861" transform="translate(-1993.415 -2481.992)" fill="#edb97f"/>
      <path id="Path_51" data-name="Path 51" d="M2002.113,2505.415c5.847-5.017,27.782-17.1,53.427-12.822,17.1,1.6-1.514,16.117-20.747,20.392-16.819,3.735-43.365,1.6-32.68-7.57" transform="translate(-1995.637 -2483.297)" fill="#ffd983"/>
      <path id="Path_52" data-name="Path 52" d="M2064.467,2493.556c3.071-3.205,2.537-12.955,1.135-14.557-2.068-1.738-4.139,3.514-10.283,5.117a10.271,10.271,0,0,0-3.206-3.984c-1.78-1.269-5.609-1.092-6.679,4.074-3.673-3.207-11.375-3.5-11.843-1.781-2.849,10.465-6.768,11.842-11.042,16.206-6.431,6.566,5.791,7.88,18.21,4.008a221.412,221.412,0,0,0,23.708-9.083" transform="translate(-2003.162 -2478.651)" fill="#77b255"/>
      <path id="Path_53" data-name="Path 53" d="M2019.883,2503.964c-1.069-7.479-14.635-8.892-17.631-6.585-4.274,3.29-1.78,13.621,2.672,15.043,7.777,2.489,14.959-8.458,14.959-8.458" transform="translate(-1995.776 -2484.962)" fill="#77b255"/>
      <path id="Path_54" data-name="Path 54" d="M2007.108,2510.948c-2.855-1.128,1.336-7.476,5.876-8.724s6.68,1.068,7.57,2.314a5.736,5.736,0,0,1,3.383-3.831,3.626,3.626,0,0,1,4.184,2.228c0-1.96.09-8.282,7.125-10.329,1.87-.624,7.213-.8,8.371,2.135,1.78-1.515,7.66-2.847,9.082.8.622-1.069,5.61-2.938,7.567.621,1.426,1.96-.773,3.85-4.361,6.234-11.667,7.747-37.756,12.913-48.8,8.547" transform="translate(-1997.961 -2483.489)" fill="#662113"/>
      <path id="Path_55" data-name="Path 55" d="M2023.626,2511.439a1.513,1.513,0,1,1-1.512-1.512,1.514,1.514,0,0,1,1.512,1.512m20.839-10.952a3.385,3.385,0,1,1-3.383-3.384,3.386,3.386,0,0,1,3.383,3.384m7.123,3.563a2.671,2.671,0,1,1-2.672-2.672,2.673,2.673,0,0,1,2.672,2.672m-34.193,4.274a2.672,2.672,0,1,1-2.674-2.673,2.671,2.671,0,0,1,2.674,2.673" transform="translate(-2000.054 -2485.224)" fill="#c1694f"/>
      <path id="Path_56" data-name="Path 56" d="M2041.587,2506.473c.635-1.29,7.14,4.538,5.477,8.282-1.6.8-7.212,1.8-13.091,2.4,2.628-1.87,6.188-7.792,7.614-10.686" transform="translate(-2007.863 -2488.497)" fill="#dd2e44"/>
      <path id="Path_57" data-name="Path 57" d="M2039.668,2511.305c1.038-2.084,4.94,3.6,3.6,5.943a90.9,90.9,0,0,1-9.813,1.67c1.335-1.736,5.142-5.476,6.21-7.613" transform="translate(-2007.68 -2490.123)" fill="#ea596e"/>
      <path id="Path_58" data-name="Path 58" d="M2061.777,2511.945c1.6-.468,9.551-2.672,14.894-6.812.133-2.737-2.073-6.212-5.678-.335-2.4-1.467-8.348,1.336-9.216,7.146" transform="translate(-2017.768 -2486.823)" fill="#77b255"/>
      <path id="Path_59" data-name="Path 59" d="M2043.082,2550.365a3.206,3.206,0,1,1-3.206-3.206,3.206,3.206,0,0,1,3.206,3.206m14.96,7.48a2.137,2.137,0,1,1-4.274,0h0a2.137,2.137,0,0,1,4.274,0m8.548-10.686a4.274,4.274,0,1,1-8.548,0h0a4.274,4.274,0,1,1,8.548,0" transform="translate(-2008.824 -2501.533)" fill="#e5a157"/>
    </g>
    <rect id="salad-area" width="115" height="115" transform="translate(19.207 352.173)" fill="none"/>
  </g>
</svg>
