<svg xmlns="http://www.w3.org/2000/svg" width="115" height="115" viewBox="0 0 115 115">
  <g id="food-01-true" transform="translate(-16.593 -210.592)">
    <g id="hotdog-inner" transform="translate(39 233)">
      <path id="Path_4" data-name="Path 4" d="M804.7,2542.751a19.233,19.233,0,0,1-27.2,0h0l-30.222-30.219a19.232,19.232,0,0,1,0-27.2h0a19.233,19.233,0,0,1,27.2,0h0l30.222,30.22a19.235,19.235,0,0,1,0,27.2h0" transform="translate(-740.825 -2478.873)" fill="#d99e82"/>
      <path id="Path_5" data-name="Path 5" d="M802.538,2521.613c7.512,7.509,9.85,17.349,5.29,21.908s-14.4,2.224-21.912-5.288l-30.222-30.218c-7.512-7.517-9.852-17.355-5.289-21.917s14.4-2.221,21.911,5.29Z" transform="translate(-743.115 -2480.324)" fill="#f7bba6"/>
      <path id="Path_6" data-name="Path 6" d="M807.982,2536.96c3.024,3.023,3.44,7.5.94,10.007s-6.984,2.086-10.008-.94l-55.972-55.971c-3.024-3.02-3.443-7.5-.941-10s6.984-2.086,10.006.935l55.974,55.976Z" transform="translate(-740.369 -2478.416)" fill="#dd2e44"/>
      <path id="Path_7" data-name="Path 7" d="M809.927,2543.713a.434.434,0,0,1-.308-.128,10.646,10.646,0,0,0-6.088-3.161,12.244,12.244,0,0,1-9.909-9.908,11.36,11.36,0,0,0-9.246-9.246,12.211,12.211,0,0,1-9.9-9.9,11.327,11.327,0,0,0-9.233-9.232,12.209,12.209,0,0,1-9.894-9.895,10.62,10.62,0,0,0-3.154-6.082.436.436,0,0,1,.617-.616,11.481,11.481,0,0,1,3.388,6.506,11.341,11.341,0,0,0,9.235,9.236,12.2,12.2,0,0,1,9.892,9.892,11.342,11.342,0,0,0,9.24,9.241,12.226,12.226,0,0,1,9.9,9.9,11.379,11.379,0,0,0,9.251,9.25,11.511,11.511,0,0,1,6.512,3.4.436.436,0,0,1-.308.744Z" transform="translate(-744.537 -2480.91)" fill="#ffcc4d"/>
    </g>
    <rect id="hotdog-area" width="115" height="115" transform="translate(16.593 210.592)" fill="none"/>
  </g>
</svg>
