<svg xmlns="http://www.w3.org/2000/svg" xmlns:xlink="http://www.w3.org/1999/xlink" width="115" height="115" viewBox="0 0 115 115">
  <defs>
    <clipPath id="clip-path">
      <path id="Path_4357" data-name="Path 4357" d="M234.935,1185.751l.022,1.629a.412.412,0,0,0,.228.343,1.3,1.3,0,0,0,1.167.035.407.407,0,0,0,.253-.333l-.021-1.628a.423.423,0,0,1-.255.335,1.287,1.287,0,0,1-1.167-.037A.414.414,0,0,1,234.935,1185.751Z" transform="translate(-234.935 -1185.751)" fill="none"/>
    </clipPath>
    <clipPath id="clip-path-2">
      <path id="Path_4360" data-name="Path 4360" d="M289.468,1158.813l.46,1.564a.41.41,0,0,0,.312.268,1.3,1.3,0,0,0,1.132-.28.406.406,0,0,0,.154-.389l-.458-1.562a.421.421,0,0,1-.155.391,1.286,1.286,0,0,1-1.133.278A.414.414,0,0,1,289.468,1158.813Z" transform="translate(-289.468 -1158.414)" fill="none"/>
    </clipPath>
    <clipPath id="clip-path-3">
      <path id="Path_4363" data-name="Path 4363" d="M178.014,1158.813l-.46,1.564a.409.409,0,0,1-.312.268,1.3,1.3,0,0,1-1.132-.28.4.4,0,0,1-.154-.389l.458-1.562a.421.421,0,0,0,.155.391,1.287,1.287,0,0,0,1.133.278A.414.414,0,0,0,178.014,1158.813Z" transform="translate(-175.946 -1158.414)" fill="none"/>
    </clipPath>
    <clipPath id="clip-path-4">
      <path id="Path_4366" data-name="Path 4366" d="M186.6,1067.648l-5.638,18.562a.243.243,0,0,1-.194.15.775.775,0,0,1-.666-.2.243.243,0,0,1-.079-.237l5.637-18.562a.251.251,0,0,0,.08.238.77.77,0,0,0,.666.2A.249.249,0,0,0,186.6,1067.648Z" transform="translate(-180.01 -1067.359)" fill="none"/>
    </clipPath>
    <clipPath id="clip-path-5">
      <path id="Path_4369" data-name="Path 4369" d="M264.268,1071.384l5.4,17.8a.243.243,0,0,0,.195.15.774.774,0,0,0,.666-.2.242.242,0,0,0,.079-.236l-5.4-17.8a.25.25,0,0,1-.08.237.769.769,0,0,1-.666.2A.247.247,0,0,1,264.268,1071.384Z" transform="translate(-264.268 -1071.096)" fill="none"/>
    </clipPath>
    <clipPath id="clip-path-6">
      <path id="Path_4372" data-name="Path 4372" d="M236.6,1083.878l.043,20.7a.242.242,0,0,0,.142.2.771.771,0,0,0,.7,0,.241.241,0,0,0,.145-.2l-.042-20.7a.251.251,0,0,1-.146.2.771.771,0,0,1-.7,0A.249.249,0,0,1,236.6,1083.878Z" transform="translate(-236.599 -1083.876)" fill="none"/>
    </clipPath>
    <clipPath id="clip-path-7">
      <path id="Path_4404" data-name="Path 4404" d="M199.828,1016.633c0,3.464-5.956,6.27-13.3,6.27s-13.3-2.807-13.3-6.27,5.956-6.27,13.3-6.27S199.828,1013.17,199.828,1016.633Z" transform="translate(-173.222 -1010.363)" fill="none"/>
    </clipPath>
    <clipPath id="clip-path-8">
      <ellipse id="Ellipse_483" data-name="Ellipse 483" cx="13.303" cy="6.27" rx="13.303" ry="6.27" fill="none"/>
    </clipPath>
  </defs>
  <g id="outdoor-act-03" transform="translate(-27.473 -373.925)">
    <g id="act-bbq-inner" transform="translate(-43.711 -479.82)">
      <g id="Group_4524" data-name="Group 4524" transform="translate(82.711 899.297)">
        <ellipse id="Ellipse_476" data-name="Ellipse 476" cx="45.973" cy="26.543" rx="45.973" ry="26.543" fill="#dadee1"/>
      </g>
      <g id="Group_4526" data-name="Group 4526" transform="translate(27.789 16.35)">
        <g id="Group_4439" data-name="Group 4439" transform="translate(92.291 855.587)">
          <path id="Path_4313" data-name="Path 4313" d="M260.367,872.769s-1.635-.55-1.482,3.355a24.1,24.1,0,0,1-.2,7.608c-.22,1.228,3.416-.327,5.384-1.912.7-.566-.676-5.439-.676-5.439Z" transform="translate(-243.934 -870.723)" fill="#734f39"/>
          <g id="Group_4436" data-name="Group 4436" transform="translate(12.833 19.826)">
            <path id="Path_4315" data-name="Path 4315" d="M253.537,995.141c.018-.02,1.219-.682,1.62-.957,1.415-.972,1.456-1.816,1.415-2.431-.155-2.3-.569-8.548-.658-10.663-.162-3.862-.7-14.626-.412-18.713.051-.736.571-2.456,2.922-1.5.649.263.907,6.776,1.052,8.669a100.64,100.64,0,0,1-.222,11.44c.884,3.668-.649,11.609-.649,11.609,0,.417.433,1.535.148,2.018-.319.543-1.887,1.031-1.887,1.031a2.039,2.039,0,0,1-2.251.535S252.844,995.879,253.537,995.141Z" transform="translate(-252.538 -960.594)" fill="#d8ab80"/>
            <path id="Path_4316" data-name="Path 4316" d="M250.7,1122.465a12.26,12.26,0,0,0-1.14.731c-.441.353-.315.634-.265.766.059.154.324.442,1.031.619a4.3,4.3,0,0,0,2.649-.488c.179-.114,1.678-.98,2.541-1.424a2.46,2.46,0,0,0,.114-1.462c-.042-.167-.242-.744-.236-.53.044,1.591-2.3,2.313-3.315,2.607C251.729,1123.386,250.093,1123.261,250.7,1122.465Z" transform="translate(-249.241 -1088.192)" fill="#324655"/>
          </g>
          <path id="Path_4317" data-name="Path 4317" d="M263.539,965.452c-.283,4.086.251,14.85.412,18.713.089,2.115.5,8.359.658,10.663a2.46,2.46,0,0,1-.041.71,15.115,15.115,0,0,0,2.132-.194c.273-1.522,1.367-8.057.589-11.285a100.633,100.633,0,0,0,.222-11.44c-.123-1.61-.329-6.564-.787-8.168h-2.888A2.409,2.409,0,0,0,263.539,965.452Z" transform="translate(-247.743 -943.842)" fill="#6c9aa4"/>
          <path id="Path_4318" data-name="Path 4318" d="M197.985,965.968a1.281,1.281,0,0,0-1.321-.51,4.381,4.381,0,0,0-1.5.557s0,.231.526.2a1.271,1.271,0,0,1,.849.149s-1.428.852-2.147.688c-.3-.07-1.233.437-.428.89a2.453,2.453,0,0,0,2.442.232c.922-.537,1.431-.632,1.871-.934l2.15-.453-.784-.439Z" transform="translate(-192.081 -944.625)" fill="#e8c594"/>
          <g id="Group_4437" data-name="Group 4437" transform="translate(16.866 19.771)">
            <path id="Path_4319" data-name="Path 4319" d="M271.529,997.789c.019-.019.375-.435,1.153-1.3a5.159,5.159,0,0,0,1.466-2.624,51.334,51.334,0,0,0-.637-11.053c-.463-2.15-1.533-21.49-1.533-21.49a3.284,3.284,0,0,1,3.757-.71c.649.263,2.632,4.761,2.587,7.053-.087,4.471-1.294,14.39-1,16.1.862,5.063-1.516,11.105-1.516,11.105,0,.417.433,1.535.148,2.019a3.947,3.947,0,0,1-1.046,1.021,2.038,2.038,0,0,1-2.25.534S270.836,998.526,271.529,997.789Z" transform="translate(-270.918 -960.32)" fill="#e8c594"/>
            <path id="Path_4320" data-name="Path 4320" d="M270.311,1134.087a10.3,10.3,0,0,0-.926.941c-.608.671,0,1.1.709,1.272a3.348,3.348,0,0,0,2.438-.583c.179-.114.9-.95,1.744-1.63a3.1,3.1,0,0,0,.1-1.056c0-.3-.3-1.123-.3-.912a3.892,3.892,0,0,1-2.436,2.789C271.286,1135.01,269.81,1134.743,270.311,1134.087Z" transform="translate(-269.136 -1097.269)" fill="#324655"/>
          </g>
          <path id="Path_4321" data-name="Path 4321" d="M278.117,960.615a3.284,3.284,0,0,0-3.757.71s1.07,19.34,1.533,21.49a45.816,45.816,0,0,1,.526,9.95c.507.78,1.986.365,2.692.273a31.14,31.14,0,0,0,.663-9.988c-.177-1.728.843-10.912.93-15.383C280.749,965.376,278.767,960.878,278.117,960.615Z" transform="translate(-256.436 -940.549)" fill="#82acb8"/>
          <path id="Path_4322" data-name="Path 4322" d="M299.46,1008.249a7.62,7.62,0,0,0-.956,1.9,6.694,6.694,0,0,0-.078,1.56.536.536,0,0,0,.2.333c.366.234.347-.468.486-1.109.069-.32.377.019.223.928a3.421,3.421,0,0,1-.5,1.377s-.2.852.624.463,1.148-1.446,1.17-2.908c.023-1.563.009-2.371.009-2.371Z" transform="translate(-275.612 -978.763)" fill="#e8c594"/>
          <path id="Path_4323" data-name="Path 4323" d="M216.8,923.207a22.068,22.068,0,0,0,6.977-1.245c1.715-.674,5.017-8.364,5.017-8.364.783-1.207,1.442-3.439-.085-3.643-2.339-.314-2.727,2.011-3.436,3.747-.557,1.363-1.695,5.416-2.361,6.082-.484.485-6.322,2.03-6.322,2.03a1.3,1.3,0,0,1,.21.827Z" transform="translate(-210.372 -900.371)" fill="#003b6b"/>
          <path id="Path_4324" data-name="Path 4324" d="M255.822,919.1c.119.879-.025,3.122.02,3.856.113.792,2.279,1.161,3.764.942,1.684-.248,4.18-.907,4.486-1.6.155-.352-.607-2.936-.624-3.55-.1-3.84,1.284-5.556.971-6.512-.4-1.237-3.292-2.311-4.986-2.693,0,0-1.954-.328-2.371,1.27-.508,1.948-2.782,5.228-2.782,5.866C254.3,918.245,255.769,918.709,255.822,919.1Z" transform="translate(-240.442 -900.041)" fill="#004284"/>
          <path id="Path_4325" data-name="Path 4325" d="M276.354,910.754a6.74,6.74,0,0,1-3.218,2.16c-1.021.177-1.987-.039-1.879-1.036s1.837-2.437,1.837-2.437.93.272,1.27.34A8.906,8.906,0,0,1,276.354,910.754Z" transform="translate(-253.955 -899.983)" fill="#e8c594"/>
          <path id="Path_4326" data-name="Path 4326" d="M275.491,892.343c-.152,1.161,2.731,1.18,2.8.466l-.4-5.556-3.05.04A11.614,11.614,0,0,1,275.491,892.343Z" transform="translate(-256.818 -882.292)" fill="#e8c594"/>
          <path id="Path_4327" data-name="Path 4327" d="M267.619,872.474a2.555,2.555,0,0,1-.58,1.944c-.952,1.136-2.272,1.56-3.036,1.1a3.28,3.28,0,0,1-1.157-2.108,17.663,17.663,0,0,1-.242-2.443c.049-1.456.333-3.014,2.114-2.922a8.427,8.427,0,0,1,2.316,2.581A14.55,14.55,0,0,1,267.619,872.474Z" transform="translate(-247.061 -866.977)" fill="#e8c594"/>
          <path id="Path_4328" data-name="Path 4328" d="M260.682,864.007c-.819,1.208-.86,2.721-.7,2.379.469-1.014.937-1.561,1.522-1.561.087,0,.666,1.412,1.326,1.873a4.369,4.369,0,0,1,1.795,1.912c.3,1.06-.431,4.189,1.288,4.876.975.39,3.043,1.326,2.614.9-1.556-1.556-.8-6.226-.975-7.569-.351-2.691-1.982-3.82-3.433-4.018C264.115,862.8,261.678,862.537,260.682,864.007Z" transform="translate(-244.912 -862.779)" fill="#734f39"/>
          <path id="Path_4329" data-name="Path 4329" d="M297.155,939.368s2.288-7,1.06-11.594-1.83-5.956-2.775-6.488-2.3,1.223-1.575,2.876A27.8,27.8,0,0,1,296,931.709a38.87,38.87,0,0,1-.7,7.568,2.247,2.247,0,0,0,1.352.471C296.906,939.761,297.155,939.368,297.155,939.368Z" transform="translate(-271.823 -909.35)" fill="#004284"/>
          <path id="Path_4330" data-name="Path 4330" d="M205.291,959.99l-1.581.1s.029.617.585.552.762-.049,1,.364c.174.3.8.89,1.29.344C206.9,961,206.609,960.176,205.291,959.99Z" transform="translate(-200.106 -940.286)" fill="#e8c594"/>
          <g id="Group_4438" data-name="Group 4438" transform="translate(0 20.212)">
            <path id="Path_4331" data-name="Path 4331" d="M195.817,964.875c0,1.313-2.214,2.376-4.944,2.376s-4.944-1.063-4.944-2.376a1.927,1.927,0,0,1,.046-.325c.19-1.112,2.4-2.051,4.9-2.051,2.54,0,4.853.96,4.912,2.106a.5.5,0,0,0,.014.066A1.131,1.131,0,0,1,195.817,964.875Z" transform="translate(-185.929 -962.499)" fill="#f8f7f1"/>
            <path id="Path_4332" data-name="Path 4332" d="M190.873,975.078c-2.724,0-5.111-1.194-4.879-2.763a1.465,1.465,0,0,0-.049.2,1.607,1.607,0,0,0-.015.2c0,1.418,2.214,2.568,4.944,2.568s4.944-1.15,4.944-2.568c0,0-.021-.172-.018-.223C195.721,973.957,193.6,975.078,190.873,975.078Z" transform="translate(-185.929 -970.325)" fill="#92b1b7"/>
            <path id="Path_4333" data-name="Path 4333" d="M201.341,967.885c0,.8-1.37,1.449-3.06,1.449s-3.061-.648-3.061-1.449a.7.7,0,0,1,.028-.2c.2-.707,1.484-1.251,3.033-1.251,1.572,0,2.868.561,3.041,1.284,0,.013.006.026.009.04A.725.725,0,0,1,201.341,967.885Z" transform="translate(-193.336 -965.638)" fill="#98c1ca" opacity="0.2"/>
          </g>
        </g>
        <g id="Group_4514" data-name="Group 4514" transform="translate(86.154 871.712)">
          <g id="Group_4510" data-name="Group 4510" transform="translate(0 13.073)">
            <path id="Path_4352" data-name="Path 4352" d="M196.052,1141.738c0,3.809-6.432,6.9-14.366,6.9s-14.365-3.088-14.365-6.9,6.431-6.9,14.365-6.9S196.052,1137.928,196.052,1141.738Z" transform="translate(-164.956 -1108.894)" fill="#48596b" opacity="0.2"/>
            <g id="Group_4443" data-name="Group 4443" transform="translate(7.315 21.082)">
              <path id="Path_4353" data-name="Path 4353" d="M201.022,1112.591c-5.123,0-9.277,1.918-9.277,4.284s4.153,4.285,9.277,4.285,9.276-1.919,9.276-4.285S206.145,1112.591,201.022,1112.591Zm0,5.99c-2.551,0-4.618-.894-4.618-2s2.067-2,4.618-2,4.617.894,4.617,2S203.571,1118.581,201.022,1118.581Z" transform="translate(-191.745 -1112.237)" fill="#e5e8e9"/>
              <path id="Path_4354" data-name="Path 4354" d="M201.022,1110.845c-5.123,0-9.277,1.918-9.277,4.285s4.153,4.284,9.277,4.284,9.276-1.918,9.276-4.284S206.145,1110.845,201.022,1110.845Zm0,5.99c-2.551,0-4.618-.894-4.618-2s2.067-2,4.618-2,4.617.893,4.617,2S203.571,1116.835,201.022,1116.835Z" transform="translate(-191.745 -1110.845)" fill="#a2aebe"/>
              <path id="Path_4355" data-name="Path 4355" d="M210.755,1116.694c-3.7,0-6.7,1.328-6.7,2.964s3,2.964,6.7,2.964,6.7-1.327,6.7-2.964S214.453,1116.694,210.755,1116.694Zm.084,4.8c-2.551,0-4.618-.894-4.618-2s2.067-2,4.618-2,4.617.893,4.617,2S213.388,1121.5,210.838,1121.5Z" transform="translate(-201.561 -1115.508)" fill="#84919d"/>
            </g>
            <g id="Group_4480" data-name="Group 4480" transform="translate(4.113 12.105)">
              <g id="Group_4449" data-name="Group 4449" transform="translate(11.955 23.706)">
                <g id="Group_4448" data-name="Group 4448">
                  <g id="Group_4446" data-name="Group 4446" transform="translate(0.001 0.455)">
                    <g id="Group_4445" data-name="Group 4445" clip-path="url(#clip-path)">
                      <g id="Group_4444" data-name="Group 4444">
                        <path id="Path_4356" data-name="Path 4356" d="M234.935,1185.751l.022,1.629a.412.412,0,0,0,.228.343,1.3,1.3,0,0,0,1.167.035.407.407,0,0,0,.253-.333l-.021-1.628a.423.423,0,0,1-.255.335,1.287,1.287,0,0,1-1.167-.037.414.414,0,0,1-.228-.344" transform="translate(-234.935 -1185.751)" fill="#272f37"/>
                      </g>
                    </g>
                  </g>
                  <g id="Group_4447" data-name="Group 4447">
                    <path id="Path_4358" data-name="Path 4358" d="M235.183,1183.631a.357.357,0,0,0-.024.675,1.287,1.287,0,0,0,1.167.037.359.359,0,0,0,.024-.678A1.288,1.288,0,0,0,235.183,1183.631Z" transform="translate(-234.929 -1183.507)" fill="#72808e"/>
                  </g>
                </g>
              </g>
              <g id="Group_4455" data-name="Group 4455" transform="translate(23.001 18.315)">
                <g id="Group_4454" data-name="Group 4454">
                  <g id="Group_4452" data-name="Group 4452" transform="translate(0.009 0.305)">
                    <g id="Group_4451" data-name="Group 4451" clip-path="url(#clip-path-2)">
                      <g id="Group_4450" data-name="Group 4450">
                        <path id="Path_4359" data-name="Path 4359" d="M289.468,1158.813l.46,1.564a.41.41,0,0,0,.312.268,1.3,1.3,0,0,0,1.132-.28.406.406,0,0,0,.154-.389l-.458-1.562a.421.421,0,0,1-.155.391,1.286,1.286,0,0,1-1.133.278.414.414,0,0,1-.313-.27" transform="translate(-289.468 -1158.414)" fill="#272f37"/>
                      </g>
                    </g>
                  </g>
                  <g id="Group_4453" data-name="Group 4453">
                    <path id="Path_4361" data-name="Path 4361" d="M289.586,1157.228a.357.357,0,0,0,.16.657,1.287,1.287,0,0,0,1.133-.278c.268-.261.2-.555-.16-.659A1.286,1.286,0,0,0,289.586,1157.228Z" transform="translate(-289.423 -1156.911)" fill="#72808e"/>
                  </g>
                </g>
              </g>
              <g id="Group_4461" data-name="Group 4461" transform="translate(0 18.315)">
                <g id="Group_4460" data-name="Group 4460">
                  <g id="Group_4458" data-name="Group 4458" transform="translate(0 0.305)">
                    <g id="Group_4457" data-name="Group 4457" clip-path="url(#clip-path-3)">
                      <g id="Group_4456" data-name="Group 4456">
                        <path id="Path_4362" data-name="Path 4362" d="M178.014,1158.813l-.46,1.564a.409.409,0,0,1-.312.268,1.3,1.3,0,0,1-1.132-.28.4.4,0,0,1-.154-.389l.458-1.562a.421.421,0,0,0,.155.391,1.287,1.287,0,0,0,1.133.278.414.414,0,0,0,.313-.27" transform="translate(-175.946 -1158.414)" fill="#272f37"/>
                      </g>
                    </g>
                  </g>
                  <g id="Group_4459" data-name="Group 4459" transform="translate(0.46)">
                    <path id="Path_4364" data-name="Path 4364" d="M179.67,1157.228a.358.358,0,0,1-.16.657,1.287,1.287,0,0,1-1.133-.278c-.268-.261-.2-.555.16-.659A1.287,1.287,0,0,1,179.67,1157.228Z" transform="translate(-178.215 -1156.911)" fill="#72808e"/>
                  </g>
                </g>
              </g>
              <g id="Group_4467" data-name="Group 4467" transform="translate(0.824)">
                <g id="Group_4466" data-name="Group 4466">
                  <g id="Group_4464" data-name="Group 4464" transform="translate(0 0.163)">
                    <g id="Group_4463" data-name="Group 4463" clip-path="url(#clip-path-4)">
                      <g id="Group_4462" data-name="Group 4462">
                        <path id="Path_4365" data-name="Path 4365" d="M186.6,1067.648l-5.638,18.562a.243.243,0,0,1-.194.15.775.775,0,0,1-.666-.2.243.243,0,0,1-.079-.237l5.637-18.562a.251.251,0,0,0,.08.238.77.77,0,0,0,.666.2.249.249,0,0,0,.2-.151" transform="translate(-180.01 -1067.359)" fill="#bbcbde"/>
                      </g>
                    </g>
                  </g>
                  <g id="Group_4465" data-name="Group 4465" transform="translate(5.638)">
                    <path id="Path_4367" data-name="Path 4367" d="M208.692,1066.77a.213.213,0,0,1-.116.386.77.77,0,0,1-.666-.2c-.151-.164-.1-.337.116-.388A.764.764,0,0,1,208.692,1066.77Z" transform="translate(-207.823 -1066.553)" fill="#a2aebe"/>
                  </g>
                </g>
              </g>
              <g id="Group_4473" data-name="Group 4473" transform="translate(17.894 0.757)">
                <g id="Group_4472" data-name="Group 4472">
                  <g id="Group_4470" data-name="Group 4470" transform="translate(0.008 0.164)">
                    <g id="Group_4469" data-name="Group 4469" clip-path="url(#clip-path-5)">
                      <g id="Group_4468" data-name="Group 4468">
                        <path id="Path_4368" data-name="Path 4368" d="M264.268,1071.384l5.4,17.8a.243.243,0,0,0,.195.15.774.774,0,0,0,.666-.2.242.242,0,0,0,.079-.236l-5.4-17.8a.25.25,0,0,1-.08.237.769.769,0,0,1-.666.2.247.247,0,0,1-.194-.151" transform="translate(-264.268 -1071.096)" fill="#bbcbde"/>
                      </g>
                    </g>
                  </g>
                  <g id="Group_4471" data-name="Group 4471">
                    <path id="Path_4370" data-name="Path 4370" d="M264.314,1070.5a.213.213,0,0,0,.116.387.769.769,0,0,0,.666-.2c.151-.164.1-.337-.116-.387A.766.766,0,0,0,264.314,1070.5Z" transform="translate(-264.227 -1070.287)" fill="#a2aebe"/>
                  </g>
                </g>
              </g>
              <g id="Group_4479" data-name="Group 4479" transform="translate(12.293 3.227)">
                <g id="Group_4478" data-name="Group 4478">
                  <g id="Group_4476" data-name="Group 4476" transform="translate(0.001 0.284)">
                    <g id="Group_4475" data-name="Group 4475" clip-path="url(#clip-path-6)">
                      <g id="Group_4474" data-name="Group 4474">
                        <path id="Path_4371" data-name="Path 4371" d="M236.6,1083.878l.043,20.7a.242.242,0,0,0,.142.2.771.771,0,0,0,.7,0,.241.241,0,0,0,.145-.2l-.042-20.7a.251.251,0,0,1-.146.2.771.771,0,0,1-.7,0,.249.249,0,0,1-.142-.2" transform="translate(-236.599 -1083.876)" fill="#bbcbde"/>
                      </g>
                    </g>
                  </g>
                  <g id="Group_4477" data-name="Group 4477">
                    <path id="Path_4373" data-name="Path 4373" d="M236.74,1082.558a.213.213,0,0,0,0,.4.77.77,0,0,0,.7,0,.214.214,0,0,0,0-.4A.768.768,0,0,0,236.74,1082.558Z" transform="translate(-236.595 -1082.474)" fill="#a2aebe"/>
                  </g>
                </g>
              </g>
            </g>
            <path id="Path_4374" data-name="Path 4374" d="M239.144,1104.863a.718.718,0,0,0,.365-.083.241.241,0,0,0,.145-.2l-.042-20.7a.251.251,0,0,1-.146.2.673.673,0,0,1-.289.08Z" transform="translate(-222.221 -1068.26)" fill="#6c7a87" opacity="0.4"/>
            <path id="Path_4375" data-name="Path 4375" d="M270.2,1090.457l-5.616-17.775a.561.561,0,0,1-.119-.012.247.247,0,0,1-.194-.151l5.4,17.805a.243.243,0,0,0,.195.15A.7.7,0,0,0,270.2,1090.457Z" transform="translate(-242.253 -1059.204)" fill="#6c7a87" opacity="0.4"/>
            <path id="Path_4376" data-name="Path 4376" d="M187.409,1076.061l-5.237,17.225a.684.684,0,0,0,.315.012.243.243,0,0,0,.194-.15l5.165-17Z" transform="translate(-176.797 -1062.029)" fill="#6c7a87" opacity="0.4"/>
            <path id="Path_4377" data-name="Path 4377" d="M199.352,1019.722c-.4,5.944-4.259,11.356-13.809,11.356-8.489,0-13.343-5.4-13.478-11.356-.08-3.541,5.708-7.076,13.242-7.076S199.573,1016.433,199.352,1019.722Z" transform="translate(-168.738 -1011.468)" fill="#683b3e"/>
            <path id="Path_4378" data-name="Path 4378" d="M197.133,1014.05c0,3.986-6.394,7.217-14.282,7.217s-14.282-3.231-14.282-7.217,6.394-7.217,14.282-7.217S197.133,1010.064,197.133,1014.05Z" transform="translate(-165.951 -1006.833)" fill="#bb4f49"/>
            <path id="Path_4379" data-name="Path 4379" d="M199.828,1016.633c0,3.464-5.956,6.27-13.3,6.27s-13.3-2.807-13.3-6.27,5.956-6.27,13.3-6.27S199.828,1013.17,199.828,1016.633Z" transform="translate(-169.661 -1009.647)" fill="#573239"/>
            <path id="Path_4380" data-name="Path 4380" d="M189.69,1037.433c5.743,0,10.636-1.715,12.5-4.118-1.267-2.7-6.38-4.728-12.5-4.728s-11.232,2.024-12.5,4.728C179.054,1035.717,183.946,1037.433,189.69,1037.433Z" transform="translate(-172.826 -1024.177)" fill="#000002"/>
            <path id="Path_4381" data-name="Path 4381" d="M192.858,1047.055a27.353,27.353,0,0,1-19.989,0c-2.5-1.139-4.105-2.969-4.3-4.849,0,.016,0,.031,0,.047a3.768,3.768,0,0,0,.155,1.062,7.6,7.6,0,0,0,4.106,3.877,27.451,27.451,0,0,0,20.066,0,8.267,8.267,0,0,0,3.832-3.235,3.99,3.99,0,0,0,.387-1.363C196.792,1044.293,195.208,1045.984,192.858,1047.055Z" transform="translate(-165.951 -1035.036)" fill="#3d2629" opacity="0.5"/>
            <path id="Path_4382" data-name="Path 4382" d="M172.708,1042.415l-14.173,1.5a3.592,3.592,0,0,1-1.941-.6,1.425,1.425,0,0,1-.542-.512.529.529,0,0,1,.139-.039l14.173-1.5.1-.275-.22-.14-14.173,1.5c-.181.025-.281.092-.309.187a.1.1,0,0,1,0-.01l-.1.275c-.068.188.168.494.67.812a4.294,4.294,0,0,0,2.321.712l14.172-1.5.1-.275Z" transform="translate(-155.654 -1033.958)" fill="#9f9b9b"/>
            <g id="Group_4509" data-name="Group 4509" transform="translate(3.561 0.715)">
              <g id="Group_4508" data-name="Group 4508" clip-path="url(#clip-path-7)">
                <g id="Group_4507" data-name="Group 4507" transform="translate(0.079 1.1)">
                  <ellipse id="Ellipse_482" data-name="Ellipse 482" cx="13.303" cy="6.27" rx="13.303" ry="6.27" fill="none" stroke="#acacac" stroke-miterlimit="10" stroke-width="1.163"/>
                  <g id="Group_4481" data-name="Group 4481" transform="translate(4.539 1.462)">
                    <rect id="Rectangle_166" data-name="Rectangle 166" width="0.236" height="19.372" transform="translate(0 0.204) rotate(-59.793)" fill="#acacac"/>
                  </g>
                  <g id="Group_4506" data-name="Group 4506">
                    <g id="Group_4505" data-name="Group 4505" clip-path="url(#clip-path-8)">
                      <g id="Group_4504" data-name="Group 4504" transform="translate(-5.823 -4.457)">
                        <g id="Group_4482" data-name="Group 4482" transform="translate(2.719 1.57)">
                          <path id="Path_4383" data-name="Path 4383" d="M176.97,1001.645l-18.5,10.753-.172-.1,18.5-10.753Z" transform="translate(-158.295 -1001.545)" fill="#939292"/>
                        </g>
                        <g id="Group_4483" data-name="Group 4483" transform="translate(4.531 2.616)">
                          <path id="Path_4384" data-name="Path 4384" d="M185.914,1006.807l-18.5,10.753-.172-.1,18.5-10.753Z" transform="translate(-167.239 -1006.708)" fill="#939292"/>
                        </g>
                        <g id="Group_4484" data-name="Group 4484" transform="translate(6.344 3.663)">
                          <path id="Path_4385" data-name="Path 4385" d="M194.857,1011.971l-18.5,10.753-.172-.1,18.5-10.753Z" transform="translate(-176.182 -1011.873)" fill="#939292"/>
                        </g>
                        <g id="Group_4499" data-name="Group 4499" transform="translate(5.438 3.14)">
                          <g id="Group_4485" data-name="Group 4485">
                            <path id="Path_4386" data-name="Path 4386" d="M190.386,1009.39l-18.5,10.753-.172-.1,18.5-10.753Z" transform="translate(-171.711 -1009.291)" fill="#939292"/>
                          </g>
                          <g id="Group_4486" data-name="Group 4486" transform="translate(1.813 1.047)">
                            <path id="Path_4387" data-name="Path 4387" d="M199.329,1014.552l-18.5,10.753-.172-.1,18.5-10.753Z" transform="translate(-180.654 -1014.454)" fill="#939292"/>
                          </g>
                          <g id="Group_4487" data-name="Group 4487" transform="translate(2.719 1.569)">
                            <path id="Path_4388" data-name="Path 4388" d="M203.8,1017.133l-18.5,10.753-.171-.1,18.5-10.753Z" transform="translate(-185.124 -1017.034)" fill="#939292"/>
                          </g>
                          <g id="Group_4488" data-name="Group 4488" transform="translate(3.624 2.092)">
                            <path id="Path_4389" data-name="Path 4389" d="M208.265,1019.713l-18.5,10.753-.173-.1,18.5-10.753Z" transform="translate(-189.589 -1019.614)" fill="#939292"/>
                          </g>
                          <g id="Group_4489" data-name="Group 4489" transform="translate(4.53 2.615)">
                            <path id="Path_4390" data-name="Path 4390" d="M212.737,1022.294l-18.5,10.753-.173-.1,18.5-10.753Z" transform="translate(-194.061 -1022.194)" fill="#939292"/>
                          </g>
                          <g id="Group_4490" data-name="Group 4490" transform="translate(5.436 3.139)">
                            <path id="Path_4391" data-name="Path 4391" d="M217.208,1024.876l-18.5,10.753-.173-.1,18.5-10.753Z" transform="translate(-198.531 -1024.776)" fill="#939292"/>
                          </g>
                          <g id="Group_4491" data-name="Group 4491" transform="translate(6.342 3.662)">
                            <path id="Path_4392" data-name="Path 4392" d="M221.679,1027.457l-18.5,10.753-.173-.1,18.5-10.753Z" transform="translate(-203.002 -1027.357)" fill="#939292"/>
                          </g>
                          <g id="Group_4492" data-name="Group 4492" transform="translate(7.249 4.185)">
                            <path id="Path_4393" data-name="Path 4393" d="M226.149,1030.038l-18.5,10.753-.172-.1,18.5-10.753Z" transform="translate(-207.474 -1029.939)" fill="#939292"/>
                          </g>
                          <g id="Group_4493" data-name="Group 4493" transform="translate(8.155 4.708)">
                            <path id="Path_4394" data-name="Path 4394" d="M230.62,1032.619l-18.5,10.753-.172-.1,18.5-10.753Z" transform="translate(-211.945 -1032.52)" fill="#939292"/>
                          </g>
                          <g id="Group_4494" data-name="Group 4494" transform="translate(9.061 5.232)">
                            <path id="Path_4395" data-name="Path 4395" d="M235.091,1035.2l-18.5,10.753-.171-.1,18.5-10.753Z" transform="translate(-216.416 -1035.102)" fill="#939292"/>
                          </g>
                          <g id="Group_4495" data-name="Group 4495" transform="translate(9.968 5.755)">
                            <path id="Path_4396" data-name="Path 4396" d="M239.564,1037.781l-18.5,10.754-.172-.1,18.5-10.753Z" transform="translate(-220.889 -1037.682)" fill="#939292"/>
                          </g>
                          <g id="Group_4496" data-name="Group 4496" transform="translate(10.874 6.278)">
                            <path id="Path_4397" data-name="Path 4397" d="M244.034,1040.364l-18.5,10.753-.172-.1,18.5-10.753Z" transform="translate(-225.359 -1040.265)" fill="#939292"/>
                          </g>
                          <g id="Group_4497" data-name="Group 4497" transform="translate(11.781 6.802)">
                            <path id="Path_4398" data-name="Path 4398" d="M248.507,1042.946,230,1053.7l-.172-.1,18.5-10.753Z" transform="translate(-229.832 -1042.847)" fill="#939292"/>
                          </g>
                          <g id="Group_4498" data-name="Group 4498" transform="translate(12.687 7.325)">
                            <path id="Path_4399" data-name="Path 4399" d="M252.978,1045.528l-18.5,10.753-.171-.1,18.5-10.753Z" transform="translate(-234.303 -1045.428)" fill="#939292"/>
                          </g>
                        </g>
                        <g id="Group_4500" data-name="Group 4500" transform="translate(3.625 2.093)">
                          <path id="Path_4400" data-name="Path 4400" d="M181.443,1004.227l-18.5,10.753-.171-.1,18.5-10.753Z" transform="translate(-162.769 -1004.128)" fill="#939292"/>
                        </g>
                        <g id="Group_4501" data-name="Group 4501" transform="translate(1.813 1.046)">
                          <path id="Path_4401" data-name="Path 4401" d="M172.5,999.062,154,1009.815l-.171-.1,18.5-10.753Z" transform="translate(-153.825 -998.962)" fill="#939292"/>
                        </g>
                        <g id="Group_4502" data-name="Group 4502" transform="translate(0.906 0.523)">
                          <path id="Path_4402" data-name="Path 4402" d="M168.03,996.482l-18.5,10.753-.173-.1,18.5-10.753Z" transform="translate(-149.353 -996.381)" fill="#939292"/>
                        </g>
                        <g id="Group_4503" data-name="Group 4503">
                          <path id="Path_4403" data-name="Path 4403" d="M163.559,993.9l-18.5,10.753-.173-.1,18.5-10.753Z" transform="translate(-144.883 -993.8)" fill="#939292"/>
                        </g>
                      </g>
                    </g>
                  </g>
                </g>
              </g>
            </g>
          </g>
          <g id="Group_4511" data-name="Group 4511" transform="translate(9.702 14.004)">
            <path id="Path_4405" data-name="Path 4405" d="M211.817,1015.151s.167,0,.167.525a2.065,2.065,0,0,1-.063.671,3.348,3.348,0,0,1-1.427.734c-1.07.336-.743.391-1.573.671a8.278,8.278,0,0,1-3.819.315c-1.532-.126-1.427-.462-1.427-.462l-.062-.587Z" transform="translate(-203.594 -1014.396)" fill="#d1a276"/>
            <path id="Path_4406" data-name="Path 4406" d="M211.931,1012.537c.072-.668-.818-1.112-2.224-1.112s-2.68.511-2.791.86a1.321,1.321,0,0,1-.671.881,3.535,3.535,0,0,1-1.385.44c-1.07.1-2.356.7-.063.965a7.818,7.818,0,0,0,4.805-.714C210.155,1013.481,211.869,1013.124,211.931,1012.537Z" transform="translate(-203.52 -1011.425)" fill="#f2ceaf"/>
            <path id="Path_4407" data-name="Path 4407" d="M212.63,1012.886c.068-.629-.779-1.047-2.118-1.047s-2.552.481-2.658.81a1.409,1.409,0,0,1-.636.953,4.267,4.267,0,0,1-1.49.42c-1.019.1-2.076.531.108.781a7.52,7.52,0,0,0,4.576-.672C210.938,1013.774,212.57,1013.439,212.63,1012.886Z" transform="translate(-204.345 -1011.755)" fill="#b95047"/>
            <path id="Path_4408" data-name="Path 4408" d="M214.12,1012.868c.189.409-.141.692-.614.708a2.9,2.9,0,0,0-1.227.519c-.315.174-1.448.016-1.291.267s.126.488-1.479.677-3.115-.094-2.486-.236.833-.268.818-.346,1.7-.142,1.889-.472-.3-.677.016-.881,1.464-.377,1.274-.488.708-.33,1.448-.3S213.993,1012.592,214.12,1012.868Z" transform="translate(-206.196 -1012.134)" fill="#d24c59"/>
            <path id="Path_4409" data-name="Path 4409" d="M218.08,1013.649a2.88,2.88,0,0,1-.5.157,2.374,2.374,0,0,1-.992.078,2.667,2.667,0,0,0-.849-.078c-.126.063-.3.141-.472.22-.091.042-.52.189-.11.2.225.008.252.125-.22.22s-.488.2-.315.268.693-.047.583.173-.362.881-1.054.755-.6-.107-.724-.078a7.088,7.088,0,0,1-.85.236c-.141-.016.142.142.457,0a3.045,3.045,0,0,1,1.4-.047c.583.063.614-.331.771-.472.358-.322.52-.566.645-.268s.063.252.173.221.126,0,.189-.173.268-.2.5-.377a1.045,1.045,0,0,0,.331-.456s.378-.173.771-.331S218.3,1013.68,218.08,1013.649Z" transform="translate(-210.707 -1013.198)" fill="#da7580"/>
            <path id="Path_4410" data-name="Path 4410" d="M227.131,1015.979s-.944.021-.671.147-.026.189-.215.231.12.341.708.236S228.013,1016.168,227.131,1015.979Z" transform="translate(-221.595 -1015.056)" fill="#f1e5cc"/>
            <path id="Path_4411" data-name="Path 4411" d="M228.47,1016.649a.2.2,0,0,0-.173.079c-.078.11-.2.062-.2.157s.614.031.646-.11S228.486,1016.633,228.47,1016.649Z" transform="translate(-223.111 -1015.585)" fill="#da7580"/>
          </g>
          <g id="Group_4512" data-name="Group 4512" transform="translate(16.045 16.213)">
            <path id="Path_4412" data-name="Path 4412" d="M243.109,1026.047s.168,0,.168.524a2.071,2.071,0,0,1-.063.672,3.35,3.35,0,0,1-1.427.734c-1.07.336-.744.391-1.574.671a8.266,8.266,0,0,1-3.819.315c-1.531-.126-1.427-.461-1.427-.461l-.062-.588Z" transform="translate(-234.887 -1025.292)" fill="#d1a276"/>
            <path id="Path_4413" data-name="Path 4413" d="M243.225,1023.433c.072-.668-.818-1.112-2.224-1.112s-2.68.511-2.791.86a1.324,1.324,0,0,1-.671.882,3.538,3.538,0,0,1-1.385.441c-1.07.1-2.357.7-.063.965a7.818,7.818,0,0,0,4.805-.714C241.448,1024.377,243.162,1024.02,243.225,1023.433Z" transform="translate(-234.814 -1022.321)" fill="#f2ceaf"/>
            <path id="Path_4414" data-name="Path 4414" d="M243.923,1023.782c.068-.629-.779-1.047-2.118-1.047s-2.552.481-2.658.81a1.409,1.409,0,0,1-.636.953,4.264,4.264,0,0,1-1.49.419c-1.019.1-2.076.532.108.781a7.525,7.525,0,0,0,4.576-.672C242.231,1024.67,243.863,1024.335,243.923,1023.782Z" transform="translate(-235.639 -1022.651)" fill="#b95047"/>
            <path id="Path_4415" data-name="Path 4415" d="M245.413,1023.764c.189.409-.141.692-.614.708a2.9,2.9,0,0,0-1.228.519c-.315.173-1.448.016-1.291.268s.126.487-1.479.677-3.115-.1-2.486-.236.833-.268.818-.346,1.7-.141,1.889-.472-.3-.677.016-.882,1.464-.377,1.275-.488.708-.331,1.448-.3S245.286,1023.488,245.413,1023.764Z" transform="translate(-237.49 -1023.03)" fill="#d24c59"/>
            <path id="Path_4416" data-name="Path 4416" d="M249.373,1024.546a2.893,2.893,0,0,1-.5.157,2.382,2.382,0,0,1-.991.078,2.655,2.655,0,0,0-.85-.078c-.126.063-.3.142-.472.22-.091.041-.52.189-.11.2.225.009.252.126-.22.22s-.488.2-.315.268.693-.047.583.173-.362.881-1.055.755-.6-.107-.724-.078a7.053,7.053,0,0,1-.851.235c-.141-.016.142.142.457,0a3.05,3.05,0,0,1,1.4-.047c.583.063.614-.33.772-.472.358-.323.519-.567.645-.268s.063.252.173.22.126,0,.189-.173.267-.2.5-.378a1.042,1.042,0,0,0,.331-.456s.377-.173.771-.331S249.593,1024.578,249.373,1024.546Z" transform="translate(-242 -1024.095)" fill="#da7580"/>
            <path id="Path_4417" data-name="Path 4417" d="M258.424,1026.874s-.944.021-.671.147-.026.189-.216.231.121.341.708.236S259.3,1027.063,258.424,1026.874Z" transform="translate(-252.887 -1025.951)" fill="#f1e5cc"/>
            <path id="Path_4418" data-name="Path 4418" d="M259.761,1027.546a.2.2,0,0,0-.173.079c-.079.11-.2.063-.2.157s.614.031.646-.11S259.777,1027.53,259.761,1027.546Z" transform="translate(-254.403 -1026.481)" fill="#da7580"/>
          </g>
          <g id="Group_4513" data-name="Group 4513" transform="translate(19.891 20.085)">
            <path id="Path_4419" data-name="Path 4419" d="M262.218,1047.075s.166.027.083.544a2.071,2.071,0,0,1-.169.653,3.349,3.349,0,0,1-1.525.5c-1.11.162-.8.267-1.66.413a8.269,8.269,0,0,1-3.821-.294c-1.492-.367-1.336-.682-1.336-.682l.031-.589Z" transform="translate(-253.786 -1045.93)" fill="#d1a276"/>
            <path id="Path_4420" data-name="Path 4420" d="M262.354,1042.954c.177-.649-.632-1.228-2.02-1.451s-2.727.08-2.892.408a1.324,1.324,0,0,1-.8.764,3.537,3.537,0,0,1-1.437.216c-1.074-.066-2.438.318-.215.943a7.813,7.813,0,0,0,4.858.056C260.45,1043.6,262.2,1043.524,262.354,1042.954Z" transform="translate(-253.792 -1041.427)" fill="#f2ceaf"/>
            <path id="Path_4421" data-name="Path 4421" d="M263.074,1043.276c.167-.61-.6-1.157-1.926-1.369s-2.6.071-2.753.379a1.411,1.411,0,0,1-.779.84,4.259,4.259,0,0,1-1.537.179c-1.022-.064-2.134.2-.017.788a7.524,7.524,0,0,0,4.625.062C261.263,1043.886,262.928,1043.813,263.074,1043.276Z" transform="translate(-254.641 -1041.751)" fill="#b95047"/>
            <path id="Path_4422" data-name="Path 4422" d="M264.559,1043.251c.121.434-.25.661-.719.6a2.9,2.9,0,0,0-1.294.318c-.339.121-1.432-.214-1.317.059s.047.5-1.568.434-3.061-.586-2.417-.627.866-.132.863-.212,1.7.129,1.94-.167-.188-.716.155-.868,1.5-.141,1.336-.28.751-.214,1.477-.066S264.477,1042.958,264.559,1043.251Z" transform="translate(-256.418 -1042.175)" fill="#d24c59"/>
            <path id="Path_4423" data-name="Path 4423" d="M268.6,1044.05a2.855,2.855,0,0,1-.522.076,2.384,2.384,0,0,1-.992-.079,2.64,2.64,0,0,0-.826-.212c-.135.042-.318.092-.5.143-.1.026-.543.1-.141.185.221.044.229.164-.253.182s-.514.125-.353.214.691.063.548.263-.5.813-1.161.578-.576-.2-.7-.192a7.063,7.063,0,0,1-.877.1c-.137-.038.118.162.451.072a3.051,3.051,0,0,1,1.391.175c.564.155.658-.229.836-.344.4-.261.6-.477.679-.161s.022.258.136.245.124.02.214-.141.3-.159.557-.293a1.041,1.041,0,0,0,.4-.4s.4-.112.814-.2S268.81,1044.116,268.6,1044.05Z" transform="translate(-260.957 -1043.341)" fill="#da7580"/>
            <path id="Path_4424" data-name="Path 4424" d="M278.244,1045.608s-.936-.129-.686.038-.056.182-.249.194.065.356.662.345S279.084,1045.934,278.244,1045.608Z" transform="translate(-272.49 -1044.723)" fill="#f1e5cc"/>
            <path id="Path_4425" data-name="Path 4425" d="M279.575,1046.32a.2.2,0,0,0-.183.051c-.1.1-.212.03-.227.123s.6.128.655-.006S279.594,1046.308,279.575,1046.32Z" transform="translate(-274.021 -1045.324)" fill="#da7580"/>
          </g>
          <path id="Path_4426" data-name="Path 4426" d="M224.891,970.639a1.821,1.821,0,0,0-.343-2.686c-1.91-1.357-1.91-2.06-.9-3.92s.72-2.5-.1-2.664c-.252-.05,2.513.051,1.005,2.915-1.046,1.986-.553,2.714.05,3.166S226.324,968.771,224.891,970.639Z" transform="translate(-209.329 -957.505)" fill="#a2bdd3" opacity="0.4"/>
          <path id="Path_4427" data-name="Path 4427" d="M249,968.547s2.764,2.162,1.257,4.423a4.656,4.656,0,0,0-1.056,2.312c0,.3-.339-.519-.1-1.609.155-.709,1.156-1.306.854-1.909-.5-.99-1.257.8-1.257.8a2.194,2.194,0,0,1,.251-1.508C249.7,969.7,249.7,969.3,249,968.547Z" transform="translate(-229.805 -963.234)" fill="#a2bdd3" opacity="0.4"/>
          <path id="Path_4428" data-name="Path 4428" d="M237.787,957.344s-2.111-1.055-1.307-2.664c.686-1.372,2.01-1.709,1-2.915a1.26,1.26,0,0,1,.05-1.96,1.489,1.489,0,0,0,.3,1.658c1.005.8,1.307,1.759-.05,3.116A2.128,2.128,0,0,0,237.787,957.344Z" transform="translate(-219.952 -948.291)" fill="#a2bdd3" opacity="0.4"/>
          <path id="Path_4429" data-name="Path 4429" d="M242.036,994a1.318,1.318,0,0,1-.085-1.715c.538-.794-.154-1.971-.154-1.971s1.241,1.007.64,2.1C241.746,993.666,242.036,994,242.036,994Z" transform="translate(-224.238 -980.588)" fill="#a2bdd3" opacity="0.4"/>
          <path id="Path_4430" data-name="Path 4430" d="M234.2,946.021a1.318,1.318,0,0,1-.085-1.715c.538-.794-.154-1.971-.154-1.971s1.242,1.007.64,2.1C233.91,945.688,234.2,946.021,234.2,946.021Z" transform="translate(-217.99 -942.335)" fill="#a2bdd3" opacity="0.4"/>
        </g>
        <g id="Group_4520" data-name="Group 4520" transform="translate(70.476 853.758)">
          <g id="Group_4515" data-name="Group 4515" transform="translate(18.581 27.226)">
            <path id="Path_4431" data-name="Path 4431" d="M171.946,988.083s6.066,1.015,6.578,1.139c1.3.314,1.59,3.534-.373,3.927-.393.078-7.029-.785-7.029-.785s-1.414-.2-1.1-2.4C170.234,988.486,171.121,988.044,171.946,988.083Z" transform="translate(-169.976 -988.08)" fill="#506a49"/>
            <path id="Path_4432" data-name="Path 4432" d="M212.024,997.877a1.429,1.429,0,0,0,1.139.962c.864.236,2.933.533,2.933.533l-.118,1.1s-2.265-.376-3.286-.415a2.956,2.956,0,0,0-1.61.589Z" transform="translate(-202.749 -995.891)" fill="#506a49"/>
            <path id="Path_4433" data-name="Path 4433" d="M173.135,990.766c-.042,1.127-.647,2.019-1.351,1.993s-1.241-.961-1.2-2.088.647-2.019,1.352-1.993S173.177,989.639,173.135,990.766Z" transform="translate(-170.459 -988.556)" fill="#466347"/>
            <path id="Path_4434" data-name="Path 4434" d="M232.184,1004.264a.8.8,0,0,1,.3-.176,11.062,11.062,0,0,1,1.173.25s.322.155.176.81a.672.672,0,0,1-.436.554l-1.142-.223s-.264-.071-.229-.264S232.184,1004.264,232.184,1004.264Z" transform="translate(-219.446 -1000.842)" fill="#506a49"/>
          </g>
          <path id="Path_4435" data-name="Path 4435" d="M126.722,928.1c.795-.782,4.076-6.388,3.691-7.763-.414-1.517-1.7-5.053-1.7-5.053s-1.424-2.927.467-3.323c1.145-.24,2.842.609,3.2,3.15a54.46,54.46,0,0,1,.955,5.377c-.283,1.964-6.2,8.662-6.2,8.662S126.568,928.251,126.722,928.1Z" transform="translate(-116.887 -900.134)" fill="#c4976a"/>
          <path id="Path_4436" data-name="Path 4436" d="M133.015,914.605c1.955.331,3.427-.4,3.988-1.517-.147-.9-.818-2.7-.864-3.019-.359-2.541-2.12-3.023-3.266-2.783-.747.157-1.26,2.368-1.341,3.1C132.107,912.007,131.994,914.432,133.015,914.605Z" transform="translate(-120.743 -896.393)" fill="#a80521"/>
          <path id="Path_4438" data-name="Path 4438" d="M124.3,1035.234s1.134,5.936.934,6.337c-.275.55,2.1,9.051,2.491,10.4.728,2.5,1.722,2.554,1.722,2.554s-1.007,1.395-1.333,1.341-2.106.347-2.253-.122-.077-1.572-.294-2.431-4.271-7.285-4.335-9.272a46.114,46.114,0,0,0-.8-7.6Z" transform="translate(-111.889 -998.45)" fill="#c4976a"/>
          <g id="Group_4516" data-name="Group 4516" transform="translate(13.636 54.188)">
            <path id="Path_4439" data-name="Path 4439" d="M148.7,1132.495l3.907-.415a5.856,5.856,0,0,1,1.936.24.949.949,0,0,1,.289.472,2.51,2.51,0,0,1,.184.927,2.2,2.2,0,0,1-1.074,1.013,5.765,5.765,0,0,1-3.172.454c-.271-.077-3.4-.651-3.4-.651s-.192-.031-.344-.344l-.394-1.2Z" transform="translate(-146.412 -1129.854)" fill="#efefee"/>
            <path id="Path_4440" data-name="Path 4440" d="M149.6,1121.321a3.342,3.342,0,0,0,.015.712l1.841.882s1.336.2,1.837.319a1.288,1.288,0,0,1,.636.667.6.6,0,0,1-.007.466,2.8,2.8,0,0,1-1.07,1.016,5.778,5.778,0,0,1-3.171.451c-.235-.068-2.394-.5-3.5-.709a3.959,3.959,0,0,1-.592-1.481c-.046-.3,0-1.294.11-1.211a7.338,7.338,0,0,0,2.07.9,1.7,1.7,0,0,1,.487-1.369S149.641,1120.574,149.6,1121.321Z" transform="translate(-145.577 -1121.101)" fill="#485f73"/>
          </g>
          <path id="Path_4441" data-name="Path 4441" d="M103.566,1000.461c.754.283,3.99.933,5.088.626.695-.193,3.033-.853,3.649-1.693-.134-.667-2.179-10.019-2.964-12.925s-7.395-2.724-5.213,4.011C104.963,993.062,103.351,998.494,103.566,1000.461Z" transform="translate(-98.429 -958.141)" fill="#4e6970"/>
          <path id="Path_4442" data-name="Path 4442" d="M152.208,1129.49a12.188,12.188,0,0,1-4.739-1.36c-.973-.465-1.868-1.238-2.043-.9-.237.317-.059,1.166-.049,1.233a3.96,3.96,0,0,0,.592,1.481c1.1.2,3.263.642,3.5.709a5.778,5.778,0,0,0,3.171-.451,3.819,3.819,0,0,0,.339-.224A1.2,1.2,0,0,0,152.208,1129.49Z" transform="translate(-131.723 -1071.733)" fill="#6d899d"/>
          <path id="Path_4443" data-name="Path 4443" d="M89.095,1039.113c-.267,4.669-.621,4.283-.734,4.736a79.883,79.883,0,0,0-1.2,12.273c.168.952,2.371,3.4,2.067,3.269s-5.165-1.229-5.195-1.719.3-1.544.3-2.43-.677-7.943-.843-9.925c-.267-3.2,2.268-10.739,2.268-10.739S89.162,1037.935,89.095,1039.113Z" transform="translate(-82.424 -997.926)" fill="#e8c594"/>
          <g id="Group_4517" data-name="Group 4517" transform="translate(1.385 57.675)">
            <path id="Path_4444" data-name="Path 4444" d="M87.678,1149.144l4.147.539a6.445,6.445,0,0,1,1.94.705.926.926,0,0,1,.177.533,2.418,2.418,0,0,1-.049.955,2.376,2.376,0,0,1-1.372.734,6.436,6.436,0,0,1-3.4-.323c-.26-.141-3.352-1.465-3.352-1.465s-.19-.077-.267-.422l-.1-1.276Z" transform="translate(-85.353 -1146.931)" fill="#efefee"/>
            <path id="Path_4445" data-name="Path 4445" d="M89.888,1138.558a3.23,3.23,0,0,0-.168.7l1.677,1.312s1.331.518,1.817.759a1.285,1.285,0,0,1,.485.809.581.581,0,0,1-.128.457,3.041,3.041,0,0,1-1.368.737,6.452,6.452,0,0,1-3.4-.326c-.226-.123-2.346-1.077-3.434-1.544a3.822,3.822,0,0,1-.23-1.6c.03-.307.33-1.272.426-1.163a7.783,7.783,0,0,0,1.907,1.389,1.707,1.707,0,0,1,.857-1.226S90.118,1137.833,89.888,1138.558Z" transform="translate(-85.136 -1138.3)" fill="#485f73"/>
          </g>
          <path id="Path_4446" data-name="Path 4446" d="M78.3,983.773c.687.4,2.862,1.783,4.043,1.754a6.974,6.974,0,0,0,3.295-.62c.235-.513.454-7.3.6-8.338.375-2.643.846-11.96.846-11.96s-2.525-1.857-3.914-1.781c-.447.025-3.306,3.635-3.6,6.137-.205,1.731-.323,2.441-.6,8.671A44.643,44.643,0,0,1,78.3,983.773Z" transform="translate(-78.304 -940.719)" fill="#607881"/>
          <path id="Path_4447" data-name="Path 4447" d="M91.941,1143.766a13.165,13.165,0,0,1-4.549-2.484c-.887-.692-1.612-1.668-1.881-1.378-.326.254-.362,1.131-.368,1.2a3.821,3.821,0,0,0,.23,1.6c1.089.468,3.209,1.421,3.434,1.545a6.452,6.452,0,0,0,3.4.326,4.179,4.179,0,0,0,.407-.138A1.235,1.235,0,0,0,91.941,1143.766Z" transform="translate(-83.751 -1081.862)" fill="#6d899d"/>
          <path id="Path_4448" data-name="Path 4448" d="M107.235,1143.554c1.044,1.409,3.692,1.624,3.808,2.964a1.222,1.222,0,0,0,.144-.14.581.581,0,0,0,.128-.456,1.285,1.285,0,0,0-.485-.809c-.486-.241-1.817-.759-1.817-.759l-1.677-1.312A2.344,2.344,0,0,0,107.235,1143.554Z" transform="translate(-101.367 -1084.406)" fill="#6d899d"/>
          <path id="Path_4449" data-name="Path 4449" d="M99.867,1146.792a3.006,3.006,0,0,1,1.037-.743,2.42,2.42,0,0,1,1.19-.054" transform="translate(-95.496 -1086.719)" fill="none" stroke="#d0d6d9" stroke-linecap="round" stroke-linejoin="round" stroke-width="1.105"/>
          <path id="Path_4450" data-name="Path 4450" d="M93.389,902.453a18.139,18.139,0,0,1-.634,8.95c-2.108,7.118-1.457,11.672-1.457,11.672-.081.431.243,1.261-2.749,1.021a25.306,25.306,0,0,1-5.061-2.44c-2.611-1.846-4.442-1.487-4.442-1.487.487-.468,2.314-7.438,2.906-10.6,0,0,.55-5.341,3.142-7.932a20.681,20.681,0,0,1,4.061-2.021l1.541-.06A3.646,3.646,0,0,1,93.389,902.453Z" transform="translate(-78.895 -890.27)" fill="#9caab4"/>
          <path id="Path_4451" data-name="Path 4451" d="M121.479,879.807l2.646-5.184-3.338-2.005a20.629,20.629,0,0,1-1.909,5.5,3.989,3.989,0,0,1-1.512,1.023c-.308-.04.71.258,1.651,1.56.879,1.215,1.915,2.214,2.866,1.529C122.185,882.016,122.174,880.962,121.479,879.807Z" transform="translate(-109.403 -868.795)" fill="#e8c594"/>
          <g id="Group_4518" data-name="Group 4518" transform="translate(10.783 1.164)">
            <path id="Path_4452" data-name="Path 4452" d="M133.535,859.5l-2.033,3.531c-.04.345.6,3.247.671,3.732.106.772,2.279,2.086,2.279,2.086.456.278,1.2.444,1.552-.118.3-.48.681-1.338,1.008-1.975,0,0,.6.078.684-.072a8.66,8.66,0,0,0,.037-1.611c0-.122.917-1.836.979-2.163.3-1.561-.237-1.827-.237-1.827Z" transform="translate(-131.5 -859.503)" fill="#e8c594"/>
          </g>
          <path id="Path_4453" data-name="Path 4453" d="M129.232,854.865s-.108-1.229,2.075-1.1,5.134,1.119,5.077,2.446c-.048,1.11.355,1.477.355,1.477l-.733-.309a3.621,3.621,0,0,0,.182.548c.259.5.353.434.736.793a4.226,4.226,0,0,1-3.756-1.551c-.648-.849-2.352,3.155-2.43,3.352s-.287-.661-.287-.661-.281-1.5-.661-1.447c-1.26.187-1.086,1.944-1.005,2.432.025.15-.968.8-.968.8l.34-1.175s-.831-3.208-.167-4.543S129.232,854.865,129.232,854.865Z" transform="translate(-117.715 -853.758)" fill="#895b40"/>
          <path id="Path_4454" data-name="Path 4454" d="M111.611,1154.933a3.046,3.046,0,0,0,1.369-.738.583.583,0,0,0,.128-.457,1.285,1.285,0,0,0-.485-.809c-.068-.034-.153-.073-.248-.115a5.6,5.6,0,0,0-2.56,1.349,1.492,1.492,0,0,0-.279.793A4.807,4.807,0,0,0,111.611,1154.933Z" transform="translate(-103.205 -1092.198)" fill="#9dafbc"/>
          <path id="Path_4455" data-name="Path 4455" d="M102.011,1148.706a3,3,0,0,1,1.036-.744,2.419,2.419,0,0,1,1.19-.054" transform="translate(-97.206 -1088.246)" fill="none" stroke="#d0d6d9" stroke-linecap="round" stroke-linejoin="round" stroke-width="1.105"/>
          <path id="Path_4456" data-name="Path 4456" d="M104.852,1150.316a3,3,0,0,1,1.036-.744,2.42,2.42,0,0,1,1.19-.055" transform="translate(-99.471 -1089.529)" fill="none" stroke="#d0d6d9" stroke-linecap="round" stroke-linejoin="round" stroke-width="1.105"/>
          <path id="Path_4457" data-name="Path 4457" d="M107.285,1152.409a3,3,0,0,1,1.03-.751,2.416,2.416,0,0,1,1.189-.063" transform="translate(-101.411 -1091.188)" fill="none" stroke="#d0d6d9" stroke-linecap="round" stroke-linejoin="round" stroke-width="1.105"/>
          <g id="Group_4519" data-name="Group 4519" transform="translate(16.733 55.514)">
            <path id="Path_4458" data-name="Path 4458" d="M160.857,1128.919a2.632,2.632,0,0,1,.71-.9,2.428,2.428,0,0,1,1.055-.375" transform="translate(-160.857 -1127.64)" fill="none" stroke="#d0d6d9" stroke-linecap="round" stroke-linejoin="round" stroke-width="1.006"/>
            <path id="Path_4459" data-name="Path 4459" d="M163.366,1129.91a2.63,2.63,0,0,1,.709-.9,2.429,2.429,0,0,1,1.055-.375" transform="translate(-162.857 -1128.43)" fill="none" stroke="#d0d6d9" stroke-linecap="round" stroke-linejoin="round" stroke-width="1.006"/>
            <path id="Path_4460" data-name="Path 4460" d="M166.41,1130.458a2.63,2.63,0,0,1,.709-.9,2.428,2.428,0,0,1,1.055-.375" transform="translate(-165.284 -1128.867)" fill="none" stroke="#d0d6d9" stroke-linecap="round" stroke-linejoin="round" stroke-width="1.006"/>
            <path id="Path_4461" data-name="Path 4461" d="M169.246,1131.511a2.628,2.628,0,0,1,.7-.909,2.428,2.428,0,0,1,1.052-.383" transform="translate(-167.546 -1129.697)" fill="none" stroke="#d0d6d9" stroke-linecap="round" stroke-linejoin="round" stroke-width="1.006"/>
          </g>
          <path id="Path_4462" data-name="Path 4462" d="M125.984,933.84a13.111,13.111,0,0,0-1.492-.157,6.4,6.4,0,0,0-1.2.412c-1.144-.3-7.911-4.886-7.911-4.886s-1.894-5.429-2.242-6.811c-.367-1.457-1.4-4.687-2.559-3.834-1.335.984-1.305,3.99-1.305,3.99s1.639,6.619,3.981,9.054a5.9,5.9,0,0,0,1.694,1.2c2.022.892,5.986,2.509,7.224,2.389.6.111,1.532,1.691,2.985,2.26.563.221,3.724.329,2.729-.02-2.924-1.026-2.67-2.513-1.826-2.67.417-.078,2.435-.629,1.591-1.1A10.863,10.863,0,0,0,125.984,933.84Z" transform="translate(-102.998 -905.315)" fill="#e8c594"/>
          <path id="Path_4463" data-name="Path 4463" d="M110.182,923.637c-.09-1.111-.629-2.881-.712-3.51-.212-1.606-2.423-2.833-3.814-2-1.6.966-1.13,3.388-1.13,3.388a25.62,25.62,0,0,0,.339,3.217c.034.461,2.263.307,2.992.154A4.334,4.334,0,0,0,110.182,923.637Z" transform="translate(-99.16 -904.868)" fill="#c1051c"/>
          <path id="Path_4464" data-name="Path 4464" d="M203.687,993.971a19.743,19.743,0,0,1,1.95.341.594.594,0,0,1,.236.641s-.17-.445-1.335-.628C203.838,994.214,203.687,993.971,203.687,993.971Z" transform="translate(-178.273 -965.551)" fill="#fff" opacity="0.7"/>
        </g>
        <g id="Group_4521" data-name="Group 4521" transform="translate(84.288 891.654)">
          <path id="Path_4466" data-name="Path 4466" d="M150.018,1045.1a2.433,2.433,0,0,0-1.6-1.7,1.786,1.786,0,0,0-1.673,2.806c.942,1.778.678,2.438.678,2.438s.844.08,1.107-.444-.023-2.924,1.055-2.5C150.136,1045.918,150.1,1045.685,150.018,1045.1Z" transform="translate(-146.449 -1042.834)" fill="#674a34"/>
          <path id="Path_4467" data-name="Path 4467" d="M160.914,1050.047a.705.705,0,1,1-.878-.425A.691.691,0,0,1,160.914,1050.047Z" transform="translate(-156.888 -1047.789)" fill="#b9589c"/>
          <path id="Path_4468" data-name="Path 4468" d="M189.785,1198.135s.029-.239.991.13c.444.171.706-1,.706-1s.365.52.545.515a7.21,7.21,0,0,1,1.594-.079,2.529,2.529,0,0,1,.209.836,8.694,8.694,0,0,1-2.808,1.046c-1.247.129-1.507-.437-1.507-.437S189.351,1198.777,189.785,1198.135Z" transform="translate(-180.761 -1165.534)" fill="#a8bec2"/>
          <path id="Path_4469" data-name="Path 4469" d="M176.657,1194.812s-.068-.223.907.125c1.02.363.758-1.032.758-1.032s.38-.16.38.414c0,.547,1.421-.178,1.8.375a.455.455,0,0,1,.05.429,7.962,7.962,0,0,1-2.96,1.078,1.945,1.945,0,0,1-1.215-.291A1.323,1.323,0,0,1,176.657,1194.812Z" transform="translate(-170.291 -1162.839)" fill="#a8bec2"/>
          <path id="Path_4470" data-name="Path 4470" d="M167.311,1084.953s-2.187-2.559-4.32,3.767c-.582,1.732.038,3.66,2.388,5.838,1.336,1.238,1.067-.28,1.067-.28s-2.412-2.776-1.645-4.806S167.991,1085.688,167.311,1084.953Z" transform="translate(-159.475 -1075.579)" fill="#d39f78"/>
          <path id="Path_4471" data-name="Path 4471" d="M173.89,1125.918c-.394,1.7-.184,1.826.121,3.79s.1.647-.051,2.994a23.426,23.426,0,0,0,.713,5.761s-.458.936.051.936,1.042-.167,1.551-.167a8.718,8.718,0,0,0,1.834-.493s.33-.532-.331-.447-1.425.3-1.577-.256a28.4,28.4,0,0,1-.1-5.121c.154-.6,1.41-7.831,1.155-8.427S174.514,1123.225,173.89,1125.918Z" transform="translate(-168.156 -1107.08)" fill="#d39f78"/>
          <path id="Path_4472" data-name="Path 4472" d="M176.657,1192.946s-.068-.221.907.127c1.02.359.758-1.034.758-1.034s.38-.157.38.418c0,.544,1.421-.18,1.8.375a.968.968,0,0,1,.106.568,8.637,8.637,0,0,1-2.927.927,2.475,2.475,0,0,1-1.3-.281A1.325,1.325,0,0,1,176.657,1192.946Z" transform="translate(-170.291 -1161.351)" fill="#fff"/>
          <path id="Path_4473" data-name="Path 4473" d="M185.925,1121.228s-.586-.66.329,6.334c.225,1.712.1.651-.05,3a23.339,23.339,0,0,0,.712,5.762s-.459.938.05.938,1.043-.171,1.553-.171a8.822,8.822,0,0,0,1.832-.491s.33-.532-.33-.449-1.427.3-1.578-.256a51.707,51.707,0,0,1,.04-6.886,4.791,4.791,0,0,0,.332-2.063c.058-4.146-.3-5-.472-5.4C188.087,1120.949,186.436,1119.393,185.925,1121.228Z" transform="translate(-177.776 -1104.218)" fill="#e8c594"/>
          <path id="Path_4474" data-name="Path 4474" d="M189.61,1196.713s.028-.243.991.126c.443.17.7-1,.7-1s.363.519.545.517a6.239,6.239,0,0,1,1.559.028,1.113,1.113,0,0,1,.174.494,7.584,7.584,0,0,1-2.715,1.081c-1.246.126-1.53-.234-1.53-.234S189.177,1197.352,189.61,1196.713Z" transform="translate(-180.622 -1164.397)" fill="#fff"/>
          <path id="Path_4475" data-name="Path 4475" d="M178.823,1046.706a5.645,5.645,0,0,1,1.306,4.45c-.2,1.383-1.864,1.677-1.864,1.677l.694,2.681-1.833.148-1.81-6.067Z" transform="translate(-169.464 -1045.493)" fill="#e8c594"/>
          <path id="Path_4476" data-name="Path 4476" d="M172.092,1089.437a35.186,35.186,0,0,0-1.371-5.771,3.531,3.531,0,0,0-3.3-1.231,2,2,0,0,0-1.571,1.964c.377,6.444-1.714,9.991-1.869,10.264.681,1.232,1.765,1.907,4.819,1.815.771-.024,4.37-.645,4.635-1.216C173.42,1095.216,172.541,1091.588,172.092,1089.437Z" transform="translate(-160.428 -1073.938)" fill="#004284"/>
          <path id="Path_4477" data-name="Path 4477" d="M167.64,1045.979c-.623-.285-1.027-1.948-.445-2.1.456.083,1.075.893,1.032.79-.706-1.714.081-1.561.449-2.416s-2.518-1.986-4-1.343c0,0-3.56,1.184-2.2,4.649.556,1.413,2.232,2.723,3.515,2.465a1.362,1.362,0,0,0,.8-.487A5.481,5.481,0,0,0,167.64,1045.979Z" transform="translate(-158.983 -1040.719)" fill="#674a34"/>
          <path id="Path_4478" data-name="Path 4478" d="M175.8,1052.934a.607.607,0,1,0,.367-.828A.641.641,0,0,0,175.8,1052.934Z" transform="translate(-169.82 -1049.777)" fill="#b9589c"/>
          <path id="Path_4479" data-name="Path 4479" d="M176.638,1045.827a1.5,1.5,0,0,1,.23-1.765,1.6,1.6,0,0,1,2.809,1.186c.051,2.011.909,2.4.909,2.4a1.265,1.265,0,0,1-1.152-.061c-.885-.678-1.33-3.017-1.871-1.986C177.285,1046.127,176.965,1046.315,176.638,1045.827Z" transform="translate(-170.377 -1042.94)" fill="#865d40"/>
        </g>
        <g id="Group_4525" data-name="Group 4525" transform="translate(119.916 873.855)">
          <path id="Path_4312" data-name="Path 4312" d="M324.479,997.265s-2.408,4.263-2.251,4.974c.576,2.618,3.508,5.55,3.508,5.55l.419-.995L323.8,1002.5l2.251-3.77Z" transform="translate(-322.22 -988.274)" fill="#e8c594"/>
          <g id="Group_4441" data-name="Group 4441" transform="translate(2.119 14.428)">
            <path id="Path_4335" data-name="Path 4335" d="M336.241,1024.088s.214,10.469.388,12.385c.292,3.207.867,6.317.867,6.317-.092.4.347.832.878,1.069,1.731.77,1.417.45,1.417.45.181-.05-.23.04-.182-.1a48.781,48.781,0,0,0,.13-5.02c-.1-1.75-.1-6.651,0-9.47.154-4.477.486-5.344.486-5.344Z" transform="translate(-335.518 -1024.088)" fill="#334b58"/>
            <path id="Path_4336" data-name="Path 4336" d="M335.925,1124.425l-2.172.464a3.193,3.193,0,0,0-1,.488.6.6,0,0,0-.077.326,1.6,1.6,0,0,0,.058.571,1.205,1.205,0,0,0,.748.4,3.022,3.022,0,0,0,1.78-.309c.132-.092,1.722-.99,1.722-.99s.1-.053.126-.261l.067-.556Z" transform="translate(-332.676 -1104.088)" fill="#d3dadb"/>
            <path id="Path_4337" data-name="Path 4337" d="M334.786,1118.747c-.108,0-.047.475-.047.475l-1.153.885a5.056,5.056,0,0,1-.664.613.448.448,0,0,0-.187.364.387.387,0,0,0,.081.272,1.551,1.551,0,0,0,.747.4,3.061,3.061,0,0,0,1.781-.308c.115-.082,1.2-.728,1.758-1.044a.3.3,0,0,0,.1-.167,4.068,4.068,0,0,0,0-.781c-.178-.528-1.257.194-1.257.194a1.189,1.189,0,0,0-1.163-.9" transform="translate(-332.722 -1099.56)" fill="#f2f2f2"/>
            <path id="Path_4338" data-name="Path 4338" d="M338.729,1125.143c-.026.032-.075.019-.1-.012a4.924,4.924,0,0,0-.755-.385.479.479,0,0,0-.346-.055.081.081,0,0,1-.1-.035c-.015-.031-.015-.073.015-.084a.576.576,0,0,1,.489.042,5.85,5.85,0,0,1,.81.433.069.069,0,0,1-.006.1" transform="translate(-336.451 -1104.176)" fill="#b7bdbb"/>
            <path id="Path_4339" data-name="Path 4339" d="M341.026,1122.791c-.029.032-.075.019-.106-.011a4.225,4.225,0,0,0-.7-.406.488.488,0,0,0-.348-.052.086.086,0,0,1-.105-.036c-.013-.031-.013-.075.019-.085a.574.574,0,0,1,.489.044,4.832,4.832,0,0,1,.756.454.072.072,0,0,1-.005.093" transform="translate(-338.323 -1102.286)" fill="#b7bdbb"/>
            <path id="Path_4340" data-name="Path 4340" d="M339.8,1123.959a.071.071,0,0,1-.1-.011,5.033,5.033,0,0,0-.755-.388.5.5,0,0,0-.347-.052.081.081,0,0,1-.1-.037c-.017-.031-.017-.072.013-.085a.588.588,0,0,1,.491.046,6.092,6.092,0,0,1,.81.432.075.075,0,0,1-.006.1" transform="translate(-337.304 -1103.231)" fill="#b7bdbb"/>
          </g>
          <path id="Path_4341" data-name="Path 4341" d="M350.253,1035.93s.513,10.58.984,12.446a28.129,28.129,0,0,1,.847,6.779c-.092.4-.227.307.3.546,1.731.769,1.417.45,1.417.45.181-.05.193-.159.241-.295a48.207,48.207,0,0,0,.125-5c-.1-1.751-.516-6.469-.42-9.287.155-4.476.487-5.345.487-5.345Z" transform="translate(-344.571 -1019.102)" fill="#425f6f"/>
          <g id="Group_4442" data-name="Group 4442" transform="translate(5.306 35.699)">
            <path id="Path_4342" data-name="Path 4342" d="M351.892,1134.714l-2.337.464a3.527,3.527,0,0,0-1.075.487.574.574,0,0,0-.082.325,1.5,1.5,0,0,0,.062.574,1.329,1.329,0,0,0,.8.395,3.473,3.473,0,0,0,1.917-.308c.142-.092,1.852-.99,1.852-.99a.344.344,0,0,0,.137-.263l.073-.554Z" transform="translate(-348.395 -1133.563)" fill="#d3dadb"/>
            <path id="Path_4343" data-name="Path 4343" d="M350.659,1129.033c-.116,0-.051.475-.051.475l-1.239.885a5.293,5.293,0,0,1-.714.614.448.448,0,0,0-.2.364.366.366,0,0,0,.089.269,1.691,1.691,0,0,0,.8.4,3.482,3.482,0,0,0,1.917-.309c.124-.081,1.292-.725,1.895-1.043a.3.3,0,0,0,.108-.167,3.875,3.875,0,0,0,0-.781c-.192-.53-1.353.194-1.353.194a1.254,1.254,0,0,0-1.252-.9" transform="translate(-348.439 -1129.033)" fill="#f2f2f2"/>
            <path id="Path_4344" data-name="Path 4344" d="M354.909,1135.432a.081.081,0,0,1-.114-.008,5.359,5.359,0,0,0-.813-.387.552.552,0,0,0-.373-.054.089.089,0,0,1-.11-.037c-.017-.031-.017-.072.016-.084a.67.67,0,0,1,.526.044,6.453,6.453,0,0,1,.872.434.066.066,0,0,1,0,.093" transform="translate(-352.456 -1133.652)" fill="#b7bdbb"/>
            <path id="Path_4345" data-name="Path 4345" d="M357.384,1133.082a.085.085,0,0,1-.117-.01,4.491,4.491,0,0,0-.753-.406.547.547,0,0,0-.371-.052.1.1,0,0,1-.112-.036c-.016-.032-.016-.075.018-.086a.661.661,0,0,1,.525.042,5.534,5.534,0,0,1,.816.452.072.072,0,0,1-.006.1" transform="translate(-354.475 -1131.763)" fill="#b7bdbb"/>
            <path id="Path_4346" data-name="Path 4346" d="M356.062,1134.248a.082.082,0,0,1-.115-.011,5.391,5.391,0,0,0-.812-.387.571.571,0,0,0-.373-.053.093.093,0,0,1-.112-.036c-.014-.031-.014-.072.018-.083a.661.661,0,0,1,.527.042,6.376,6.376,0,0,1,.873.434.07.07,0,0,1-.006.094" transform="translate(-353.375 -1132.708)" fill="#b7bdbb"/>
          </g>
          <path id="Path_4347" data-name="Path 4347" d="M327.661,996.056s1.659-3.285,1.444-4.308c-.2-.958-.92-1.451-1.859-.875-.8.488-1.888,3.508-1.888,3.508S326.44,996.369,327.661,996.056Z" transform="translate(-324.721 -982.98)" fill="#a80521"/>
          <path id="Path_4348" data-name="Path 4348" d="M335.163,989.931s4.236.605,4.416,3c0,0,.584,10.293.239,10.478a4.562,4.562,0,0,1-3.141,1.122c-2.5-.219-3.141-.973-3.141-.973-.409-.286-.937-.512-.937-1.112,0-1.727.064-4.213-.052-5.5-.225-2.469-1.78-7.173,1.728-7.173C334.273,989.774,334.378,989.931,335.163,989.931Z" transform="translate(-330.024 -982.301)" fill="#c1051c"/>
          <path id="Path_4349" data-name="Path 4349" d="M343.546,985.4l-.057-1.528,2.414-1.221s.111,1.951.2,2.131c.362,1.123-1.959,2.4-2.552.618" transform="translate(-339.178 -976.624)" fill="#e8c594"/>
          <path id="Path_4350" data-name="Path 4350" d="M334.225,961.263c-.457,2.093-.138,3.555.68,4.084,1.976,1.274,3.682-.483,3.782-.493.794-.081,2.411-3.485,2.3-3.487,0,0-3.828-2.48-4.1-2.587s-2.023-.433-2.662,2.483" transform="translate(-331.624 -957.536)" fill="#e8c594"/>
          <path id="Path_4351" data-name="Path 4351" d="M340.565,960.475s1.341-1.1,2.018-1.776a2.161,2.161,0,0,0,.305-3.034c-.207-.261.312-.958-.973-1.948-2.849-2.191-5.941.641-5.393,1.7a10.765,10.765,0,0,0,2.861,2.88c.068.061.359-1.717.5-1.73a8.83,8.83,0,0,1,.358,1.824s.764-.423,1.168.09.04.892-.614,1.181c-.173.075-.326.88-.326.88" transform="translate(-333.573 -952.907)" fill="#563f2b"/>
          <path id="Path_4480" data-name="Path 4480" d="M369.9,1065.811l-.542,1.146s-.637,1.745.279.349c.107-.159,0,.637-.1,1.328-.051.359.615.568,1.133-.389a7.178,7.178,0,0,0,.3-2.227c-.042-.312-1.187-.287-1.187-.287Z" transform="translate(-359.633 -1042.862)" fill="#e8c594"/>
          <path id="Path_4481" data-name="Path 4481" d="M366.574,1018.647a29.181,29.181,0,0,0-.339-6.165c-.228-1.1-1.144-4.288-1.144-4.288s-.444-1.668.709-1.909c.963-.2,1.416,1.293,1.546,2.224a32.747,32.747,0,0,1,.608,3.577,41.15,41.15,0,0,1-.313,6.689Z" transform="translate(-356.334 -995.452)" fill="#e8c594"/>
          <path id="Path_4482" data-name="Path 4482" d="M364.984,1003.728a13.006,13.006,0,0,0-1.9-3.151c-.723-.6-1.356-.167-1.573.659-.29,1.1.978,3.3.978,3.3A3.728,3.728,0,0,0,364.984,1003.728Z" transform="translate(-353.516 -990.693)" fill="#c1051c"/>
        </g>
      </g>
      <g id="Group_4522" data-name="Group 4522" transform="translate(98.66 914.903)">
        <path id="Path_4483" data-name="Path 4483" d="M209.809,1131.026l1.209.6s1.648,1.056-.088.512c-.2-.06.367.555.862,1.086.257.276-.309.951-1.386.5a6.145,6.145,0,0,1-1.579-1.724c-.134-.3,1.057-1.129,1.057-1.129Z" transform="translate(-202.937 -1119.691)" fill="#e8c594"/>
        <path id="Path_4484" data-name="Path 4484" d="M193.334,1099.563s-3.278-3.431-3.581-4.341a54.39,54.39,0,0,1-.845-5.9s-.493-1.787-1.815-1.147c-1.1.539-.778,1.488-.677,3.409a24.992,24.992,0,0,0,1.315,4.652c1.287,2.463,4.581,4.23,4.581,4.23Z" transform="translate(-186.292 -1088.034)" fill="#e8c594"/>
      </g>
    </g>
    <rect id="act-bbq-area" width="115" height="115" transform="translate(27.473 373.925)" fill="none"/>
  </g>
</svg>
