<svg xmlns="http://www.w3.org/2000/svg" xmlns:xlink="http://www.w3.org/1999/xlink" width="115" height="115" viewBox="0 0 115 115">
  <defs>
    <linearGradient id="linear-gradient" x1="0.877" y1="0.576" x2="-0.095" y2="0.435" gradientUnits="objectBoundingBox">
      <stop offset="0" stop-color="#f0c1ad"/>
      <stop offset="1" stop-color="#d6997e"/>
    </linearGradient>
    <radialGradient id="radial-gradient" cx="599.018" cy="563.251" r="2.391" gradientTransform="translate(-290.295 -278.922) scale(1.678 1.678)" xlink:href="#linear-gradient"/>
  </defs>
  <g id="outdoor-act-01" transform="translate(-23.854 -204.729)">
    <g id="act-travel-inner" transform="translate(-99 14)">
      <g id="Group_4566" data-name="Group 4566" transform="translate(138 240.602)">
        <ellipse id="Ellipse_476" data-name="Ellipse 476" cx="42.354" cy="24.454" rx="42.354" ry="24.454" fill="#dd2e44"/>
      </g>
      <g id="Group_4564" data-name="Group 4564" transform="translate(147.213 206.949)">
        <g id="Group_4541" data-name="Group 4541" transform="translate(28.457 22.678)">
          <g id="Group_4527" data-name="Group 4527" transform="translate(0 19.219)" opacity="0.3">
            <path id="Path_4485" data-name="Path 4485" d="M178.421,183.323a2.637,2.637,0,0,0,2.38,0l7.156-4.159a.726.726,0,0,0,0-1.375l-3.176-1.834a2.646,2.646,0,0,0-2.381,0l-7.156,4.159a.728.728,0,0,0,0,1.376Z" transform="translate(-174.753 -175.672)"/>
          </g>
          <g id="Group_4528" data-name="Group 4528" transform="translate(0.768 22.705)">
            <path id="Path_4486" data-name="Path 4486" d="M177.816,181.087c-.322-.321-.668-.421-.9-.3h0l-.7.4,1.249,2.105s.68-.391.7-.406h0a.492.492,0,0,0,.171-.228A1.7,1.7,0,0,0,177.816,181.087Z" transform="translate(-175.977 -180.739)" fill="#303033"/>
            <path id="Path_4487" data-name="Path 4487" d="M177.549,183.234c-.164.425-.659.407-1.109-.042a1.694,1.694,0,0,1-.519-1.58c.164-.425.66-.407,1.11.042A1.7,1.7,0,0,1,177.549,183.234Z" transform="translate(-175.869 -180.916)" fill="#121214"/>
            <path id="Path_4488" data-name="Path 4488" d="M177.315,183.141c-.1.158-.33.132-.539-.077a.869.869,0,0,1-.265-.8.222.222,0,0,1,.2-.157.267.267,0,0,0-.027.052.864.864,0,0,0,.265.807A.5.5,0,0,0,177.315,183.141Z" transform="translate(-176.061 -181.165)" fill="#303033"/>
            <path id="Path_4489" data-name="Path 4489" d="M177.424,183.086a.336.336,0,0,1-.029.054.5.5,0,0,1-.361-.178.864.864,0,0,1-.265-.807.268.268,0,0,1,.027-.052.506.506,0,0,1,.363.175A.869.869,0,0,1,177.424,183.086Z" transform="translate(-176.141 -181.164)" fill="#939598"/>
          </g>
          <path id="Path_4490" data-name="Path 4490" d="M179.019,179.222c.074-.073.153-.095.2-.066l3.852,2.218h.069l5.762-3.327-3.621-2.087h0a.1.1,0,0,1-.047-.057.387.387,0,0,1,.118-.36c.074-.073.153-.095.2-.067l3.852,2.22c.492.277.179.61-.059.736h0l-5.92,3.42a.62.62,0,0,1-.648,0l-3.838-2.213h0a.1.1,0,0,1-.046-.056A.386.386,0,0,1,179.019,179.222Z" transform="translate(-176.043 -156.388)" fill="#535359"/>
          <g id="Group_4529" data-name="Group 4529" transform="translate(1.323 2.302)">
            <path id="Path_4491" data-name="Path 4491" d="M177.45,155.474l7.394-4.284a.544.544,0,0,1,.544-.055h0l0,0,3.953,2.288-3.728,9.1v3.669a1.722,1.722,0,0,1-.776,1.343l-1.676.972-2.313,5.643-3.945-2.275h0a.536.536,0,0,1-.235-.5V156.817A1.723,1.723,0,0,1,177.45,155.474Z" transform="translate(-176.675 -151.085)" fill="#16a89f"/>
            <path id="Path_4492" data-name="Path 4492" d="M179.923,156.888l7.4-4.284a.547.547,0,0,1,.543-.055h0l0,0,.206.128a.556.556,0,0,0-.523.063l-7.4,4.285a1.722,1.722,0,0,0-.774,1.342v4.759l-.233-.139v-4.759A1.725,1.725,0,0,1,179.923,156.888Z" transform="translate(-177.447 -151.527)"/>
            <path id="Path_4493" data-name="Path 4493" d="M182.38,174.666c0,.491.35.692.775.447l7.394-4.284a1.721,1.721,0,0,0,.775-1.344V154.93c0-.493-.348-.694-.775-.448l-7.394,4.284a1.725,1.725,0,0,0-.775,1.342Z" transform="translate(-178.455 -152.112)" fill="#0a8074"/>
          </g>
          <g id="Group_4530" data-name="Group 4530" transform="translate(0.935 14.345)">
            <path id="Path_4494" data-name="Path 4494" d="M179.776,170.147l-2.626-1.521a.192.192,0,0,0-.193-.019h0l-.731.422.651,5.77v1.3a.608.608,0,0,0,.275.478l.6.345,1.47,1.622.753-.427h0a.192.192,0,0,0,.083-.179v-7.319A.613.613,0,0,0,179.776,170.147Z" transform="translate(-176.147 -168.589)" fill="#ff8400"/>
            <path id="Path_4495" data-name="Path 4495" d="M179.287,178.552c0,.175-.123.246-.275.159l-2.626-1.521a.611.611,0,0,1-.275-.478V169.4c0-.175.123-.246.275-.16l2.626,1.522a.609.609,0,0,1,.275.476Z" transform="translate(-176.112 -168.779)" fill="#ba6000"/>
            <path id="Path_4496" data-name="Path 4496" d="M179.021,173.175l-2.436-1.414v-.224l2.435,1.414Z" transform="translate(-176.26 -169.508)" fill="#303033"/>
          </g>
          <g id="Group_4531" data-name="Group 4531" transform="translate(6.151 6.522)">
            <path id="Path_4497" data-name="Path 4497" d="M183.7,161.39l0,3.036a.193.193,0,0,0,.08.176h0v0l.433.249,4.97-3.277,1.127-.652a.606.606,0,0,0,.277-.476v-.688l.386-2.251-.462-.272h0a.193.193,0,0,0-.2.018l-6.337,3.66A.608.608,0,0,0,183.7,161.39Z" transform="translate(-183.692 -157.218)" fill="#ba6000"/>
            <path id="Path_4498" data-name="Path 4498" d="M190.967,157.634c.151-.087.275-.017.275.158l0,3.035a.61.61,0,0,1-.276.477l-6.337,3.659c-.151.087-.275.016-.275-.159l.006-3.035a.609.609,0,0,1,.274-.475Z" transform="translate(-183.897 -157.336)" fill="#ff8400"/>
            <path id="Path_4499" data-name="Path 4499" d="M185.195,162.752l5.857-3.382v-.224l-5.856,3.381Z" transform="translate(-184.161 -157.819)" fill="#303033"/>
          </g>
          <g id="Group_4532" data-name="Group 4532" transform="translate(6.151 12.198)">
            <path id="Path_4500" data-name="Path 4500" d="M183.7,169.641l0,7.078a.193.193,0,0,0,.08.176h0v0l.828.475,4.575-3.5,1.127-.65a.611.611,0,0,0,.277-.477v-4.73l.753-2.044-.829-.479h0a.191.191,0,0,0-.2.017l-6.337,3.659A.612.612,0,0,0,183.7,169.641Z" transform="translate(-183.692 -165.469)" fill="#ba6000"/>
            <path id="Path_4501" data-name="Path 4501" d="M191.512,166.2c.151-.087.275-.015.275.16l0,7.075a.612.612,0,0,1-.276.478l-6.337,3.659c-.151.087-.275.015-.275-.16l.005-7.075a.607.607,0,0,1,.275-.477Z" transform="translate(-184.067 -165.685)" fill="#ff8400"/>
            <path id="Path_4502" data-name="Path 4502" d="M185.752,171.963l5.857-3.382v-.224l-5.856,3.381Z" transform="translate(-184.335 -166.37)" fill="#303033"/>
          </g>
          <g id="Group_4540" data-name="Group 4540" transform="translate(3.215)">
            <g id="Group_4533" data-name="Group 4533" transform="translate(0.16 5.824)">
              <path id="Path_4503" data-name="Path 4503" d="M180.318,157.088c.167-.045.263-.139.265-.239v-.29l-.921.019v.265h0a.165.165,0,0,0,.042.114A.64.64,0,0,0,180.318,157.088Z" transform="translate(-179.659 -156.316)" fill="#121214"/>
              <path id="Path_4504" data-name="Path 4504" d="M179.7,156.585c-.107-.133-.009-.292.223-.354a.643.643,0,0,1,.616.128c.107.134.008.294-.224.356A.642.642,0,0,1,179.7,156.585Z" transform="translate(-179.659 -156.205)" fill="#303033"/>
            </g>
            <g id="Group_4534" data-name="Group 4534" transform="translate(5.454 2.731)">
              <path id="Path_4505" data-name="Path 4505" d="M188.011,152.591c.167-.045.263-.139.266-.238v-.29l-.923.019v.266h0a.164.164,0,0,0,.041.114A.641.641,0,0,0,188.011,152.591Z" transform="translate(-187.353 -151.819)" fill="#121214"/>
              <path id="Path_4506" data-name="Path 4506" d="M187.4,152.089c-.107-.133-.008-.293.224-.355a.642.642,0,0,1,.614.128c.108.134.008.294-.224.356A.642.642,0,0,1,187.4,152.089Z" transform="translate(-187.353 -151.708)" fill="#303033"/>
            </g>
            <g id="Group_4535" data-name="Group 4535" transform="translate(5.636 0.938)">
              <path id="Path_4507" data-name="Path 4507" d="M187.782,151.345c-.1-.027-.16-.084-.16-.144l0-1.885.557.012,0,1.869h0a.1.1,0,0,1-.025.07A.386.386,0,0,1,187.782,151.345Z" transform="translate(-187.617 -149.17)" fill="#a7a9ac"/>
              <path id="Path_4508" data-name="Path 4508" d="M188.148,149.334c.065-.081.005-.176-.133-.214a.384.384,0,0,0-.372.076c-.065.08,0,.176.134.213A.383.383,0,0,0,188.148,149.334Z" transform="translate(-187.617 -149.103)" fill="#bcbec0"/>
            </g>
            <g id="Group_4536" data-name="Group 4536" transform="translate(0.344 4.033)">
              <path id="Path_4509" data-name="Path 4509" d="M180.09,155.843c-.1-.028-.158-.085-.16-.145l0-1.884.558.012,0,1.869h0a.1.1,0,0,1-.026.069A.386.386,0,0,1,180.09,155.843Z" transform="translate(-179.926 -153.667)" fill="#a7a9ac"/>
              <path id="Path_4510" data-name="Path 4510" d="M180.457,153.831c.065-.082.006-.178-.134-.215a.385.385,0,0,0-.371.077c-.065.081-.006.176.135.214A.388.388,0,0,0,180.457,153.831Z" transform="translate(-179.926 -153.601)" fill="#bcbec0"/>
            </g>
            <g id="Group_4537" data-name="Group 4537" transform="translate(5.324)">
              <path id="Path_4511" data-name="Path 4511" d="M188.1,147.914c-.164-.162-.337-.211-.454-.147l-.335.195.639,1.057.306-.178h0a.227.227,0,0,0,.1-.125A.859.859,0,0,0,188.1,147.914Z" transform="translate(-187.211 -147.74)" fill="#303033"/>
              <path id="Path_4512" data-name="Path 4512" d="M188.013,148.969c-.083.214-.333.2-.56-.022a.855.855,0,0,1-.263-.8c.083-.215.335-.206.563.02A.859.859,0,0,1,188.013,148.969Z" transform="translate(-187.164 -147.819)" fill="#121214"/>
            </g>
            <g id="Group_4538" data-name="Group 4538" transform="translate(0.221 0.468)">
              <path id="Path_4513" data-name="Path 4513" d="M185.406,148.505c-.081-.08-.166-.1-.222-.073L179.82,151.5l.313.519,5.349-3.06h0a.114.114,0,0,0,.052-.062A.419.419,0,0,0,185.406,148.505Z" transform="translate(-179.77 -148.419)" fill="#535359"/>
              <path id="Path_4514" data-name="Path 4514" d="M180.162,153.344c-.04.1-.162.1-.273-.01a.419.419,0,0,1-.129-.393c.041-.1.162-.1.275.012A.415.415,0,0,1,180.162,153.344Z" transform="translate(-179.747 -149.807)" fill="#6d6e71"/>
            </g>
            <g id="Group_4539" data-name="Group 4539" transform="translate(0 3.07)">
              <path id="Path_4515" data-name="Path 4515" d="M180.365,152.377c-.162-.163-.337-.212-.453-.149l-.336.195.64,1.056.307-.178h0a.226.226,0,0,0,.1-.125A.856.856,0,0,0,180.365,152.377Z" transform="translate(-179.473 -152.201)" fill="#303033"/>
              <path id="Path_4516" data-name="Path 4516" d="M180.276,153.43c-.083.215-.334.2-.561-.023a.858.858,0,0,1-.262-.8c.083-.214.335-.206.562.022A.857.857,0,0,1,180.276,153.43Z" transform="translate(-179.426 -152.28)" fill="#121214"/>
            </g>
          </g>
        </g>
        <g id="Group_4542" data-name="Group 4542" transform="translate(2.4)">
          <path id="Path_4517" data-name="Path 4517" d="M168.52,187.573a11.792,11.792,0,0,0-10.674,0c-2.126,1.227-2.718,3-1.778,4.537a9.6,9.6,0,0,0-5.644,1c-2.456,1.418-2.456,3.718,0,5.136a9.834,9.834,0,0,0,8.9,0c1.607-.928,2.161-2.233,1.666-3.421a11.749,11.749,0,0,0,7.533-1.087C171.468,192.035,171.468,189.275,168.52,187.573Z" transform="translate(-140.532 -137.089)" opacity="0.3"/>
          <path id="Path_4518" data-name="Path 4518" d="M179.827,125.646l1.424-.583c-.35-1.24.143-3.373-.111-5.651a5.443,5.443,0,0,1-.766-.62c-.16-.186-.657-1.44-.4-1.695s.711.6.711.6-.517-2.445.3-2.883c.438-.233,1.955.708,2.121,1.188a5.427,5.427,0,0,1-.118,3.272s1.469,5.254,1.176,6.389c-.4,1.549-2.625,2.206-2.625,2.206Z" transform="translate(-150.279 -114.779)" fill="#f0c6b4"/>
          <path id="Path_4519" data-name="Path 4519" d="M172.969,131.365c.573-.773,2.286-.4,5.312-1.64,1.75.109,1.348,2.916,1.348,2.916s-2.971,1.386-3.954,3.026c-.639.985-3.373-3.391-3.373-3.391S172.4,132.137,172.969,131.365Z" transform="translate(-147.931 -119.441)" fill="#9c251f"/>
          <path id="Path_4520" data-name="Path 4520" d="M166.143,131.492a2.426,2.426,0,0,1-.622,1.867l.127,1.076,2.242,1.695,2.279-.656.911-1.178-1.567-2.8-2.3-.284S166.11,131.283,166.143,131.492Z" transform="translate(-145.816 -119.904)" fill="#c7a496"/>
          <path id="Path_4521" data-name="Path 4521" d="M173.074,187.1c.766,1.106,2.843,2.174,3.144,2.68a1.5,1.5,0,0,1-.181,1.2c-1.933.547-4.005-1.329-4.005-1.329a4.148,4.148,0,0,1-2.471-.89c-.355-.4.123-1.964.123-1.964S172.719,187.172,173.074,187.1Z" transform="translate(-147.035 -137.247)" fill="#121214"/>
          <path id="Path_4522" data-name="Path 4522" d="M174.539,155.193c.965,5.867.115,11.717.236,13.048s-1.459,5.943-1.2,9.187a3.59,3.59,0,0,1-4.538-.182c.528-3.135.711-6.384,1.659-9.041-.438-2.3-2.033-7.768-2.033-7.768S174.12,154.576,174.539,155.193Z" transform="translate(-146.795 -127.372)" fill="#939598"/>
          <path id="Path_4523" data-name="Path 4523" d="M163.632,190.21a11.452,11.452,0,0,0,1.614,3.292c.317.466.441,1.138.169,1.386a2.321,2.321,0,0,1-3.351-.4,9.5,9.5,0,0,1-1.166-3.131,8.431,8.431,0,0,1,.547-1.531A16.71,16.71,0,0,1,163.632,190.21Z" transform="translate(-144.373 -138.189)" fill="#121214"/>
          <path id="Path_4524" data-name="Path 4524" d="M162.322,155.416c-2.133,2.757-2.207,23.439-2.207,23.439a5.585,5.585,0,0,0,3.632-.266c-.022-6.635,3.879-18.228,3.879-18.228a9.4,9.4,0,0,0,4.248-5.9c-.075-.521-3.074-1.669-3.074-1.669S163.416,154.19,162.322,155.416Z" transform="translate(-144.129 -126.636)" fill="#bcbec0"/>
          <path id="Path_4525" data-name="Path 4525" d="M163.759,154.067l-.437,1.4s4.211,3.231,9.552-.958l-.222-1.547Z" transform="translate(-145.13 -126.691)" fill="#3c2415"/>
          <path id="Path_4526" data-name="Path 4526" d="M164.173,133.739s2.406,2.844,4.193,1.859c1.009-.557.036-3.172.036-3.172h1.063s3.02.729,3.148,5.069c.088,3.036-.819,5.559-.6,8.857.11,1.66-6.7,4.436-8.929,1.254a19.09,19.09,0,0,0-1.767-7.174c-.46-1.262.616-4.671.616-4.671Z" transform="translate(-144.468 -120.284)" fill="#e31b25"/>
          <path id="Path_4527" data-name="Path 4527" d="M155.149,141.056c1.093-.819,3.017-3.125,4.822-3.782.2.028,2.141,2.509,1.415,3.9-.479.916-1.438.366-3.778,2.509C157.129,143.881,154.055,141.877,155.149,141.056Z" transform="translate(-142.507 -121.796)" fill="#9c251f"/>
          <path id="Path_4528" data-name="Path 4528" d="M151.072,145.339c-1.777,1.4-1.462,4.257-1.86,5.3,0,.431,1.56.185,1.56.185l1.812-.738.567-2.927-.383-1.584S151.318,145.115,151.072,145.339Z" transform="translate(-140.728 -124.293)" fill="url(#linear-gradient)"/>
          <path id="Path_4529" data-name="Path 4529" d="M153.358,148.763a3.6,3.6,0,0,1-.4,1.544v.848l1.359,1.258,1.859-.141.976-.852.036-2.414-2.434-.475S152.987,147.783,153.358,148.763Z" transform="translate(-141.898 -125.223)" fill="#c7a496"/>
          <path id="Path_4530" data-name="Path 4530" d="M159.582,196.593c.228.783,2.306,1.67,2.792,1.843a1.321,1.321,0,0,1,.38,1.288c-.057.255-.356.82-1.86.437a5.706,5.706,0,0,1-1.832-1.12s-2.03-.1-2.032-.924a6.529,6.529,0,0,1,.238-1.754Z" transform="translate(-143.167 -140.229)" fill="#fff"/>
          <path id="Path_4531" data-name="Path 4531" d="M157.377,191.5c.025-.108.047-.226.071-.354.31-1.631.01-4.592.192-5.449a8.666,8.666,0,0,1,.519-1.6l-.574-2.351,3.554-.984s-.092,2.853,0,3.582-1.658,6.6-1.449,7.382C159.836,192.592,157.567,192.911,157.377,191.5Z" transform="translate(-143.275 -135.363)" fill="#f0c6b4"/>
          <path id="Path_4532" data-name="Path 4532" d="M160.536,170.151l.48,7.3a5.653,5.653,0,0,1-4.138,1.166c-.036-.144-.947-4.173-.947-4.173Z" transform="translate(-142.824 -132.053)" fill="#9c251f"/>
          <path id="Path_4533" data-name="Path 4533" d="M152.637,198.1c.073.3,1.525,2.158,1.719,2.565s.125,1.133-.169,1.3a3.012,3.012,0,0,1-2.611-.1,5.692,5.692,0,0,1-1.235-2.4,6.719,6.719,0,0,1,.277-1.36Z" transform="translate(-141.08 -140.772)" fill="#fff"/>
          <path id="Path_4534" data-name="Path 4534" d="M150.363,193.071c.1-1.11-.934-4.752-.833-5.846a5.523,5.523,0,0,1,.492-1.853s-.1-2.588,0-3.144,3.783-.173,3.746.383a14.024,14.024,0,0,1-1.122,3.991s-.731,5.706-.264,6.462C152.455,194.313,150.568,194.176,150.363,193.071Z" transform="translate(-140.825 -135.735)" fill="#f0c6b4"/>
          <path id="Path_4535" data-name="Path 4535" d="M150.278,171.089c-.309,1.6-.33,4.886-.548,7.363.2.748,3.1,2.041,4.795.219.332-2.279.515-3.732.6-4.083a6.025,6.025,0,0,0,3.475-4.356S150.66,170.432,150.278,171.089Z" transform="translate(-140.89 -132.078)" fill="#e31b25"/>
          <path id="Path_4536" data-name="Path 4536" d="M163.77,158.429a11.365,11.365,0,0,0,.519,1.367c1.013.711,3.227,6.021,3.227,6.021a17.071,17.071,0,0,1,2.023,2.209,3.977,3.977,0,0,1-.2,2.206,1.6,1.6,0,0,1-1.677-.493,2.081,2.081,0,0,1-.009-1.1s-.994-.938-1.139-1.157a2.383,2.383,0,0,1-.146-.985c-.947-1.549-3.1-3.349-3.88-5.468a8.077,8.077,0,0,0-.8-1.558Z" transform="translate(-144.622 -128.396)" fill="#f0c6b4"/>
          <path id="Path_4537" data-name="Path 4537" d="M159.937,149.051a2.847,2.847,0,0,1,2,2.269l1.231,4.295a4.244,4.244,0,0,1-2.406,1.366,65.864,65.864,0,0,0-1.887-6.81S159.5,149.051,159.937,149.051Z" transform="translate(-143.741 -125.47)" fill="#174666"/>
          <path id="Path_4538" data-name="Path 4538" d="M149.731,155.939c-.025.795.463,2.983.547,4.87a30.987,30.987,0,0,1-.191,4.211c2.489,2.834,8.285-.793,8.667-1.12-.246-1.914-.2-9.47-.437-11a4.963,4.963,0,0,0-1.477-2.62l-1.968.073s1.75,1.311.255,1.9-3.173-1.313-3.173-1.313l-2,1.6S149.786,154.241,149.731,155.939Z" transform="translate(-140.89 -125.855)" fill="#2b5e85"/>
          <path id="Path_4539" data-name="Path 4539" d="M145.288,159.284a1.982,1.982,0,0,1-1.549-1.269,1.336,1.336,0,0,1,.564-1.583l1.477.745Z" transform="translate(-138.998 -127.773)" fill="#3576ab"/>
          <path id="Path_4540" data-name="Path 4540" d="M138.532,149.395a3.2,3.2,0,0,1,.848,1.552s.683.118.656.575a3.759,3.759,0,0,1-.383,1.089c.347,1.1,1.184,1.517,1.313,2.231,0,0,1.1-.416,1.695-.723.292-.075.93,1.285.93,1.285l-.191,1s-2.457,1.318-3.117,1.135c-1.668-.464-1.777-3.609-2.079-4.293-.111-.272-1.012-.862-1.257-1.53a2.345,2.345,0,0,1,.547-1.956C137.77,149.488,138.314,149.231,138.532,149.395Z" transform="translate(-136.881 -125.561)" fill="#f0c6b4"/>
          <path id="Path_4541" data-name="Path 4541" d="M144.591,155.7a2.78,2.78,0,0,1,.985,2.852l3.755-1.468s.562-2.495-.157-2.926S145.393,155.413,144.591,155.7Z" transform="translate(-139.287 -127.042)" fill="#174666"/>
          <path id="Path_4542" data-name="Path 4542" d="M158.189,144.524a12.026,12.026,0,0,1-.5,4.344,1.628,1.628,0,0,1-1.254.4,4.211,4.211,0,0,1-2.882-1.941s-.756.164-1.038-1.058a5.258,5.258,0,0,1-.219-1.148l1.3-1.254,2.825-.423.874.109S158.11,144.179,158.189,144.524Z" transform="translate(-141.691 -123.722)" fill="#f0c6b4"/>
          <path id="Path_4543" data-name="Path 4543" d="M170.282,124.761a3.775,3.775,0,0,1,1.183,2.418.647.647,0,0,1-.227.54c.464.722-.356,3.654-.483,3.907a1.121,1.121,0,0,1-1.075.5c-2.9-.638-2.99-2.452-2.99-2.452a1.729,1.729,0,0,1-1.13-1.082c-.118-.437-.265-1.221-.265-1.221l.42-1.441,1.112-1.622H168.8S170.11,124.683,170.282,124.761Z" transform="translate(-145.746 -117.752)" fill="#f0c6b4"/>
          <path id="Path_4544" data-name="Path 4544" d="M165.369,128.119s-.155-.93.3-.9,1.2,1.094,1.2,1.094a3.454,3.454,0,0,0,.381-1.722c-.05-.457-.9-1.294-.51-1.732.72-.747,2.318,1.041,3.4.092.559-.492-1.793-3.5-4.217-1.458A3.4,3.4,0,0,0,165.369,128.119Z" transform="translate(-145.554 -117.277)" fill="#603913"/>
          <path id="Path_4545" data-name="Path 4545" d="M152.8,144.633c.547-.045.766.9.766.9s.091-.947.465-1.121,1.084.756,2.324.1c-.464-.146-.136-.811-.136-.811a2.526,2.526,0,0,0,2.182-.4c-.6-.383-.9-3.069-4.506-2.632-.147.109-.219-.519-.219-.519l-.465.629h-.921s.451.486.343.614c-1.568,1.494-.251,3.852-.251,3.852S152.257,144.678,152.8,144.633Z" transform="translate(-141.556 -122.693)" fill="#ff8400"/>
          <path id="Path_4546" data-name="Path 4546" d="M150.191,152.072c-.97-.067-1.2,1.036-1.2,1.036s-.137,3.144.314,3.512a2.854,2.854,0,0,0,1.8.575c.451-.083.806-1.128.793-1.64a13.386,13.386,0,0,0-.149-1.354s.52-.522.314-.725c-.535-.524-.958-.982-.958-1.468C151.106,151.8,150.46,152.092,150.191,152.072Z" transform="translate(-140.652 -126.37)" fill="url(#radial-gradient)"/>
          <path id="Path_4547" data-name="Path 4547" d="M142.743,157.334a2.078,2.078,0,0,1-.164,1.73C143.645,158.469,142.743,157.334,142.743,157.334Z" transform="translate(-138.659 -128.054)" fill="#121214" opacity="0.2"/>
        </g>
        <g id="Group_4548" data-name="Group 4548" transform="translate(41.166 22.777)">
          <path id="Path_4548" data-name="Path 4548" d="M208.753,217.2a12.307,12.307,0,0,1-11.134,0c-3.075-1.775-3.075-4.654,0-6.429a12.3,12.3,0,0,1,11.134,0C211.828,212.545,211.829,215.424,208.753,217.2Z" transform="translate(-193.876 -167.086)" opacity="0.3"/>
          <path id="Path_4549" data-name="Path 4549" d="M199.833,174.192a15.713,15.713,0,0,1,.757-6.878l.414.142a15.566,15.566,0,0,0-.739,6.669Z" transform="translate(-195.254 -153.945)" fill="#1d374e"/>
          <path id="Path_4550" data-name="Path 4550" d="M202.433,148.361a1.934,1.934,0,0,0-1.042.167c-.339.239-.387,1.013-.387,1.013l1.688.822.615-.188-.136-1.412Z" transform="translate(-195.651 -148.029)" fill="#f0c6b4"/>
          <g id="Group_4546" data-name="Group 4546" transform="translate(3.594 0.649)">
            <path id="Path_4551" data-name="Path 4551" d="M199.195,153.538l-.747-.43v-1.932l.747.43Z" transform="translate(-198.448 -149.559)" fill="#303033"/>
            <path id="Path_4552" data-name="Path 4552" d="M202.331,151.384l-2.8,1.616,0-1.933,2.8-1.616Z" transform="translate(-198.786 -149.021)" fill="#121214"/>
            <path id="Path_4553" data-name="Path 4553" d="M199.195,150.872l-.747-.43,2.8-1.616.744.43Z" transform="translate(-198.448 -148.826)" fill="#535359"/>
            <g id="Group_4543" data-name="Group 4543" transform="translate(0.747 0.639)">
              <path id="Path_4554" data-name="Path 4554" d="M199.921,150.9l-.387-.223v-.393l.387.225Z" transform="translate(-199.534 -149.918)" fill="#303033"/>
              <path id="Path_4555" data-name="Path 4555" d="M200.721,150.472l-.625.362v-.391l.625-.361Z" transform="translate(-199.709 -149.856)" fill="#121214"/>
              <path id="Path_4556" data-name="Path 4556" d="M200.61,150.322v.245l-.388.224v-.085l.312-.179v-.158Z" transform="translate(-199.748 -149.932)" fill="#535359"/>
              <path id="Path_4557" data-name="Path 4557" d="M200.534,150.39v.158l-.312.179v-.159Z" transform="translate(-199.748 -149.953)" fill="#3576ab"/>
              <path id="Path_4558" data-name="Path 4558" d="M199.921,150.34l-.387-.225.624-.361.388.225Z" transform="translate(-199.534 -149.754)" fill="#535359"/>
            </g>
            <g id="Group_4544" data-name="Group 4544" transform="translate(2.723 0.202)">
              <path id="Path_4559" data-name="Path 4559" d="M202.652,149.4a.22.22,0,0,1-.2,0c-.028-.017-.043-.036-.043-.056h0l0-.133h.014a.191.191,0,0,1,.028-.021.229.229,0,0,1,.2,0,.077.077,0,0,1,.031.027h.011l0,.131A.079.079,0,0,1,202.652,149.4Z" transform="translate(-202.406 -149.135)" fill="#121214"/>
              <path id="Path_4560" data-name="Path 4560" d="M202.655,149.262a.062.062,0,0,0,0-.117.22.22,0,0,0-.2,0,.062.062,0,0,0,0,.117A.229.229,0,0,0,202.655,149.262Z" transform="translate(-202.407 -149.12)" fill="#303033"/>
            </g>
            <g id="Group_4545" data-name="Group 4545" transform="translate(2.298 0.278)">
              <path id="Path_4561" data-name="Path 4561" d="M202.172,149.674a.347.347,0,0,1-.319,0,.107.107,0,0,1-.065-.089h0l0-.206h.023a.192.192,0,0,1,.043-.036.36.36,0,0,1,.319,0,.149.149,0,0,1,.052.046h.016l0,.2A.128.128,0,0,1,202.172,149.674Z" transform="translate(-201.788 -149.253)" fill="#121214"/>
              <path id="Path_4562" data-name="Path 4562" d="M202.177,149.453a.1.1,0,0,0,0-.184.351.351,0,0,0-.319,0,.1.1,0,0,0,0,.184A.356.356,0,0,0,202.177,149.453Z" transform="translate(-201.789 -149.231)" fill="#303033"/>
            </g>
            <path id="Path_4563" data-name="Path 4563" d="M201.843,151.831l-1.805,1.042v-1.309l1.805-1.042Z" transform="translate(-198.944 -149.355)" fill="#3576ab"/>
          </g>
          <path id="Path_4564" data-name="Path 4564" d="M201.762,149.139c-.2-.142.161-1.009.484-1.209s1.053.288,1.3.515a9.6,9.6,0,0,1,.856,1.585,17.867,17.867,0,0,0,1.257,2.84c.365.382.394,2.9.394,2.9s-.234,1.668-.83,1.258c-1.258-1-1.349-4.994-1.7-6a1.493,1.493,0,0,1-.971-.881c-.34-.743-.215-1.073.453-.376.024.025,0-.81,0-.81l-.568-.327S201.961,149.283,201.762,149.139Z" transform="translate(-195.87 -147.883)" fill="#f0c6b4"/>
          <path id="Path_4565" data-name="Path 4565" d="M211.324,214.572a2.736,2.736,0,0,1-.9-.23c-1.167-.662-2.288-.315-2.489.213s1.188,1.549,1.468,1.641,1.58.643,1.58.643,1.013,1.23,1.655,1.323c1.029.147,1.042-.43,1.053-.736a5.183,5.183,0,0,0-.428-1.457Z" transform="translate(-197.809 -168.502)" fill="#fff"/>
          <path id="Path_4566" data-name="Path 4566" d="M214.223,209.62a1.662,1.662,0,0,1-.105-.5c0-.515,1.5-6.234,1.339-8.021a13.878,13.878,0,0,0-1.011-3.7v-3.773l-3.463,2.115a14.815,14.815,0,0,0,.947,3.172c.619,6.362.765,7.71.165,9.432-.657-.109-1.614.383.492,1.565C213.933,210.663,214.223,209.62,214.223,209.62Z" transform="translate(-198.764 -162.152)" fill="#f0c6b4"/>
          <path id="Path_4567" data-name="Path 4567" d="M200.244,212.026c-.446-.089-2.082-.588-2.551-.656-1.113-.164-1.513,1.586-.237,2.187,1.639.772,3.278,2.123,4.211,2.123,1.476,0,1.4-1.295,1.254-2.189Z" transform="translate(-194.297 -167.685)" fill="#fff"/>
          <path id="Path_4568" data-name="Path 4568" d="M203.846,208.917c-.051-.3-.11-.553-.123-.7-.183-4.393,1.311-6.489-.475-9.223.05-.442.147-1.313.147-1.313l-3.026-.984a9.392,9.392,0,0,0-.11,2.205c1.258,4.721,1.076,8.4.912,8.55-1.252-.365-2.952.537.511,1.75C203.682,209.9,203.846,208.917,203.846,208.917Z" transform="translate(-195.223 -163.111)" fill="#f0c6b4"/>
          <path id="Path_4569" data-name="Path 4569" d="M201.791,177.237c-1.849,4.338-1.157,11.083-1.777,12.979,3.536,4.193,10.207.182,11.414-2-.438-3.226.58-9.042-1.936-12.286C208.78,175.152,202.293,176.435,201.791,177.237Z" transform="translate(-195.343 -156.557)" fill="#ff4d75"/>
          <path id="Path_4570" data-name="Path 4570" d="M202.93,175.494a6.519,6.519,0,0,1-.333,1.312c3.718,2.224,7.7-1.312,7.7-1.312l-.47-1.189Z" transform="translate(-196.148 -156.126)" fill="#e6dab0"/>
          <path id="Path_4571" data-name="Path 4571" d="M206.838,160.954a8.284,8.284,0,0,1-3.208,1.786c-.5.628-1.227,1.168-1.131,2.26.316,1.5.142,5.177.4,5.76,1.384,2,6.857.162,6.931-1.367.438-2.189,4.01-5.4,3.464-8.647a4.614,4.614,0,0,0-.657-1.616l-3.645.912Z" transform="translate(-196.115 -151.392)" fill="#ff4d75"/>
          <path id="Path_4572" data-name="Path 4572" d="M209.056,148.536a1.693,1.693,0,0,0-1.741.3c-1.231,1.212-.912,5.25-.912,5.25a10.061,10.061,0,0,1-.6,3.773,1.259,1.259,0,0,0,1.094-.055s.438.5.163.875c.8.211,1.669-1.011,1.669-1.011s.336,1.1-.136,1.554a2.52,2.52,0,0,0,3.144-1.306,1.211,1.211,0,0,1,.219.955c.711-.2,1.094-1.483,1.094-1.483a2.485,2.485,0,0,1,.192.827C214.661,156.957,215.126,146.95,209.056,148.536Z" transform="translate(-197.148 -148.034)" fill="#603913"/>
          <path id="Path_4573" data-name="Path 4573" d="M213.794,150.27a7.351,7.351,0,0,0-3.262-1.659A3.386,3.386,0,0,1,213.794,150.27Z" transform="translate(-198.624 -148.109)" opacity="0.3"/>
          <path id="Path_4574" data-name="Path 4574" d="M196.8,151.448l.511.857s.3-.386.64-.319.482.695.312.7c-.31,0-.506-.241-.68.223-.071.189.174.6-.107,1.213-.155.332-.383.391-.566.555-.419,2.151-.291,3.937-.711,5.2-.182.273,0,1.239,0,1.239l-.547,1.2s-1.974-.076-2.352-1.185c-.565-1.658,2.133-5.231,2.588-6.854.092-.516.374-2.174.493-2.425A1.024,1.024,0,0,1,196.8,151.448Z" transform="translate(-193.225 -148.995)" fill="#f0c6b4"/>
          <path id="Path_4575" data-name="Path 4575" d="M196.572,163.74c-1.115-.96-2.4.327-2.4.327A3.4,3.4,0,0,1,196.572,163.74Z" transform="translate(-193.52 -152.719)" opacity="0.2"/>
          <path id="Path_4576" data-name="Path 4576" d="M202.9,164.111a30.413,30.413,0,0,1-5.432-.583c-1.887.429-1.222,2.607-1.022,2.844a50.8,50.8,0,0,0,5.451.921,2.007,2.007,0,0,0,2.352-1.321C204.738,164.353,202.9,164.111,202.9,164.111Z" transform="translate(-194.142 -152.764)" fill="#ff2456"/>
          <g id="Group_4547" data-name="Group 4547" transform="translate(3.211 19.578)">
            <path id="Path_4577" data-name="Path 4577" d="M205.35,179.517a1.084,1.084,0,0,0-.492-.724l-4.1-2.384a.4.4,0,0,0-.354-.046v-.018l-.028.018c0,.019-1.174.824-1.174.824l.164,1.042.282.091-.173.482a1.223,1.223,0,0,0,.528,1.134l4.15,2.4-.109.058.819,1.607,1.139-.778a.47.47,0,0,0,.127-.542Z" transform="translate(-198.299 -176.337)" fill="#1d374e"/>
            <path id="Path_4578" data-name="Path 4578" d="M203.833,180.679a1.21,1.21,0,0,0-.537-.747l-4.106-2.389a.315.315,0,0,0-.491.136l-.783,2.275a1.151,1.151,0,0,0,.528,1.119l5.617,3.236c.372.241.637-.036.509-.505Z" transform="translate(-197.892 -176.694)" fill="#3576ab"/>
            <path id="Path_4579" data-name="Path 4579" d="M202.419,181.265c-.127-.086-.246-.018-.246.155v.459a.68.68,0,0,0,.246.442l.227.11c.155.087.246.018.246-.173v-.378a.617.617,0,0,0-.246-.5Z" transform="translate(-199.227 -177.863)" fill="#ff8400"/>
          </g>
          <path id="Path_4580" data-name="Path 4580" d="M206.869,175.808l-.529.382c.021-.081,2.2-8.438.272-10.925a1.956,1.956,0,0,0-1.452-.912h0a2.014,2.014,0,0,1,1.8.643C209.02,167.652,206.957,175.467,206.869,175.808Z" transform="translate(-196.948 -153.021)" fill="#1d374e"/>
        </g>
        <g id="Group_4563" data-name="Group 4563" transform="translate(0 42.623)">
          <g id="Group_4549" data-name="Group 4549" transform="translate(0.446 17.254)" opacity="0.3">
            <path id="Path_4581" data-name="Path 4581" d="M143.044,208.673a2.361,2.361,0,0,1-2.136,0l-6.424-3.734a.652.652,0,0,1,0-1.234l2.852-1.646a2.37,2.37,0,0,1,2.136,0l6.426,3.733a.653.653,0,0,1,0,1.235Z" transform="translate(-134.042 -201.804)"/>
          </g>
          <g id="Group_4550" data-name="Group 4550" transform="translate(9.888 20.384)">
            <path id="Path_4582" data-name="Path 4582" d="M148.277,206.666c.29-.289.6-.378.808-.265h0l.63.363-1.121,1.89s-.611-.352-.628-.365h0a.452.452,0,0,1-.153-.205A1.529,1.529,0,0,1,148.277,206.666Z" transform="translate(-147.765 -206.354)" fill="#303033"/>
            <path id="Path_4583" data-name="Path 4583" d="M148.7,208.594c.147.382.592.365,1-.038a1.525,1.525,0,0,0,.466-1.419c-.148-.381-.592-.365-1,.039A1.522,1.522,0,0,0,148.7,208.594Z" transform="translate(-148.04 -206.512)" fill="#121214"/>
            <path id="Path_4584" data-name="Path 4584" d="M149.274,208.51c.092.142.3.119.484-.069a.784.784,0,0,0,.238-.722.2.2,0,0,0-.184-.14.251.251,0,0,1,.024.047.776.776,0,0,1-.238.725A.453.453,0,0,1,149.274,208.51Z" transform="translate(-148.236 -206.736)" fill="#303033"/>
            <path id="Path_4585" data-name="Path 4585" d="M149.226,208.461a.233.233,0,0,0,.025.049.453.453,0,0,0,.324-.16.776.776,0,0,0,.238-.725.249.249,0,0,0-.024-.047.454.454,0,0,0-.326.158A.782.782,0,0,0,149.226,208.461Z" transform="translate(-148.213 -206.735)" fill="#939598"/>
          </g>
          <path id="Path_4586" data-name="Path 4586" d="M143.692,204.991c-.067-.065-.137-.085-.184-.059l-3.457,1.992h-.063l-5.172-2.988,3.25-1.874h0a.091.091,0,0,0,.043-.051.35.35,0,0,0-.107-.323c-.066-.065-.138-.085-.184-.06l-3.457,1.993c-.442.249-.161.548.052.661h0l5.315,3.069a.554.554,0,0,0,.582,0l3.446-1.986h0a.087.087,0,0,0,.041-.05A.347.347,0,0,0,143.692,204.991Z" transform="translate(-133.623 -184.492)" fill="#535359"/>
          <g id="Group_4551" data-name="Group 4551" transform="translate(0 2.067)">
            <path id="Path_4587" data-name="Path 4587" d="M144.33,183.671l-6.638-3.846a.488.488,0,0,0-.488-.05h0l0,0-3.55,2.055L137,190v3.293a1.544,1.544,0,0,0,.7,1.205l1.5.872,2.077,5.067,3.542-2.043h0a.481.481,0,0,0,.211-.451V184.876A1.543,1.543,0,0,0,144.33,183.671Z" transform="translate(-133.474 -179.731)" fill="#0f2034"/>
            <path id="Path_4588" data-name="Path 4588" d="M143.637,184.941,137,181.094a.492.492,0,0,0-.487-.05h0l0,0-.185.116a.5.5,0,0,1,.469.056l6.64,3.847a1.545,1.545,0,0,1,.695,1.2v4.272l.208-.125v-4.273A1.547,1.547,0,0,0,143.637,184.941Z" transform="translate(-134.307 -180.127)"/>
            <path id="Path_4589" data-name="Path 4589" d="M141.423,200.9c0,.441-.313.621-.7.4l-6.638-3.848a1.544,1.544,0,0,1-.7-1.206V183.183c0-.442.313-.623.7-.4l6.638,3.847a1.545,1.545,0,0,1,.7,1.2Z" transform="translate(-133.394 -180.653)" fill="#1d374e"/>
          </g>
          <g id="Group_4552" data-name="Group 4552" transform="translate(8.396 12.879)">
            <path id="Path_4590" data-name="Path 4590" d="M145.844,196.844l2.357-1.365a.172.172,0,0,1,.173-.017h0l.656.38-.583,5.18v1.169a.545.545,0,0,1-.248.429l-.534.31-1.32,1.457-.676-.383h0a.173.173,0,0,1-.075-.16v-6.571A.549.549,0,0,1,145.844,196.844Z" transform="translate(-145.597 -195.445)" fill="#ff8400"/>
            <path id="Path_4591" data-name="Path 4591" d="M146.548,204.391c0,.157.11.22.247.142l2.357-1.366a.549.549,0,0,0,.247-.429V196.17c0-.158-.111-.221-.247-.143l-2.357,1.366a.545.545,0,0,0-.247.427Z" transform="translate(-145.894 -195.616)" fill="#ba6000"/>
            <path id="Path_4592" data-name="Path 4592" d="M147.088,199.562l2.186-1.269v-.2l-2.186,1.269Z" transform="translate(-146.062 -196.271)" fill="#303033"/>
          </g>
          <g id="Group_4553" data-name="Group 4553" transform="translate(0.625 5.855)">
            <path id="Path_4593" data-name="Path 4593" d="M140.921,188.982l0,2.726a.177.177,0,0,1-.072.158h0l-.39.224L136,189.149l-1.012-.585a.545.545,0,0,1-.248-.428v-.618l-.347-2.02.414-.245h0a.174.174,0,0,1,.176.017l5.689,3.285A.547.547,0,0,1,140.921,188.982Z" transform="translate(-134.331 -185.236)" fill="#ba6000"/>
            <path id="Path_4594" data-name="Path 4594" d="M134.549,185.611c-.135-.078-.246-.016-.246.142l0,2.725a.547.547,0,0,0,.247.428l5.689,3.285c.136.078.247.014.247-.143l0-2.725a.548.548,0,0,0-.247-.427Z" transform="translate(-134.303 -185.343)" fill="#ff8400"/>
            <path id="Path_4595" data-name="Path 4595" d="M140.153,190.2l-5.259-3.036v-.2L140.152,190Z" transform="translate(-134.487 -185.776)" fill="#303033"/>
          </g>
          <g id="Group_4554" data-name="Group 4554" transform="translate(0.288 10.952)">
            <path id="Path_4596" data-name="Path 4596" d="M140.772,196.389l0,6.355a.176.176,0,0,1-.072.158h0v0l-.744.427-4.108-3.145-1.012-.584a.549.549,0,0,1-.248-.429v-4.247l-.676-1.834.744-.43h0a.172.172,0,0,1,.176.015l5.689,3.285A.552.552,0,0,1,140.772,196.389Z" transform="translate(-133.845 -192.644)" fill="#ba6000"/>
            <path id="Path_4597" data-name="Path 4597" d="M134.06,193.3c-.136-.079-.246-.014-.247.142l0,6.352a.548.548,0,0,0,.247.429l5.689,3.285c.136.078.247.014.248-.144L140,197.012a.544.544,0,0,0-.246-.428Z" transform="translate(-133.813 -192.838)" fill="#ff8400"/>
            <path id="Path_4598" data-name="Path 4598" d="M139.652,198.474l-5.259-3.036v-.2l5.258,3.036Z" transform="translate(-133.994 -193.453)" fill="#303033"/>
          </g>
          <g id="Group_4562" data-name="Group 4562" transform="translate(4.014)">
            <g id="Group_4555" data-name="Group 4555" transform="translate(4.865 5.229)">
              <path id="Path_4599" data-name="Path 4599" d="M146.54,185.12c-.149-.04-.236-.125-.239-.215l0-.259.827.017v.238h0a.149.149,0,0,1-.037.1A.573.573,0,0,1,146.54,185.12Z" transform="translate(-146.3 -184.426)" fill="#121214"/>
              <path id="Path_4600" data-name="Path 4600" d="M147.092,184.668c.1-.12.007-.263-.2-.319a.58.58,0,0,0-.553.115c-.1.121-.008.264.2.32A.576.576,0,0,0,147.092,184.668Z" transform="translate(-146.299 -184.327)" fill="#303033"/>
            </g>
            <g id="Group_4556" data-name="Group 4556" transform="translate(0.113 2.451)">
              <path id="Path_4601" data-name="Path 4601" d="M139.633,181.081c-.15-.039-.236-.124-.239-.213v-.26l.828.017v.238h0a.146.146,0,0,1-.038.1A.571.571,0,0,1,139.633,181.081Z" transform="translate(-139.393 -180.389)" fill="#121214"/>
              <path id="Path_4602" data-name="Path 4602" d="M140.184,180.632c.1-.12.007-.264-.2-.32a.577.577,0,0,0-.552.116c-.1.12-.008.264.2.32A.578.578,0,0,0,140.184,180.632Z" transform="translate(-139.392 -180.289)" fill="#303033"/>
            </g>
            <g id="Group_4557" data-name="Group 4557" transform="translate(0.276 0.842)">
              <path id="Path_4603" data-name="Path 4603" d="M139.986,179.964c.09-.024.143-.075.145-.129l0-1.692-.5.012,0,1.678h0a.087.087,0,0,0,.023.063A.346.346,0,0,0,139.986,179.964Z" transform="translate(-139.629 -178.011)" fill="#a7a9ac"/>
              <path id="Path_4604" data-name="Path 4604" d="M139.658,178.158c-.058-.074,0-.158.12-.193a.345.345,0,0,1,.334.069c.058.072,0,.158-.121.192A.345.345,0,0,1,139.658,178.158Z" transform="translate(-139.631 -177.951)" fill="#bcbec0"/>
            </g>
            <g id="Group_4558" data-name="Group 4558" transform="translate(5.028 3.62)">
              <path id="Path_4605" data-name="Path 4605" d="M146.891,184c.09-.025.142-.076.143-.13l0-1.691-.5.01,0,1.679h0a.088.088,0,0,0,.024.063A.345.345,0,0,0,146.891,184Z" transform="translate(-146.535 -182.049)" fill="#a7a9ac"/>
              <path id="Path_4606" data-name="Path 4606" d="M146.564,182.2c-.058-.074-.006-.159.119-.193a.345.345,0,0,1,.334.069c.058.072,0,.158-.12.193A.347.347,0,0,1,146.564,182.2Z" transform="translate(-146.537 -181.988)" fill="#bcbec0"/>
            </g>
            <g id="Group_4559" data-name="Group 4559">
              <path id="Path_4607" data-name="Path 4607" d="M139.487,176.884c.147-.145.3-.19.408-.133l.3.175-.575.948-.275-.159v0a.2.2,0,0,1-.094-.112A.77.77,0,0,1,139.487,176.884Z" transform="translate(-139.228 -176.727)" fill="#303033"/>
              <path id="Path_4608" data-name="Path 4608" d="M139.651,177.83c.074.193.3.184.5-.019a.771.771,0,0,0,.237-.717c-.075-.193-.3-.184-.506.019A.767.767,0,0,0,139.651,177.83Z" transform="translate(-139.352 -176.798)" fill="#121214"/>
            </g>
            <g id="Group_4560" data-name="Group 4560" transform="translate(0.456 0.42)">
              <path id="Path_4609" data-name="Path 4609" d="M140.017,177.415c.072-.072.149-.093.2-.066l4.816,2.755-.281.466-4.8-2.747h0a.1.1,0,0,1-.046-.056A.372.372,0,0,1,140.017,177.415Z" transform="translate(-139.89 -177.338)" fill="#535359"/>
              <path id="Path_4610" data-name="Path 4610" d="M146.881,181.758c.035.094.145.09.245-.009a.379.379,0,0,0,.116-.354c-.036-.092-.146-.089-.246.011A.374.374,0,0,0,146.881,181.758Z" transform="translate(-142.067 -178.583)" fill="#6d6e71"/>
            </g>
            <g id="Group_4561" data-name="Group 4561" transform="translate(4.78 2.756)">
              <path id="Path_4611" data-name="Path 4611" d="M146.434,180.89c.146-.147.3-.19.407-.133l.3.175-.574.948-.276-.16h0a.206.206,0,0,1-.094-.112A.767.767,0,0,1,146.434,180.89Z" transform="translate(-146.175 -180.732)" fill="#303033"/>
              <path id="Path_4612" data-name="Path 4612" d="M146.6,181.836c.074.193.3.184.5-.02a.766.766,0,0,0,.235-.717c-.074-.193-.3-.185-.5.019A.766.766,0,0,0,146.6,181.836Z" transform="translate(-146.299 -180.803)" fill="#121214"/>
            </g>
          </g>
        </g>
      </g>
    </g>
    <rect id="act-travel-area" width="115" height="115" transform="translate(23.854 204.729)" fill="none"/>
  </g>
</svg>
