<svg xmlns="http://www.w3.org/2000/svg" width="115" height="115" viewBox="0 0 115 115">
  <g id="time-03" transform="translate(-11.266 -365.348)">
    <g id="time-03-inner" transform="translate(3 15.582)">
      <g id="Group_4708" data-name="Group 4708" transform="translate(19 383)">
        <g id="Group_4699" data-name="Group 4699">
          <g id="Group_4696" data-name="Group 4696" transform="translate(1.074 4.328)">
            <path id="Path_5204" data-name="Path 5204" d="M834.3,505.754a12.314,12.314,0,0,0-12.3,12.3v15.567a12.314,12.314,0,0,0,12.3,12.3H901.08a12.314,12.314,0,0,0,12.3-12.3V518.054a12.314,12.314,0,0,0-12.3-12.3Z" transform="translate(-821.996 -505.754)" fill="#404aa7"/>
          </g>
          <rect id="Rectangle_183" data-name="Rectangle 183" width="64.66" height="33.078" transform="translate(14.156 7.732)" fill="#334191"/>
          <rect id="Rectangle_184" data-name="Rectangle 184" width="62.604" height="31.022" transform="translate(15.184 8.76)" fill="#434a54"/>
          <path id="Rectangle_185" data-name="Rectangle 185" d="M2.57,0H39.732A2.57,2.57,0,0,1,42.3,2.57v0a0,0,0,0,1,0,0H0a0,0,0,0,1,0,0v0A2.57,2.57,0,0,1,2.57,0Z" transform="translate(24.12)" fill="#d5d0d4"/>
          <g id="Group_4697" data-name="Group 4697" transform="translate(17.217 46.276)">
            <path id="Rectangle_186" data-name="Rectangle 186" d="M0,0H6.7a0,0,0,0,1,0,0V0A2.255,2.255,0,0,1,4.449,2.255H2.255A2.255,2.255,0,0,1,0,0V0A0,0,0,0,1,0,0Z" fill="#d5d0d4"/>
            <path id="Rectangle_187" data-name="Rectangle 187" d="M0,0H6.7a0,0,0,0,1,0,0V0A2.255,2.255,0,0,1,4.449,2.255H2.255A2.255,2.255,0,0,1,0,0V0A0,0,0,0,1,0,0Z" transform="translate(51.786)" fill="#d5d0d4"/>
          </g>
          <g id="Group_4698" data-name="Group 4698" transform="translate(0 2.546)">
            <path id="Path_5205" data-name="Path 5205" d="M899.137,546.009H834.2a14.286,14.286,0,0,1-14.3-14.3V516.575a14.285,14.285,0,0,1,14.3-14.3h64.94a14.286,14.286,0,0,1,14.3,14.3v15.137a14.285,14.285,0,0,1-14.3,14.3ZM834.2,504.615a11.974,11.974,0,0,0-11.96,11.96v15.137a11.974,11.974,0,0,0,11.96,11.96h64.94a11.974,11.974,0,0,0,11.96-11.96V516.575a11.974,11.974,0,0,0-11.96-11.96Z" transform="translate(-819.901 -502.279)" fill="#334191"/>
          </g>
        </g>
        <g id="Group_4704" data-name="Group 4704" transform="translate(18.987 14.752)">
          <path id="Path_5206" data-name="Path 5206" d="M886.656,544.705l-1.142-1.142,1.142-1.142h6.066l1.142,1.142-1.142,1.142Z" transform="translate(-870.858 -534.045)" fill="#fff"/>
          <path id="Path_5207" data-name="Path 5207" d="M886.656,561.042l-1.142-1.142,1.142-1.142h6.066l1.142,1.142-1.142,1.142Z" transform="translate(-870.858 -542.005)" fill="#fff"/>
          <path id="Path_5208" data-name="Path 5208" d="M899.969,551.873v-5.686l1.142-1.142,1.142,1.142v5.686l-1.142,1.142Z" transform="translate(-877.902 -535.323)" fill="#fff"/>
          <path id="Path_5209" data-name="Path 5209" d="M882.914,535.512v-5.686l1.142-1.142,1.142,1.142v5.686l-1.142,1.142Z" transform="translate(-869.591 -527.351)" fill="#fff"/>
          <path id="Path_5210" data-name="Path 5210" d="M899.969,535.512v-5.686l1.142-1.142,1.142,1.142v5.686l-1.142,1.142Z" transform="translate(-877.902 -527.351)" fill="#fff" opacity="0.15"/>
          <path id="Path_5211" data-name="Path 5211" d="M921.753,542.421h5.965l1.142,1.142-1.142,1.142h-5.965l-1.142-1.142Z" transform="translate(-887.96 -534.045)" fill="#fff"/>
          <path id="Path_5212" data-name="Path 5212" d="M921.753,558.757h5.965l1.142,1.142-1.142,1.142h-5.965l-1.142-1.142Z" transform="translate(-887.96 -542.005)" fill="#fff"/>
          <path id="Path_5213" data-name="Path 5213" d="M921.753,526.085h5.965l1.142,1.142-1.142,1.142h-5.965l-1.142-1.142Z" transform="translate(-887.96 -526.085)" fill="#fff"/>
          <g id="Group_4700" data-name="Group 4700" transform="translate(39.951 1.333)">
            <path id="Path_5214" data-name="Path 5214" d="M934.847,546.187l1.142-1.142,1.142,1.142v5.686l-1.142,1.142-1.142-1.142Z" transform="translate(-934.847 -536.656)" fill="#fff"/>
            <path id="Path_5215" data-name="Path 5215" d="M934.847,529.826l1.142-1.142,1.142,1.142v5.686l-1.142,1.142-1.142-1.142Z" transform="translate(-934.847 -528.684)" fill="#fff"/>
          </g>
          <g id="Group_4701" data-name="Group 4701" transform="translate(44.543 1.333)">
            <path id="Path_5216" data-name="Path 5216" d="M943.8,546.187l1.142-1.142,1.142,1.142v5.686l-1.142,1.142-1.142-1.142Z" transform="translate(-943.802 -536.656)" fill="#fff"/>
            <path id="Path_5217" data-name="Path 5217" d="M943.8,529.826l1.142-1.142,1.142,1.142v5.686l-1.142,1.142-1.142-1.142Z" transform="translate(-943.802 -528.684)" fill="#fff"/>
          </g>
          <g id="Group_4702" data-name="Group 4702" transform="translate(53.274 1.333)">
            <path id="Path_5218" data-name="Path 5218" d="M960.83,546.187l1.142-1.142,1.142,1.142v5.686l-1.142,1.142-1.142-1.142Z" transform="translate(-960.83 -536.656)" fill="#fff"/>
            <path id="Path_5219" data-name="Path 5219" d="M960.83,529.826l1.142-1.142,1.142,1.142v5.686l-1.142,1.142-1.142-1.142Z" transform="translate(-960.83 -528.684)" fill="#fff"/>
          </g>
          <path id="Path_5220" data-name="Path 5220" d="M917.914,546.187l1.142-1.142,1.142,1.142v5.686l-1.142,1.142-1.142-1.142Z" transform="translate(-886.645 -535.323)" fill="#fff" opacity="0.15"/>
          <path id="Path_5221" data-name="Path 5221" d="M917.914,529.826l1.142-1.142,1.142,1.142v5.686l-1.142,1.142-1.142-1.142Z" transform="translate(-886.645 -527.351)" fill="#fff" opacity="0.15"/>
          <path id="Path_5222" data-name="Path 5222" d="M886.656,526.085h6.066l1.142,1.142-1.142,1.142h-6.066l-1.142-1.142Z" transform="translate(-870.858 -526.085)" fill="#fff"/>
          <path id="Path_5223" data-name="Path 5223" d="M947.545,542.421h6.066l1.142,1.142-1.142,1.142h-6.066l-1.142-1.142Z" transform="translate(-900.526 -534.045)" fill="#fff" opacity="0.15"/>
          <path id="Path_5224" data-name="Path 5224" d="M947.545,526.085h6.066l1.142,1.142-1.142,1.142h-6.066l-1.142-1.142Z" transform="translate(-900.526 -526.085)" fill="#fff"/>
          <path id="Path_5225" data-name="Path 5225" d="M947.545,558.757h6.066l1.142,1.142-1.142,1.142h-6.092L946.4,559.9Z" transform="translate(-900.526 -542.005)" fill="#fff"/>
          <g id="Group_4703" data-name="Group 4703" transform="translate(0 1.333)">
            <path id="Path_5226" data-name="Path 5226" d="M856.931,546.187l1.142-1.142,1.142,1.142v5.686l-1.142,1.142-1.142-1.142Z" transform="translate(-856.931 -536.656)" fill="#fff"/>
            <path id="Path_5227" data-name="Path 5227" d="M856.931,529.826l1.142-1.142,1.142,1.142v5.686l-1.142,1.142-1.142-1.142Z" transform="translate(-856.931 -528.684)" fill="#fff"/>
          </g>
          <path id="Path_5228" data-name="Path 5228" d="M873.959,546.187l1.142-1.142,1.142,1.142v5.686l-1.142,1.142-1.142-1.142Z" transform="translate(-865.228 -535.323)" fill="#fff"/>
          <path id="Path_5229" data-name="Path 5229" d="M882.914,546.187l1.142-1.142,1.142,1.142v5.686l-1.142,1.142-1.142-1.142Z" transform="translate(-869.591 -535.323)" fill="#fff" opacity="0.15"/>
          <path id="Path_5230" data-name="Path 5230" d="M873.959,529.826l1.142-1.142,1.142,1.142v5.686l-1.142,1.142-1.142-1.142Z" transform="translate(-865.228 -527.351)" fill="#fff"/>
          <path id="Path_5231" data-name="Path 5231" d="M860.674,542.421h6.066l1.142,1.142-1.142,1.142h-6.066l-1.142-1.142Z" transform="translate(-858.198 -534.045)" fill="#fff" opacity="0.15"/>
          <path id="Path_5232" data-name="Path 5232" d="M860.674,526.085h6.066l1.142,1.142-1.142,1.142h-6.066l-1.142-1.142Z" transform="translate(-858.198 -526.085)" fill="#fff"/>
          <path id="Path_5233" data-name="Path 5233" d="M860.674,558.757h6.066l1.142,1.142-1.142,1.142h-6.092l-1.117-1.142Z" transform="translate(-858.198 -542.005)" fill="#fff"/>
          <rect id="Rectangle_188" data-name="Rectangle 188" width="2.284" height="2.284" transform="translate(27.36 4.718)" fill="#fff"/>
          <rect id="Rectangle_189" data-name="Rectangle 189" width="2.284" height="2.284" transform="translate(27.36 12.332)" fill="#fff"/>
        </g>
        <g id="Group_4707" data-name="Group 4707" transform="translate(65.188 10.502)">
          <g id="Group_4705" data-name="Group 4705">
            <path id="Path_5234" data-name="Path 5234" d="M948,517.875v2.817h-.323v-.967h-.322v.967h-.323v-2.817l.079-.079h.8Zm-.323.243h-.322V519.4h.322Z" transform="translate(-947.036 -517.796)" fill="#fff"/>
            <path id="Path_5235" data-name="Path 5235" d="M951.158,517.955v2.737h-.319v-2.574h-.322v2.574h-.322v-2.574h-.322v2.574h-.323v-2.9h.724l.079.079.079-.079H951Z" transform="translate(-948.261 -517.796)" fill="#fff"/>
          </g>
          <g id="Group_4706" data-name="Group 4706" transform="translate(4.669)" opacity="0.15">
            <path id="Path_5236" data-name="Path 5236" d="M957.108,517.875v1.771l-.084.079h-.56v.967h-.323v-2.9h.883Zm-.323.243h-.321V519.4h.321Z" transform="translate(-956.141 -517.796)" fill="#fff"/>
            <path id="Path_5237" data-name="Path 5237" d="M960.262,517.955v2.737h-.319v-2.574h-.322v2.574H959.3v-2.574h-.322v2.574h-.323v-2.9h.724l.08.079.079-.079h.565Z" transform="translate(-957.365 -517.796)" fill="#fff"/>
          </g>
        </g>
      </g>
    </g>
    <rect id="time-03-area" width="115" height="115" transform="translate(11.266 365.348)" fill="none"/>
  </g>
</svg>
