<svg xmlns="http://www.w3.org/2000/svg" width="41.342" height="12.051" viewBox="0 0 41.342 12.051">
  <path id="btn-next" d="M-41.342-11.34H-39.9l2.758,6.468V-11.34h1.708V0h-1.372l-2.772-6.776V0h-1.764Zm7.63,0h4.76v1.456h-2.7v3.262h2.128V-5.18h-2.128v3.766h2.73V0h-4.788Zm7.56,5.32-2.212-5.32h1.932l1.47,3.528,1.288-3.528H-21.9l-2.17,5.712L-21.728,0h-1.918l-1.61-3.822L-26.656,0h-1.778Zm6.524-3.794h-1.89V-11.34h5.81v1.526H-17.57V0h-2.058Zm12.6-.6a.556.556,0,0,0-.205.465.684.684,0,0,0,.205.465l3.281,3.145h-7.848a.633.633,0,0,0-.465.191.633.633,0,0,0-.191.465v.875a.633.633,0,0,0,.191.465.633.633,0,0,0,.465.191h7.848L-7.027-1.012a.684.684,0,0,0-.205.465.556.556,0,0,0,.205.465l.6.6a.633.633,0,0,0,.465.191A.633.633,0,0,0-5.5.52l5.3-5.3A.633.633,0,0,0,0-5.25a.633.633,0,0,0-.191-.465l-5.3-5.3a.633.633,0,0,0-.465-.191.633.633,0,0,0-.465.191Z" transform="translate(41.342 11.34)" fill="#1c5295"/>
</svg>
