<svg xmlns="http://www.w3.org/2000/svg" width="47.735" height="12.177" viewBox="0 0 47.735 12.177">
  <path id="btn-back" d="M-16.855-.082a.588.588,0,0,0,.178-.465.684.684,0,0,0-.205-.465l-3.281-3.145h7.848a.633.633,0,0,0,.465-.191.633.633,0,0,0,.191-.465v-.875a.633.633,0,0,0-.191-.465.633.633,0,0,0-.465-.191h-7.848l3.281-3.145a.684.684,0,0,0,.205-.465.588.588,0,0,0-.178-.465l-.629-.6a.633.633,0,0,0-.465-.191.633.633,0,0,0-.465.191l-5.3,5.3a.633.633,0,0,0-.191.465.633.633,0,0,0,.191.465l5.3,5.3a.633.633,0,0,0,.465.191A.633.633,0,0,0-17.484.52ZM-5.337-11.34h2.8A4.043,4.043,0,0,1-.08-10.7,2.572,2.572,0,0,1,.781-8.5Q.781-6.356-.857-6.1,1.1-5.726,1.1-3.3A3.4,3.4,0,0,1,.319-.84,3.133,3.133,0,0,1-2.061,0H-5.337Zm2.772,4.634a1.529,1.529,0,0,0,1.225-.4,2.035,2.035,0,0,0,.329-1.3,1.389,1.389,0,0,0-.427-1.183A2.45,2.45,0,0,0-2.859-9.9h-.42v3.192Zm.084,5.25a1.544,1.544,0,0,0,1.26-.434,2.29,2.29,0,0,0,.35-1.428,2.339,2.339,0,0,0-.385-1.491,1.588,1.588,0,0,0-1.3-.469h-.728v3.822ZM4.141-11.34H6.353L8.621,0H6.7L6.255-2.618H4.281L3.819,0H1.873Zm1.89,7.406-.77-4.76-.77,4.76ZM12.807.154a2.917,2.917,0,0,1-2.5-.987,4.6,4.6,0,0,1-.735-2.793V-7.672A4.648,4.648,0,0,1,10.3-10.5a2.945,2.945,0,0,1,2.506-.966,2.926,2.926,0,0,1,2.366.84,3.691,3.691,0,0,1,.7,2.422v.952H13.885v-.98a6.186,6.186,0,0,0-.056-.945.955.955,0,0,0-.287-.56,1.025,1.025,0,0,0-.721-.217,1.086,1.086,0,0,0-.756.231,1.1,1.1,0,0,0-.329.616,5.279,5.279,0,0,0-.077,1v4.914A2.873,2.873,0,0,0,11.911-1.8a.967.967,0,0,0,.91.427.981.981,0,0,0,.707-.224,1.046,1.046,0,0,0,.294-.6,6.15,6.15,0,0,0,.063-.987V-4.2h1.988v.91a4.124,4.124,0,0,1-.686,2.541A2.81,2.81,0,0,1,12.807.154ZM17.315-11.34h2.058v4.984l2.254-4.984H23.6l-2.17,5.054L23.825,0H21.767l-1.89-5.152-.5.854V0H17.315Z" transform="translate(23.909 11.466)" fill="#1c5295"/>
</svg>
