<svg xmlns="http://www.w3.org/2000/svg" width="125" height="30" viewBox="0 0 125 30">
  <g id="btn-play-again" transform="translate(-137 -621)">
    <g id="Rectangle_165" data-name="Rectangle 165" transform="translate(137 621)" fill="#fff" stroke="#dcdcdc" stroke-width="1">
      <rect width="125" height="30" rx="15" stroke="none"/>
      <rect x="0.5" y="0.5" width="124" height="29" rx="14.5" fill="none"/>
    </g>
    <g id="Group_4899" data-name="Group 4899" transform="translate(-2.219)">
      <path id="Path_5406" data-name="Path 5406" d="M6.672-12.25a.316.316,0,0,1,.232.1.316.316,0,0,1,.1.232v5.469a.316.316,0,0,1-.1.232.316.316,0,0,1-.232.1H1.2a.316.316,0,0,1-.232-.1.316.316,0,0,1-.1-.232V-7.738a.316.316,0,0,1,.1-.232.351.351,0,0,1,.26-.1l2.762.137A4.762,4.762,0,0,0,2.283-9.488,4.692,4.692,0,0,0,0-10.062a4.737,4.737,0,0,0-2.42.643A4.741,4.741,0,0,0-4.17-7.67a4.737,4.737,0,0,0-.643,2.42A4.737,4.737,0,0,0-4.17-2.83,4.741,4.741,0,0,0-2.42-1.08,4.737,4.737,0,0,0,0-.437,4.771,4.771,0,0,0,1.723-.752a4.534,4.534,0,0,0,1.449-.889A.381.381,0,0,1,3.4-1.723a.327.327,0,0,1,.232.109l.93.93a.314.314,0,0,1,.082.232.273.273,0,0,1-.109.232A6.746,6.746,0,0,1,2.461,1.066,6.633,6.633,0,0,1,0,1.531,6.573,6.573,0,0,1-3.391.615,6.886,6.886,0,0,1-5.865-1.846a6.526,6.526,0,0,1-.916-3.391,6.6,6.6,0,0,1,.916-3.4,6.852,6.852,0,0,1,2.475-2.475A6.573,6.573,0,0,1,0-12.031a6.673,6.673,0,0,1,2.871.629,6.764,6.764,0,0,1,2.3,1.75l-.109-2.242a.351.351,0,0,1,.1-.26.316.316,0,0,1,.232-.1Z" transform="translate(166 641)" fill="#cf1d1d"/>
      <path id="Path_5405" data-name="Path 5405" d="M-31.318-11.34h3.332q2.9,0,2.9,3.22,0,3.08-3.038,3.08H-29.26V0h-2.058ZM-28.462-6.5a1.425,1.425,0,0,0,1.134-.357,2.073,2.073,0,0,0,.294-1.281,4.118,4.118,0,0,0-.1-1.029.875.875,0,0,0-.4-.539,1.85,1.85,0,0,0-.931-.182h-.8V-6.5Zm4.522-4.844h2.058v9.926h2.758V0H-23.94Zm7.588,0h2.212L-11.872,0H-13.79l-.448-2.618h-1.974L-16.674,0H-18.62Zm1.89,7.406-.77-4.76L-16-3.934Zm4.956-.392-2.3-7.014H-9.87l1.4,4.494,1.316-4.494h1.89L-7.532-4.326V0H-9.506ZM.826-11.34H3.038L5.306,0H3.388L2.94-2.618H.966L.5,0H-1.442Zm1.89,7.406-.77-4.76-.77,4.76ZM9.254.154a2.638,2.638,0,0,1-2.317-1A4.98,4.98,0,0,1,6.23-3.738V-7.546a4.915,4.915,0,0,1,.728-2.933,2.914,2.914,0,0,1,2.506-.987,3.052,3.052,0,0,1,2.408.833A3.659,3.659,0,0,1,12.6-8.162v.588H10.626v-.644a4.941,4.941,0,0,0-.077-.98.936.936,0,0,0-.322-.56,1.161,1.161,0,0,0-.735-.2,1.048,1.048,0,0,0-.77.252,1.217,1.217,0,0,0-.329.644,5.489,5.489,0,0,0-.077,1.022V-3.29a3.117,3.117,0,0,0,.259,1.442,1.007,1.007,0,0,0,.973.476,1.009,1.009,0,0,0,.973-.5,3.272,3.272,0,0,0,.273-1.512V-4.452H9.576v-1.3h3.08V0H11.312l-.14-1.106A1.92,1.92,0,0,1,9.254.154ZM15.932-11.34h2.212L20.412,0H18.494l-.448-2.618H16.072L15.61,0H13.664Zm1.89,7.406-.77-4.76-.77,4.76ZM21.6-11.34h2.044V0H21.6Zm3.794,0h1.442L29.6-4.872V-11.34H31.3V0H29.932L27.16-6.776V0H25.4Z" transform="translate(213 641)" fill="#1c5295"/>
    </g>
  </g>
</svg>
