<svg xmlns="http://www.w3.org/2000/svg" width="265" height="285" viewBox="0 0 265 285">
  <g id="firework" transform="translate(-132.225 -242)">
    <path id="Path_4256" data-name="Path 4256" d="M193.711,289.886l6.557-5.521,54.15,89.067Z" transform="translate(-12.297 -8.292)" fill="#c1051c"/>
    <path id="Path_4257" data-name="Path 4257" d="M153.441,514.372l-5.521-6.557,91.669-59.073Z" transform="translate(-3.072 -42.378)" fill="#c1051c"/>
    <path id="Path_4258" data-name="Path 4258" d="M362.4,514.322,355.62,519.2l-40.086-63.158Z" transform="translate(-36.613 -43.851)" fill="#c1051c"/>
    <path id="Path_4259" data-name="Path 4259" d="M399.116,332.723l5.521,6.557-81.809,49.484Z" transform="translate(-38.397 -18.562)" fill="#c1051c"/>
    <path id="Path_4260" data-name="Path 4260" d="M308.086,277.731l-8.454-1.416L296.8,365.783Z" transform="translate(-32.78 -6.717)" fill="#c1051c"/>
    <path id="Path_4261" data-name="Path 4261" d="M144.522,407.1l-1.416,8.454,89.467,2.828Z" transform="translate(-2.13 -33.543)" fill="#c1051c"/>
    <path id="Path_4262" data-name="Path 4262" d="M273.9,551.64l8.454,1.416,2.828-89.467Z" transform="translate(-28.217 -45.923)" fill="#c1051c"/>
    <path id="Path_4263" data-name="Path 4263" d="M418.431,441.3l1.416-8.454-89.467-2.828Z" transform="translate(-39.875 -38.197)" fill="#c1051c"/>
    <path id="Path_4264" data-name="Path 4264" d="M209.961,277.875l-3.014-1.707-3.115,1.516.692-3.394-2.4-2.494,3.442-.391,1.629-3.057,1.436,3.153,3.411.6-2.555,2.34Z" transform="translate(-13.92 -5.157)" fill="#004284"/>
    <path id="Path_4265" data-name="Path 4265" d="M174.609,473.67l-1.707,3.014,1.516,3.115-3.394-.692-2.494,2.4-.391-3.442-3.057-1.629,3.153-1.436.6-3.411,2.339,2.555Z" transform="translate(-6.431 -46.636)" fill="#004284"/>
    <path id="Path_4266" data-name="Path 4266" d="M369.722,542.706l3.014,1.707,3.115-1.516-.692,3.394,2.4,2.494-3.442.391-1.629,3.057-1.436-3.153-3.411-.6,2.555-2.339Z" transform="translate(-46.886 -61.409)" fill="#004284"/>
    <path id="Path_4267" data-name="Path 4267" d="M447,332.991l1.707-3.014-1.516-3.115,3.394.692,2.494-2.4.391,3.442,3.057,1.629-3.153,1.436-.6,3.411-2.339-2.555Z" transform="translate(-62.703 -16.89)" fill="#004284"/>
    <path id="Path_4268" data-name="Path 4268" d="M273.32,273.591l1.726-3,3.453-.28-2.323-2.57.8-3.37-3.162,1.415-2.958-1.8.369,3.444L268.6,269.68l3.39.714Z" transform="translate(-27.159 -4.302)" fill="#004284"/>
    <path id="Path_4269" data-name="Path 4269" d="M225.008,587.581l-1.726,3-3.453.281,2.323,2.57-.8,3.37,3.162-1.415,2.958,1.8-.369-3.444,2.628-2.256-3.39-.714Z" transform="translate(-17.447 -70.193)" fill="#004284"/>
    <path id="Path_4270" data-name="Path 4270" d="M451.123,425.267l3,1.726.28,3.453,2.57-2.323,3.37.8-1.415-3.162,1.8-2.958-3.444.369-2.256-2.629-.714,3.39Z" transform="translate(-63.51 -36.266)" fill="#004284"/>
    <path id="Path_4271" data-name="Path 4271" d="M181.905,328.74l-5.372-3.041-5.551,2.7,1.232-6.049-4.284-4.444,6.133-.7,2.9-5.448,2.558,5.618,6.078,1.077-4.552,4.169Z" transform="translate(-6.989 -14.184)" fill="#004284"/>
    <path id="Path_4272" data-name="Path 4272" d="M156.631,541.341l-3.041,5.372,2.7,5.551-6.049-1.232-4.444,4.284-.7-6.134-5.448-2.9,5.618-2.558,1.077-6.078,4.169,4.552Z" transform="translate(-1.454 -60.418)" fill="#004284"/>
    <path id="Path_4273" data-name="Path 4273" d="M396.134,517.952l5.372,3.041,5.551-2.7-1.232,6.049,4.284,4.444-6.134.7-2.9,5.448-2.558-5.618-6.078-1.077,4.552-4.169Z" transform="translate(-52.022 -56.106)" fill="#004284"/>
    <path id="Path_4274" data-name="Path 4274" d="M363.257,315.893l3.041-5.372-2.7-5.551,6.049,1.233,4.444-4.284.7,6.133,5.448,2.9-5.618,2.558-1.077,6.078-4.169-4.552Z" transform="translate(-46.034 -12.184)" fill="#004284"/>
    <path id="Path_4275" data-name="Path 4275" d="M325.4,272.147l3.076-5.352,6.153-.5-4.139-4.579,1.426-6.006-5.635,2.522-5.271-3.212.657,6.138-4.684,4.021,6.041,1.272Z" transform="translate(-36.815 -2.548)" fill="#004284"/>
    <path id="Path_4276" data-name="Path 4276" d="M149.353,382.543,144,379.467l-.5-6.153-4.579,4.139-6.006-1.426,2.522,5.635-3.212,5.271,6.138-.657,4.021,4.684,1.272-6.041Z" transform="translate(0 -26.701)" fill="#004284"/>
    <path id="Path_4277" data-name="Path 4277" d="M238.07,550.254l-3.076,5.352-6.153.5,4.139,4.58-1.426,6.006,5.634-2.522,5.272,3.212-.657-6.138,4.684-4.021-6.041-1.272Z" transform="translate(-19.252 -62.887)" fill="#004284"/>
    <path id="Path_4278" data-name="Path 4278" d="M392.06,413.176l5.352,3.076.5,6.153,4.58-4.139,6.006,1.426-2.522-5.634,3.212-5.272-6.138.657-4.021-4.684-1.272,6.04Z" transform="translate(-51.774 -33.095)" fill="#fff"/>
    <path id="Path_4279" data-name="Path 4279" d="M319.365,548.4l3.367,1.935.314,3.871,2.881-2.6,3.779.9-1.586-3.545,2.021-3.316-3.862.413-2.53-2.947-.8,3.8Z" transform="translate(-37.272 -61.487)" fill="#004284"/>
    <path id="Path_4280" data-name="Path 4280" d="M177.994,266.578l-2.3-1.3-2.377,1.157.528-2.59-1.835-1.9,2.626-.3,1.243-2.333,1.1,2.406,2.6.461-1.95,1.785Z" transform="translate(-7.787 -3.388)" fill="#004284"/>
    <path id="Path_4281" data-name="Path 4281" d="M148.439,492.528l-1.3,2.3,1.157,2.377-2.59-.528-1.9,1.835-.3-2.627-2.333-1.243,2.406-1.1.461-2.6,1.785,1.949Z" transform="translate(-1.75 -50.551)" fill="#004284"/>
    <path id="Path_4282" data-name="Path 4282" d="M397.2,566.023l2.3,1.3,2.377-1.157-.528,2.59,1.835,1.9-2.627.3-1.243,2.333-1.1-2.406-2.6-.461,1.95-1.785Z" transform="translate(-52.449 -65.973)" fill="#004284"/>
    <path id="Path_4283" data-name="Path 4283" d="M420.027,312.221l1.3-2.3-1.157-2.377,2.59.528,1.9-1.835.3,2.627,2.333,1.243-2.406,1.1-.461,2.6-1.785-1.949Z" transform="translate(-57.423 -13.044)" fill="#004284"/>
    <path id="Path_4284" data-name="Path 4284" d="M310.585,249.335l1.317-2.292,2.635-.214-1.772-1.961.611-2.572-2.413,1.08L308.7,242l.281,2.629-2.006,1.722,2.587.545Z" transform="translate(-34.798)" fill="#004284"/>
    <path id="Path_4285" data-name="Path 4285" d="M183.55,391.81l-2.292-1.317-.214-2.635-1.961,1.773-2.572-.611,1.08,2.413-1.376,2.258,2.629-.281,1.722,2.006.545-2.587Z" transform="translate(-8.611 -29.618)" fill="#004284"/>
    <path id="Path_4286" data-name="Path 4286" d="M261.153,581.188l-1.317,2.292-2.635.214,1.773,1.961-.611,2.572,2.413-1.08,2.258,1.376-.281-2.629,2.006-1.722-2.587-.545Z" transform="translate(-24.886 -68.942)" fill="#004284"/>
    <path id="Path_4287" data-name="Path 4287" d="M448.4,465.8l2.292,1.317.214,2.635,1.961-1.773,2.572.611-1.08-2.413,1.375-2.258-2.629.281-1.722-2.006-.545,2.587Z" transform="translate(-62.978 -44.714)" fill="#004284"/>
    <path id="Path_4288" data-name="Path 4288" d="M264.448,325.655l1.255-5.973,4.047,4.239,5.72,38.659Z" transform="translate(-26.335 -15.856)" fill="#c1051c"/>
    <path id="Path_4289" data-name="Path 4289" d="M203.45,450.805l-5.421-1.116,3.687-4.185,29.917-5.72Z" transform="translate(-13.128 -40.18)" fill="#c1051c"/>
    <path id="Path_4290" data-name="Path 4290" d="M320.724,519.184l-1.116,5.421-4.185-3.687-8.848-42.793Z" transform="translate(-34.733 -48.227)" fill="#c1051c"/>
    <path id="Path_4291" data-name="Path 4291" d="M385.975,393.768l5.421,1.116-3.687,4.186-42.793,8.848Z" transform="translate(-42.48 -30.845)" fill="#c1051c"/>
    <path id="Path_4292" data-name="Path 4292" d="M339.2,329.273l.012-5.535-4.849,2.758-17.381,40.093Z" transform="translate(-36.828 -16.684)" fill="#c1051c"/>
    <path id="Path_4293" data-name="Path 4293" d="M179.787,364.969l-5.535-.012,2.757,4.849,53.184,24.1Z" transform="translate(-8.226 -25.042)" fill="#fff"/>
    <path id="Path_4294" data-name="Path 4294" d="M232.028,524.551l-.011,5.535,4.849-2.757,23.886-53.2Z" transform="translate(-19.901 -47.491)" fill="#fff"/>
    <path id="Path_4295" data-name="Path 4295" d="M398.705,487.474l5.535.012-2.757-4.849-60.565-32.444Z" transform="translate(-41.938 -42.457)" fill="#c1051c"/>
    <path id="Path_4296" data-name="Path 4296" d="M263.43,300.365l-3.76-2.58-4.257,1.635,1.292-4.373-2.87-3.543,4.558-.123,2.483-3.825,1.526,4.3,4.4,1.179-3.615,2.779Z" transform="translate(-24.224 -8.917)" fill="#fff"/>
    <path id="Path_4297" data-name="Path 4297" d="M155.054,440.2l-2.58,3.76,1.635,4.257-4.373-1.292-3.543,2.87-.123-4.558-3.825-2.483,4.3-1.526,1.179-4.4,2.779,3.615Z" transform="translate(-1.961 -39.589)" fill="#004284"/>
    <path id="Path_4298" data-name="Path 4298" d="M310.845,573.225l3.76,2.58,4.257-1.635-1.292,4.373,2.87,3.543-4.558.123-2.483,3.825-1.526-4.3-4.4-1.179,3.616-2.779Z" transform="translate(-34.908 -67.383)" fill="#004284"/>
    <path id="Path_4299" data-name="Path 4299" d="M432.478,394.087l2.58-3.76-1.635-4.257,4.373,1.292,3.543-2.87.123,4.558,3.825,2.483-4.3,1.526-1.179,4.4-2.779-3.615Z" transform="translate(-59.86 -28.955)" fill="#004284"/>
    <path id="Path_4300" data-name="Path 4300" d="M324.1,301.077l4.207-1.76,3.834,2.468-.373-4.545,3.532-2.884-4.438-1.049-1.652-4.25-2.369,3.9-4.553.257,2.973,3.457Z" transform="translate(-37.861 -9.211)" fill="#004284"/>
    <path id="Path_4301" data-name="Path 4301" d="M166.748,353.135l-1.76-4.207,2.468-3.835-4.545.374-3.316-3.884-.618,4.79-4.25,1.651,3.9,2.369.257,4.553,3.457-2.974Z" transform="translate(-4.405 -20.237)" fill="#004284"/>
    <path id="Path_4302" data-name="Path 4302" d="M225.249,495.816l-4.207,1.76-3.834-2.468.374,4.545-3.532,2.884,4.438,1.049,1.652,4.25,2.369-3.9,4.553-.257-2.973-3.457Z" transform="translate(-16.299 -51.431)" fill="#fff"/>
    <path id="Path_4303" data-name="Path 4303" d="M430.248,488.831l1.76,4.207-2.468,3.834,4.545-.374,2.884,3.532,1.049-4.438,4.25-1.652-3.9-2.369-.257-4.553-3.457,2.973Z" transform="translate(-59.285 -49.79)" fill="#004284"/>
    <path id="Path_4304" data-name="Path 4304" d="M252.654,319.5l-3.518-.744-2.607,2.477-.38-3.576-3.161-1.714,3.283-1.466.653-3.536,2.409,2.669,3.565-.471-1.794,3.116Z" transform="translate(-22.059 -14.004)" fill="#fff"/>
    <path id="Path_4305" data-name="Path 4305" d="M188.992,433.867l-.744,3.518,2.477,2.607-3.576.38-1.714,3.161-1.466-3.283-3.536-.653,2.669-2.409-.471-3.565,3.116,1.794Z" transform="translate(-9.436 -38.923)" fill="#fff"/>
    <path id="Path_4306" data-name="Path 4306" d="M346.066,562.081l1.935.409,1.434-1.362.209,1.967,1.738.943-1.806.807-.359,1.945-1.325-1.468-1.961.259.987-1.714Z" transform="translate(-42.549 -65.015)" fill="#004284"/>
    <path id="Path_4307" data-name="Path 4307" d="M392.358,379.7l.743-3.518-2.477-2.607,3.576-.38,1.714-3.161,1.466,3.283,3.536.653-2.669,2.409.471,3.565-3.116-1.794Z" transform="translate(-51.463 -26.007)" fill="#004284"/>
    <path id="Path_4308" data-name="Path 4308" d="M352.708,350.06l3.6-.011L358.352,353l1.1-3.423,3.444-1.034-2.916-2.1.081-3.6-2.9,2.123-3.394-1.188,1.122,3.416Z" transform="translate(-43.912 -20.485)" fill="#fff"/>
    <path id="Path_4309" data-name="Path 4309" d="M214.413,359.351l-.011-3.6,2.956-2.048-3.423-1.1-1.034-3.444-2.1,2.916L207.2,352l2.123,2.9-1.188,3.394,3.416-1.122Z" transform="translate(-14.932 -21.768)" fill="#004284"/>
    <path id="Path_4310" data-name="Path 4310" d="M205.253,525.137l-3.6.011-2.048-2.956-1.1,3.423-3.444,1.034,2.916,2.1-.081,3.6,2.9-2.123,3.394,1.188L203.075,528Z" transform="translate(-12.515 -56.916)" fill="#004284"/>
    <path id="Path_4311" data-name="Path 4311" d="M380.268,496.687l.011,3.6-2.956,2.048,3.423,1.1,1.034,3.444,2.1-2.916,3.595.081-2.123-2.9,1.188-3.394-3.416,1.122Z" transform="translate(-48.814 -51.735)" fill="#fff"/>
  </g>
</svg>
