<svg xmlns="http://www.w3.org/2000/svg" width="230.452" height="17" viewBox="0 0 230.452 17">
  <path id="header-subtitle" d="M-114.911-13.77h1.921V-1.377h3.519V0h-5.44ZM-105.6.136A3.088,3.088,0,0,1-107.363-.3a2.3,2.3,0,0,1-.884-1.284,7.886,7.886,0,0,1-.255-2.21V-6.035a5.441,5.441,0,0,1,.637-2.984,2.54,2.54,0,0,1,2.27-.944,2.786,2.786,0,0,1,1.794.493,2.378,2.378,0,0,1,.8,1.385,11.728,11.728,0,0,1,.2,2.405v.8h-3.876V-3.57q0,.884.042,1.326a1.4,1.4,0,0,0,.272.739.9.9,0,0,0,.757.3.83.83,0,0,0,.807-.4,2.683,2.683,0,0,0,.213-1.215v-.6h1.768v.374a3.669,3.669,0,0,1-.663,2.363A2.559,2.559,0,0,1-105.6.136Zm1-6v-.884a3.787,3.787,0,0,0-.2-1.437.808.808,0,0,0-.825-.434.981.981,0,0,0-.672.2,1.148,1.148,0,0,0-.314.671,8.087,8.087,0,0,0-.085,1.352v.527Zm6.052,6a2,2,0,0,1-1.615-.586,2.747,2.747,0,0,1-.51-1.76V-8.619H-101.7V-9.826h1.037V-12.7h1.819v2.873h1.581v1.207h-1.581v6.29a1.388,1.388,0,0,0,.187.833.871.871,0,0,0,.714.238,4.245,4.245,0,0,0,.663-.051V.034A8.521,8.521,0,0,1-98.54.136Zm2.7-10.081a.787.787,0,0,0,.714-.476,3.651,3.651,0,0,0,.2-1.428h-.9V-13.77h1.989v1.649a4.452,4.452,0,0,1-.391,2.091,1.46,1.46,0,0,1-1.292.765ZM-90.108.136a2.594,2.594,0,0,1-1.929-.748,3.1,3.1,0,0,1-.841-2.006l1.513-.459a3.263,3.263,0,0,0,.433,1.411,1.019,1.019,0,0,0,.893.459,1.075,1.075,0,0,0,.782-.3,1.01,1.01,0,0,0,.306-.756,1.919,1.919,0,0,0-.8-1.445l-1.683-1.445a4.1,4.1,0,0,1-.893-1.029A2.562,2.562,0,0,1-92.641-7.5a2.389,2.389,0,0,1,.68-1.819,2.58,2.58,0,0,1,1.853-.646,2.225,2.225,0,0,1,1.759.723,3.154,3.154,0,0,1,.74,1.862l-1.224.459a3.308,3.308,0,0,0-.391-1.266.9.9,0,0,0-.816-.434.935.935,0,0,0-.714.289.943.943,0,0,0-.255.714,1.271,1.271,0,0,0,.493.986l1.734,1.6a5.388,5.388,0,0,1,1.02,1.19,2.75,2.75,0,0,1,.374,1.462,2.364,2.364,0,0,1-.731,1.87A2.9,2.9,0,0,1-90.108.136Zm10.659,0a2.948,2.948,0,0,1-1.785-.468,2.338,2.338,0,0,1-.858-1.309,8.285,8.285,0,0,1-.229-2.134V-6.035a8.551,8.551,0,0,1,.229-2.176,2.26,2.26,0,0,1,.858-1.3,3.032,3.032,0,0,1,1.785-.451,3.291,3.291,0,0,1,1.641.34,1.8,1.8,0,0,1,.816,1.011,5.5,5.5,0,0,1,.229,1.743v.578h-1.649v-.6a3.026,3.026,0,0,0-.213-1.351.84.84,0,0,0-.807-.383.976.976,0,0,0-.68.2,1.17,1.17,0,0,0-.306.663A7.926,7.926,0,0,0-80.5-6.409v3.094a6.275,6.275,0,0,0,.1,1.3,1.069,1.069,0,0,0,.331.629,1.046,1.046,0,0,0,.655.179.8.8,0,0,0,.816-.416,3.31,3.31,0,0,0,.187-1.284v-.8h1.649v.68a3.958,3.958,0,0,1-.587,2.38A2.471,2.471,0,0,1-79.45.136Zm7.021,0A3.088,3.088,0,0,1-74.2-.3a2.3,2.3,0,0,1-.884-1.284,7.886,7.886,0,0,1-.255-2.21V-6.035A5.441,5.441,0,0,1-74.7-9.019a2.54,2.54,0,0,1,2.27-.944,2.786,2.786,0,0,1,1.794.493,2.378,2.378,0,0,1,.8,1.385,11.728,11.728,0,0,1,.2,2.405v.8h-3.876V-3.57q0,.884.042,1.326A1.4,1.4,0,0,0-73.2-1.5a.9.9,0,0,0,.757.3.83.83,0,0,0,.807-.4,2.683,2.683,0,0,0,.213-1.215v-.6h1.768v.374A3.669,3.669,0,0,1-70.32-.68,2.559,2.559,0,0,1-72.428.136Zm1-6v-.884a3.787,3.787,0,0,0-.2-1.437.808.808,0,0,0-.825-.434.981.981,0,0,0-.672.2,1.148,1.148,0,0,0-.314.671,8.087,8.087,0,0,0-.085,1.352v.527Zm3.6-7.905H-66V0h-1.819ZM-61.378.136A3.088,3.088,0,0,1-63.146-.3a2.3,2.3,0,0,1-.884-1.284,7.886,7.886,0,0,1-.255-2.21V-6.035a5.441,5.441,0,0,1,.637-2.984,2.54,2.54,0,0,1,2.27-.944,2.786,2.786,0,0,1,1.793.493,2.378,2.378,0,0,1,.8,1.385,11.728,11.728,0,0,1,.2,2.405v.8h-3.876V-3.57q0,.884.042,1.326a1.4,1.4,0,0,0,.272.739.9.9,0,0,0,.756.3.83.83,0,0,0,.808-.4,2.683,2.683,0,0,0,.212-1.215v-.6h1.768v.374A3.669,3.669,0,0,1-59.27-.68,2.559,2.559,0,0,1-61.378.136Zm1-6v-.884a3.787,3.787,0,0,0-.2-1.437.808.808,0,0,0-.825-.434.981.981,0,0,0-.671.2,1.148,1.148,0,0,0-.315.671,8.087,8.087,0,0,0-.085,1.352v.527Zm6.953,6a2.265,2.265,0,0,1-1.666-.85V0h-1.819V-13.77h1.819v4.726a2.4,2.4,0,0,1,1.853-.918,1.746,1.746,0,0,1,1.793,1.148,6.9,6.9,0,0,1,.451,2.542v2.38Q-50.991.136-53.422.136ZM-53.8-1.292a.776.776,0,0,0,.807-.638,7.893,7.893,0,0,0,.179-1.964v-2.38a5.335,5.335,0,0,0-.2-1.675.818.818,0,0,0-.85-.586,2,2,0,0,0-1.224.493v6.307A2.029,2.029,0,0,0-53.8-1.292Zm4.505-8.534h1.819v1.394A3.557,3.557,0,0,1-46.427-9.6a2.075,2.075,0,0,1,1.131-.34,2.332,2.332,0,0,1,.289.017v2.006a2.875,2.875,0,0,0-1-.2,1.488,1.488,0,0,0-.791.212,2.17,2.17,0,0,0-.671.74V0h-1.819ZM-42.117.136a1.694,1.694,0,0,1-1.012-.323,2.208,2.208,0,0,1-.705-.85,2.506,2.506,0,0,1-.255-1.1A3.269,3.269,0,0,1-43.6-4.02a3.591,3.591,0,0,1,1.25-1.139,21.3,21.3,0,0,1,2.133-.977v-.7a3.392,3.392,0,0,0-.2-1.368.792.792,0,0,0-.791-.4q-1.037,0-1.037,1.394v.493l-1.8-.068.017-.357A3.024,3.024,0,0,1-43.2-9.291a3.041,3.041,0,0,1,2.117-.672,2.507,2.507,0,0,1,2.049.774,3.618,3.618,0,0,1,.638,2.337v4.488A17.7,17.7,0,0,0-38.224,0H-39.89q-.187-.969-.238-1.445a2.482,2.482,0,0,1-.705,1.122A1.827,1.827,0,0,1-42.117.136Zm.714-1.564a1.089,1.089,0,0,0,.7-.281,2.2,2.2,0,0,0,.493-.535V-5.032q-.748.442-1.122.689a2.355,2.355,0,0,0-.654.663,1.708,1.708,0,0,0-.28.978,1.7,1.7,0,0,0,.221.943A.728.728,0,0,0-41.4-1.428ZM-34.179.136A2,2,0,0,1-35.793-.45a2.747,2.747,0,0,1-.51-1.76V-8.619H-37.34V-9.826H-36.3V-12.7h1.819v2.873H-32.9v1.207h-1.581v6.29A1.388,1.388,0,0,0-34.3-1.5a.871.871,0,0,0,.714.238,4.245,4.245,0,0,0,.663-.051V.034A8.521,8.521,0,0,1-34.179.136Zm5.338,0A3.088,3.088,0,0,1-30.608-.3a2.3,2.3,0,0,1-.884-1.284,7.885,7.885,0,0,1-.255-2.21V-6.035a5.441,5.441,0,0,1,.637-2.984,2.54,2.54,0,0,1,2.27-.944,2.786,2.786,0,0,1,1.793.493,2.378,2.378,0,0,1,.8,1.385,11.728,11.728,0,0,1,.2,2.405v.8h-3.876V-3.57q0,.884.043,1.326a1.4,1.4,0,0,0,.272.739.9.9,0,0,0,.757.3.83.83,0,0,0,.808-.4,2.683,2.683,0,0,0,.212-1.215v-.6h1.768v.374A3.669,3.669,0,0,1-26.733-.68,2.559,2.559,0,0,1-28.84.136Zm1-6v-.884a3.787,3.787,0,0,0-.2-1.437.808.808,0,0,0-.824-.434.981.981,0,0,0-.671.2,1.148,1.148,0,0,0-.315.671,8.087,8.087,0,0,0-.085,1.352v.527Zm6.885-3.961h1.5l1.02,7.242,1.309-7.242h1.394l1.309,7.208,1.02-7.208h1.5L-13.54,0h-1.53l-1.343-6.936L-17.739,0h-1.632ZM-10.4-13.192h1.819v1.9H-10.4Zm0,3.366h1.819V0H-10.4ZM-4,.136A2,2,0,0,1-5.618-.45a2.747,2.747,0,0,1-.51-1.76V-8.619H-7.165V-9.826h1.037V-12.7h1.819v2.873h1.581v1.207H-4.309v6.29a1.388,1.388,0,0,0,.187.833.871.871,0,0,0,.714.238,4.245,4.245,0,0,0,.663-.051V.034A8.521,8.521,0,0,1-4,.136ZM-1.334-13.77H.485v4.964A3.624,3.624,0,0,1,2.95-9.962a1.2,1.2,0,0,1,1.131.578,2.832,2.832,0,0,1,.332,1.428V0H2.593V-7.429a1.605,1.605,0,0,0-.17-.833.664.664,0,0,0-.612-.272,2.115,2.115,0,0,0-1.326.646V0H-1.334ZM13.286.136A3.02,3.02,0,0,1,10.727-.876a4.858,4.858,0,0,1-.774-2.983h1.819a4.563,4.563,0,0,0,.314,1.853,1.218,1.218,0,0,0,1.233.7,1.273,1.273,0,0,0,1.037-.408A2.1,2.1,0,0,0,14.79-2.8a13.607,13.607,0,0,0,.094-1.794,9.868,9.868,0,0,0-.111-1.657,1.74,1.74,0,0,0-.442-.952,1.351,1.351,0,0,0-.995-.331,1.431,1.431,0,0,0-.927.323,2.026,2.026,0,0,0-.6.816H10.26V-13.77h5.933v1.819H11.909L11.79-8.143a2.621,2.621,0,0,1,1.989-.765,2.444,2.444,0,0,1,2.252,1.08,5.673,5.673,0,0,1,.672,3,7.281,7.281,0,0,1-.765,3.655A2.815,2.815,0,0,1,13.286.136Zm11.39,0A2,2,0,0,1,23.06-.45a2.747,2.747,0,0,1-.51-1.76V-8.619H21.513V-9.826H22.55V-12.7h1.819v2.873H25.95v1.207H24.369v6.29a1.388,1.388,0,0,0,.187.833.871.871,0,0,0,.714.238,4.245,4.245,0,0,0,.663-.051V.034A8.521,8.521,0,0,1,24.675.136Zm2.669-9.962h1.819v1.394A3.557,3.557,0,0,1,30.209-9.6a2.075,2.075,0,0,1,1.131-.34,2.333,2.333,0,0,1,.289.017v2.006a2.875,2.875,0,0,0-1-.2,1.488,1.488,0,0,0-.791.212,2.17,2.17,0,0,0-.671.74V0H27.345Zm5.525-3.366h1.819v1.9H32.87Zm0,3.366h1.819V0H32.87Zm3.111,0h1.836l1.207,7.905,1.224-7.905h1.768L40.145,0H37.918Zm7.327-3.366h1.819v1.9H43.308Zm0,3.366h1.819V0H43.308ZM48.849.136a1.694,1.694,0,0,1-1.012-.323,2.208,2.208,0,0,1-.705-.85,2.506,2.506,0,0,1-.255-1.1A3.269,3.269,0,0,1,47.37-4.02,3.591,3.591,0,0,1,48.62-5.16a21.3,21.3,0,0,1,2.133-.977v-.7a3.392,3.392,0,0,0-.2-1.368.792.792,0,0,0-.791-.4q-1.037,0-1.037,1.394v.493l-1.8-.068.017-.357a3.024,3.024,0,0,1,.824-2.151,3.041,3.041,0,0,1,2.117-.672,2.507,2.507,0,0,1,2.049.774,3.618,3.618,0,0,1,.638,2.337v4.488A17.7,17.7,0,0,0,52.742,0H51.076q-.187-.969-.238-1.445a2.482,2.482,0,0,1-.705,1.122A1.827,1.827,0,0,1,48.849.136Zm.714-1.564a1.089,1.089,0,0,0,.7-.281,2.2,2.2,0,0,0,.493-.535V-5.032q-.748.442-1.122.689a2.355,2.355,0,0,0-.654.663,1.708,1.708,0,0,0-.28.978,1.7,1.7,0,0,0,.221.943A.728.728,0,0,0,49.563-1.428Zm12.529.8a2.163,2.163,0,0,1-1.615.765A2.019,2.019,0,0,1,58.633-.8a6,6,0,0,1-.586-3.06v-1.9a7.473,7.473,0,0,1,.518-3.077,1.9,1.9,0,0,1,1.9-1.122,2.291,2.291,0,0,1,1.632.765v-.629h1.819V3.23H62.093Zm-1.122-.663a1.956,1.956,0,0,0,1.122-.374V-8.109a2.112,2.112,0,0,0-1.156-.425q-1.071,0-1.071,2.057v2.771a5.6,5.6,0,0,0,.221,1.8A.86.86,0,0,0,60.971-1.292ZM67.159.136A1.215,1.215,0,0,1,66.02-.442a2.775,2.775,0,0,1-.34-1.428V-9.826H67.5v7.412a1.655,1.655,0,0,0,.17.842.656.656,0,0,0,.612.281A2.136,2.136,0,0,0,69.555-1.9V-9.826h1.819V0H69.555V-.969A3.507,3.507,0,0,1,67.159.136Zm8.789,0A3.088,3.088,0,0,1,74.18-.3,2.3,2.3,0,0,1,73.3-1.581a7.886,7.886,0,0,1-.255-2.21V-6.035a5.441,5.441,0,0,1,.637-2.984,2.54,2.54,0,0,1,2.27-.944,2.786,2.786,0,0,1,1.794.493,2.378,2.378,0,0,1,.8,1.385,11.728,11.728,0,0,1,.2,2.405v.8H74.86V-3.57q0,.884.042,1.326a1.4,1.4,0,0,0,.272.739.9.9,0,0,0,.757.3.83.83,0,0,0,.807-.4,2.683,2.683,0,0,0,.213-1.215v-.6h1.768v.374A3.669,3.669,0,0,1,78.056-.68,2.559,2.559,0,0,1,75.948.136Zm1-6v-.884a3.787,3.787,0,0,0-.2-1.437.808.808,0,0,0-.825-.434.981.981,0,0,0-.672.2,1.148,1.148,0,0,0-.314.671,8.087,8.087,0,0,0-.085,1.352v.527Zm5.712,6a2.594,2.594,0,0,1-1.929-.748,3.1,3.1,0,0,1-.841-2.006L81.4-3.077a3.263,3.263,0,0,0,.433,1.411,1.019,1.019,0,0,0,.893.459,1.075,1.075,0,0,0,.782-.3,1.01,1.01,0,0,0,.306-.756,1.919,1.919,0,0,0-.8-1.445L81.337-5.151a4.1,4.1,0,0,1-.893-1.029A2.562,2.562,0,0,1,80.13-7.5a2.389,2.389,0,0,1,.68-1.819,2.58,2.58,0,0,1,1.853-.646,2.225,2.225,0,0,1,1.759.723,3.154,3.154,0,0,1,.74,1.862l-1.224.459a3.308,3.308,0,0,0-.391-1.266.9.9,0,0,0-.816-.434.935.935,0,0,0-.714.289.943.943,0,0,0-.255.714,1.271,1.271,0,0,0,.493.986l1.734,1.6a5.388,5.388,0,0,1,1.02,1.19,2.75,2.75,0,0,1,.374,1.462,2.364,2.364,0,0,1-.731,1.87A2.9,2.9,0,0,1,82.663.136Zm6.7,0A2,2,0,0,1,87.746-.45a2.747,2.747,0,0,1-.51-1.76V-8.619H86.2V-9.826h1.037V-12.7h1.819v2.873h1.581v1.207H89.055v6.29a1.388,1.388,0,0,0,.187.833.871.871,0,0,0,.714.238,4.245,4.245,0,0,0,.663-.051V.034A8.521,8.521,0,0,1,89.361.136ZM92.1-13.192h1.819v1.9H92.1Zm0,3.366h1.819V0H92.1ZM98.558.136a2.527,2.527,0,0,1-2.218-.927,4.647,4.647,0,0,1-.654-2.694V-6.341a4.647,4.647,0,0,1,.654-2.694,2.527,2.527,0,0,1,2.218-.927,2.507,2.507,0,0,1,2.2.927,4.647,4.647,0,0,1,.655,2.694v2.856a4.647,4.647,0,0,1-.655,2.694A2.507,2.507,0,0,1,98.558.136Zm0-1.343a.842.842,0,0,0,.714-.289,1.432,1.432,0,0,0,.272-.714,10.218,10.218,0,0,0,.051-1.156V-6.443a10.457,10.457,0,0,0-.051-1.164,1.442,1.442,0,0,0-.272-.722.842.842,0,0,0-.714-.289.867.867,0,0,0-.722.289,1.4,1.4,0,0,0-.281.722A10.459,10.459,0,0,0,97.5-6.443v3.077a10.22,10.22,0,0,0,.051,1.156,1.388,1.388,0,0,0,.281.714A.867.867,0,0,0,98.558-1.207Zm4.522-8.619H104.9v.969a3.507,3.507,0,0,1,2.4-1.105,1.215,1.215,0,0,1,1.139.578,2.775,2.775,0,0,1,.34,1.428V0h-1.819V-7.429a1.605,1.605,0,0,0-.17-.833.664.664,0,0,0-.612-.272,2.136,2.136,0,0,0-1.275.612V0h-1.819ZM112.82.136a2.594,2.594,0,0,1-1.929-.748,3.1,3.1,0,0,1-.841-2.006l1.513-.459A3.263,3.263,0,0,0,112-1.666a1.019,1.019,0,0,0,.893.459,1.075,1.075,0,0,0,.782-.3,1.01,1.01,0,0,0,.306-.756,1.919,1.919,0,0,0-.8-1.445l-1.683-1.445A4.1,4.1,0,0,1,110.6-6.18a2.562,2.562,0,0,1-.314-1.318,2.389,2.389,0,0,1,.68-1.819,2.58,2.58,0,0,1,1.853-.646,2.225,2.225,0,0,1,1.759.723,3.154,3.154,0,0,1,.74,1.862l-1.224.459a3.308,3.308,0,0,0-.391-1.266.9.9,0,0,0-.816-.434.935.935,0,0,0-.714.289.943.943,0,0,0-.255.714,1.271,1.271,0,0,0,.493.986l1.734,1.6a5.388,5.388,0,0,1,1.02,1.19,2.75,2.75,0,0,1,.374,1.462,2.364,2.364,0,0,1-.731,1.87A2.9,2.9,0,0,1,112.82.136Z" transform="translate(114.911 13.77)" fill="#fff"/>
</svg>
