<svg xmlns="http://www.w3.org/2000/svg" width="444.115" height="68.557" viewBox="0 0 444.115 68.557">
  <g id="header-logo" transform="translate(-460.85 -0.854)">
    <g id="star" transform="translate(460.85 27.647)">
      <path id="star-2" data-name="star" d="M303.484,133.471l-2.262,4.583-5.057.735,3.66,3.567-.864,5.037,4.523-2.378,4.523,2.378-.864-5.037,3.66-3.567-5.057-.735Z" transform="translate(-296.164 -133.471)" fill="#fff"/>
      <path id="star-3" data-name="star" d="M303.484,133.471l-2.262,4.583-5.057.735,3.66,3.567-.864,5.037,4.523-2.378,4.523,2.378-.864-5.037,3.66-3.567-5.057-.735Z" transform="translate(-267.261 -133.471)" fill="#fff"/>
      <path id="star-4" data-name="star" d="M303.484,133.471l-2.262,4.583-5.057.735,3.66,3.567-.864,5.037,4.523-2.378,4.523,2.378-.864-5.037,3.66-3.567-5.057-.735Z" transform="translate(-239.614 -133.471)" fill="#fff"/>
    </g>
    <g id="star-5" data-name="star" transform="translate(817.44 0.854)">
      <path id="star-6" data-name="star" d="M303.484,133.471l-2.262,4.583-5.057.735,3.66,3.567-.864,5.037,4.523-2.378,4.523,2.378-.864-5.037,3.66-3.567-5.057-.735Z" transform="translate(-250.924 -106.678)" fill="#fff"/>
      <path id="star-7" data-name="star" d="M303.484,133.471l-2.262,4.583-5.057.735,3.66,3.567-.864,5.037,4.523-2.378,4.523,2.378-.864-5.037,3.66-3.567-5.057-.735Z" transform="translate(-223.278 -106.678)" fill="#fff"/>
      <g id="Group_89" data-name="Group 89" transform="translate(-10)">
        <rect id="Rectangle_16" data-name="Rectangle 16" width="18.237" height="15.844" transform="translate(19.48 24.601)" fill="#428bc1"/>
        <path id="Path_124" data-name="Path 124" d="M4574.5,1850.593s-7.887.278-6.233,12.817l4.595,14.757,8.639-19.136Z" transform="translate(-4558.201 -1821.987)" fill="#428bc1"/>
        <path id="Path_125" data-name="Path 125" d="M4563.525,1843.249l8.155,17.552s3.5-.791,3.5-5.908l-7.868-13.8Z" transform="translate(-4559.289 -1824.279)" fill="#42ade2"/>
        <path id="Path_126" data-name="Path 126" d="M4593.491,1857.969c-2.81-2.547-11.713-2.547-14.525,0-8.355,7.571-8.563,31.256-8.563,31.256h31.649S4601.844,1865.541,4593.491,1857.969Z" transform="translate(-4557.629 -1820.669)" fill="#42ade2"/>
        <path id="Path_127" data-name="Path 127" d="M4595.605,1846.572l-1.057-.767.563-7.534-3.895,6.117-2.3-.745-2.443-8.79-2.438,8.79-2.3.745-3.9-6.117.564,7.534-1.055.767-7.959-1.4,8.45,6.279h17.277l8.451-6.279Z" transform="translate(-4557.875 -1825.784)" fill="#428bc1"/>
        <path id="Path_128" data-name="Path 128" d="M4593,1848.269c0,6.5-6.014,9.628-8.242,9.628s-8.241-3.132-8.241-9.628C4576.512,1848.269,4593,1843.26,4593,1848.269Z" transform="translate(-4556.156 -1823.085)" fill="#42ade2"/>
        <path id="Path_129" data-name="Path 129" d="M4594.216,1880.455l-9.229-9.142,12.456-12.34,9.228,9.143Z" transform="translate(-4554.112 -1819.966)" fill="#428bc1"/>
        <path id="Path_130" data-name="Path 130" d="M4601.4,1871.948a1.136,1.136,0,0,1-1.594,0l-2.338-2.317a1.106,1.106,0,0,1,0-1.579l.039-.04a1.133,1.133,0,0,1,1.592,0l2.342,2.317a1.108,1.108,0,0,1,0,1.58Z" transform="translate(-4551.181 -1817.864)" fill="#42ade2"/>
        <path id="Path_131" data-name="Path 131" d="M4600.53,1873.507a1.232,1.232,0,0,1-1.715-.12l-2.7-2.671a1.2,1.2,0,0,1-.12-1.7l.039-.04a1.233,1.233,0,0,1,1.716.12l2.7,2.671a1.2,1.2,0,0,1,.119,1.7Z" transform="translate(-4551.527 -1817.623)" fill="#42ade2"/>
        <path id="Path_132" data-name="Path 132" d="M4599.308,1874.719a1.231,1.231,0,0,1-1.715-.119l-2.694-2.672a1.2,1.2,0,0,1-.12-1.7l.039-.04a1.226,1.226,0,0,1,1.713.122l2.7,2.669a1.2,1.2,0,0,1,.119,1.7Z" transform="translate(-4551.822 -1817.331)" fill="#42ade2"/>
        <path id="Path_133" data-name="Path 133" d="M4597.621,1875.026a.971.971,0,0,1-1.368,0l-2.017-1.994a.957.957,0,0,1,0-1.359l.033-.032a.977.977,0,0,1,1.372,0l2.016,2a.953.953,0,0,1,0,1.357Z" transform="translate(-4551.949 -1816.978)" fill="#42ade2"/>
        <path id="Path_134" data-name="Path 134" d="M4589.417,1860.919s-8.213,12.2-4.129,27.134h-6.293S4577.023,1871.076,4589.417,1860.919Z" transform="translate(-4555.585 -1819.496)" fill="#428bc1"/>
        <path id="Path_135" data-name="Path 135" d="M4587.838,1872.117a17.341,17.341,0,0,0-2.015,13.235h-3.067S4581.795,1877.071,4587.838,1872.117Z" transform="translate(-4554.663 -1816.795)" fill="#428bc1"/>
        <path id="Path_136" data-name="Path 136" d="M4583.649,1858.449s-9.146,13.575-4.6,30.2h-7S4569.855,1869.753,4583.649,1858.449Z" transform="translate(-4557.264 -1820.092)" fill="#428bc1"/>
        <path id="Path_137" data-name="Path 137" d="M4573.726,1851.176l3.347,4.034a12.551,12.551,0,0,1-3.347,11.612S4576.109,1858.588,4573.726,1851.176Z" transform="translate(-4556.829 -1821.846)" fill="#42ade2"/>
        <path id="Path_138" data-name="Path 138" d="M4585.66,1852.037c0,.274-.941.7-2.1.7s-2.1-.423-2.1-.7A16.847,16.847,0,0,1,4585.66,1852.037Z" transform="translate(-4554.962 -1821.671)" fill="#428bc1"/>
        <path id="Path_139" data-name="Path 139" d="M4584.729,1853.744c0,.186-.6.475-1.343.475s-1.345-.289-1.345-.475A9.947,9.947,0,0,1,4584.729,1853.744Z" transform="translate(-4554.822 -1821.249)" fill="#428bc1"/>
        <path id="Path_140" data-name="Path 140" d="M4588.947,1848.9a2.079,2.079,0,0,1-4.048,0C4584.9,1848.5,4588.947,1848.5,4588.947,1848.9Z" transform="translate(-4554.133 -1822.468)" fill="#428bc1"/>
        <path id="Path_141" data-name="Path 141" d="M4582.195,1848.9a2.078,2.078,0,0,1-4.047,0C4578.147,1848.5,4582.195,1848.5,4582.195,1848.9Z" transform="translate(-4555.762 -1822.468)" fill="#428bc1"/>
        <path id="Path_142" data-name="Path 142" d="M4562.98,1838.691a5.05,5.05,0,0,1-2.124-4.567,5.729,5.729,0,0,1,3.052-4.63s-.72,2.877,0,3.289c.479.276,2.017.011,2.206-2.656a6.652,6.652,0,0,0-1.078-2.582,6.558,6.558,0,0,1,3.565,3.14c.728,1.676.018,4.595.018,4.595a3,3,0,0,0,1.844-1.991s.662,3.72-2.246,5.4Z" transform="translate(-4559.938 -1827.546)" fill="#ff9d27"/>
        <path id="Path_143" data-name="Path 143" d="M4567.434,1847.778a2.125,2.125,0,0,1-2.1,2.142h-.532a2.124,2.124,0,0,1-2.1-2.142l.026-9.307h4.738Z" transform="translate(-4559.489 -1824.911)" fill="#428bc1"/>
        <path id="Path_144" data-name="Path 144" d="M4560.8,1840.571a1.119,1.119,0,0,0,1.126,1.114h3.311a1.119,1.119,0,0,0,1.125-1.114v-.057a1.119,1.119,0,0,0-1.125-1.116h-3.311a1.122,1.122,0,0,0-1.126,1.116Z" transform="translate(-4559.947 -1824.687)" fill="#42ade2"/>
        <path id="Path_145" data-name="Path 145" d="M4560.456,1842.283a1.218,1.218,0,0,0,1.3,1.117h3.813a1.218,1.218,0,0,0,1.3-1.117v-.055a1.216,1.216,0,0,0-1.3-1.117h-3.812a1.218,1.218,0,0,0-1.3,1.117Z" transform="translate(-4560.029 -1824.274)" fill="#42ade2"/>
        <path id="Path_146" data-name="Path 146" d="M4560.454,1843.994a1.22,1.22,0,0,0,1.3,1.118h3.812a1.22,1.22,0,0,0,1.3-1.118v-.052a1.218,1.218,0,0,0-1.3-1.118h-3.812a1.218,1.218,0,0,0-1.3,1.118Z" transform="translate(-4560.029 -1823.861)" fill="#42ade2"/>
        <path id="Path_147" data-name="Path 147" d="M4561.107,1845.364a.965.965,0,0,0,.971.961h2.848a.964.964,0,0,0,.97-.961v-.049a.965.965,0,0,0-.97-.959h-2.848a.966.966,0,0,0-.971.959Z" transform="translate(-4559.872 -1823.491)" fill="#42ade2"/>
        <path id="Path_148" data-name="Path 148" d="M4566.793,1839.406a1.325,1.325,0,1,1-1.339,1.324A1.332,1.332,0,0,1,4566.793,1839.406Z" transform="translate(-4558.823 -1824.685)" fill="#42ade2"/>
        <path id="Path_149" data-name="Path 149" d="M4570.629,1836.756v1.072h-1.052v-1.072h-1.051v1.072h-1.051v-1.072h-1.052v1.072h-1.052v-1.072h-1.05v1.072h-1.052v-1.072h-1.051v1.072h-1.053v-1.072h-1.049v1.072h-.006v1.675h11.568v-2.747Z" transform="translate(-4560.112 -1825.325)" fill="#42ade2"/>
      </g>
    </g>
    <path id="Path_5404" data-name="Path 5404" d="M-119.567-23.49h9.077v2.349h-5.8v7.83h4.5v2.32h-4.5V0h-3.277Zm11.513,0h3.219V0h-3.219Zm5.858,0h3.074L-95.41-6.177l3.538-17.313h2.987L-94.076,0h-2.871Zm15.805,0h9.106v2.436h-5.829v7.772h4.727v2.32h-4.727v8.613h5.887V0h-9.164ZM-61.944.261Q-65.4.261-66.889-1.7a9.216,9.216,0,0,1-1.493-5.67v-8.9a8.717,8.717,0,0,1,1.508-5.539q1.508-1.885,4.93-1.885t4.915,1.9a8.79,8.79,0,0,1,1.493,5.525v8.932a9.106,9.106,0,0,1-1.508,5.626Q-58.551.261-61.944.261Zm0-2.581a2.628,2.628,0,0,0,2.465-1.073,6.506,6.506,0,0,0,.638-3.248V-16.936a6.176,6.176,0,0,0-.638-3.176,2.672,2.672,0,0,0-2.465-1.029,2.706,2.706,0,0,0-2.494,1.029,6.176,6.176,0,0,0-.638,3.176V-6.641a6.506,6.506,0,0,0,.638,3.248A2.66,2.66,0,0,0-61.944-2.32Zm9.628-21.17h2.233l6.67,15.6v-15.6h2.726V0h-2.088l-6.757-16.037V0h-2.784ZM-27.9-19.633h-3.6V-23.49h12.383v3.857h-3.567V0H-27.9Zm10.9-3.857H-11.8v9.512h3.625V-23.49h5.22V0h-5.22V-10.266H-11.8V0h-5.191Zm17.6,0H11.165v3.538H5.8v5.829H9.889v3.6H5.8v7.018h5.423V0H.609ZM21-23.49h10.15v3.509H26.187v5.916h4.321v3.625H26.187V0H21ZM40.31.348q-3.8,0-5.423-1.958a8.879,8.879,0,0,1-1.624-5.785v-8.729q0-3.828,1.624-5.756t5.423-1.929q3.828,0,5.467,1.943a8.711,8.711,0,0,1,1.638,5.742v8.729A8.823,8.823,0,0,1,45.776-1.61Q44.138.348,40.31.348Zm0-3.683a1.436,1.436,0,0,0,1.45-.739,4.809,4.809,0,0,0,.348-2.016V-17.4a4.792,4.792,0,0,0-.348-2.03,1.443,1.443,0,0,0-1.45-.725,1.383,1.383,0,0,0-1.392.74A4.809,4.809,0,0,0,38.57-17.4V-6.09a5.2,5.2,0,0,0,.319,2.016A1.376,1.376,0,0,0,40.31-3.335ZM57.362.348a8.615,8.615,0,0,1-4.176-.855,4.667,4.667,0,0,1-2.16-2.523A12.285,12.285,0,0,1,50.4-7.279V-23.49h5.133V-6.5A5.819,5.819,0,0,0,55.9-4.234a1.432,1.432,0,0,0,1.465.841,1.4,1.4,0,0,0,1.45-.841A6.037,6.037,0,0,0,59.16-6.5V-23.49h5.162V-7.279a12.029,12.029,0,0,1-.638,4.248,4.747,4.747,0,0,1-2.16,2.523A8.528,8.528,0,0,1,57.362.348ZM67.628-23.49h6.467a10.262,10.262,0,0,1,5.829,1.363Q81.9-20.764,81.9-17.284a9.494,9.494,0,0,1-.609,3.741,4.369,4.369,0,0,1-2.262,2.175L82.244,0H76.879L74.3-10.527H72.819V0H67.628Zm6.641,9.976a2.579,2.579,0,0,0,2.189-.826,4.092,4.092,0,0,0,.623-2.479,4.061,4.061,0,0,0-.58-2.393,2.312,2.312,0,0,0-2-.8H72.819v6.5Zm12.905-6.119h-3.6V-23.49H95.961v3.857H92.394V0h-5.22Zm10.9-3.857h5.191v9.512h3.625V-23.49h5.22V0h-5.22V-10.266h-3.625V0H98.078Zm17.284.058h4.7L118.349-5.974h-1.624Zm-.087,19.024h4.466V0h-4.466Z" transform="translate(674.961 46.31)" fill="#fff"/>
  </g>
</svg>
