<svg id="logo" xmlns="http://www.w3.org/2000/svg" width="88.996" height="29.726" viewBox="0 0 88.996 29.726">
  <path id="Path_34" data-name="Path 34" d="M18.167,24.038a11.383,11.383,0,0,1-.752,4.173,9.9,9.9,0,0,1-2.073,3.265A9.057,9.057,0,0,1,12.155,33.6a10.394,10.394,0,0,1-4.043.752,11.769,11.769,0,0,1-2.125-.181l-1.4,5.65H0L5.183,18.259a27.415,27.415,0,0,1,2.851-.674,18.292,18.292,0,0,1,3.473-.285,8.007,8.007,0,0,1,3.006.518,5.748,5.748,0,0,1,2.073,1.451,5.827,5.827,0,0,1,1.192,2.151A8.522,8.522,0,0,1,18.167,24.038Zm-11.3,6.4a6.716,6.716,0,0,0,1.322.13,5.479,5.479,0,0,0,2.2-.441,4.924,4.924,0,0,0,1.71-1.27,5.911,5.911,0,0,0,1.088-1.944A7.75,7.75,0,0,0,13.58,24.4a4.267,4.267,0,0,0-.6-2.281,2.24,2.24,0,0,0-2.047-.933,8.443,8.443,0,0,0-1.866.181Z" transform="translate(0 -12.816)" fill="#162447"/>
  <path id="Path_35" data-name="Path 35" d="M81.443,21.628c-.415-.1-.829-.207-1.244-.285a8.11,8.11,0,0,0-1.788-.13,6.5,6.5,0,0,0-.959.078,5.193,5.193,0,0,0-.881.181L73.565,34.042H68.9l3.758-15.524c.881-.285,1.892-.57,3.006-.829a16.581,16.581,0,0,1,3.758-.389,14.849,14.849,0,0,1,1.736.13,7.013,7.013,0,0,1,1.659.441Z" transform="translate(-51.044 -12.816)" fill="#162447"/>
  <path id="Path_36" data-name="Path 36" d="M180.384,18.314c.363-.1.752-.233,1.166-.363a14.2,14.2,0,0,1,1.425-.363c.518-.1,1.114-.207,1.788-.285a19.223,19.223,0,0,1,2.229-.1c2.436,0,4.121.7,5.028,2.125.933,1.425,1.088,3.343.492,5.805l-2.125,8.863h-4.639l2.047-8.682a11.974,11.974,0,0,0,.285-1.581,3.312,3.312,0,0,0-.026-1.348,1.592,1.592,0,0,0-.57-.933,2.229,2.229,0,0,0-1.374-.363,9.036,9.036,0,0,0-1.84.181l-3.032,12.7H176.6Z" transform="translate(-130.832 -12.742)" fill="#162447"/>
  <path id="Path_37" data-name="Path 37" d="M244.264.752,249.11,0l-1.192,4.82H253.1l-.933,3.81h-5.157l-1.374,5.727a5.337,5.337,0,0,0-.207,1.348,2.415,2.415,0,0,0,.156,1.088,1.271,1.271,0,0,0,.674.7,3.278,3.278,0,0,0,1.4.259,8.888,8.888,0,0,0,1.451-.13c.466-.1.933-.233,1.425-.389l.337,3.551a18.73,18.73,0,0,1-2.021.6,12.311,12.311,0,0,1-2.592.259,7.029,7.029,0,0,1-3.343-.648,3.759,3.759,0,0,1-1.685-1.736,5.635,5.635,0,0,1-.441-2.54,16.465,16.465,0,0,1,.441-3.032Z" transform="translate(-178.385)" fill="#162447"/>
  <path id="Path_38" data-name="Path 38" d="M289.3,34.26a7.515,7.515,0,0,1-2.877-.492,5.653,5.653,0,0,1-2.021-1.4,6.1,6.1,0,0,1-1.192-2.125,9.076,9.076,0,0,1-.415-2.721,12.472,12.472,0,0,1,.6-3.732,11.362,11.362,0,0,1,1.788-3.369,9.538,9.538,0,0,1,2.9-2.462A8.13,8.13,0,0,1,292.026,17a7.469,7.469,0,0,1,2.851.492,5.233,5.233,0,0,1,2.021,1.4,6.1,6.1,0,0,1,1.192,2.125,8.324,8.324,0,0,1,.415,2.721,12.473,12.473,0,0,1-.6,3.732,11.233,11.233,0,0,1-1.736,3.369,9.358,9.358,0,0,1-2.877,2.436A7.73,7.73,0,0,1,289.3,34.26Zm2.307-13.347a2.987,2.987,0,0,0-1.814.6,5.31,5.31,0,0,0-1.322,1.5,7.322,7.322,0,0,0-.8,1.97,8.361,8.361,0,0,0-.259,2.047,4.952,4.952,0,0,0,.492,2.436,1.886,1.886,0,0,0,1.814.881,2.987,2.987,0,0,0,1.814-.6,4.584,4.584,0,0,0,1.3-1.5,7.319,7.319,0,0,0,.8-1.97,8.361,8.361,0,0,0,.259-2.047,4.952,4.952,0,0,0-.492-2.436A1.891,1.891,0,0,0,291.612,20.913Z" transform="translate(-209.509 -12.594)" fill="#162447"/>
  <path id="Path_39" data-name="Path 39" d="M106.8,36.594c.467-.363,1.011-.829,1.659-1.348a22.455,22.455,0,0,1,5.391-2.7,44.5,44.5,0,0,0,7.516-3.654c2.98-1.918,4.769-5.935,5.624-8.4a34.079,34.079,0,0,1-6.22,2.929,44.972,44.972,0,0,0-7.153,3.369C109.91,29.078,107.759,33.821,106.8,36.594Z" transform="translate(-79.121 -15.187)" fill="#00adee"/>
  <g id="Group_7" data-name="Group 7" transform="translate(29.933 4.406)">
    <path id="Path_40" data-name="Path 40" d="M119.31,22.961a47.522,47.522,0,0,1,7.36-3.473q1.283-.505,2.488-1.011a5.574,5.574,0,0,0-1.607-.985A7.469,7.469,0,0,0,124.7,17a7.919,7.919,0,0,0-3.939.959,9.856,9.856,0,0,0-2.9,2.462,11.054,11.054,0,0,0-1.788,3.369,11.53,11.53,0,0,0-.57,2.747A14.3,14.3,0,0,1,119.31,22.961Z" transform="translate(-115.5 -17)" fill="#162447"/>
    <path id="Path_41" data-name="Path 41" d="M134.218,51.229a48.187,48.187,0,0,1-7.749,3.758c-1.27.518-2.436,1.011-3.369,1.477a5.78,5.78,0,0,0,1.633,1.011,7.426,7.426,0,0,0,2.877.492,8.081,8.081,0,0,0,4.017-.959,8.793,8.793,0,0,0,2.877-2.436A10.67,10.67,0,0,0,136.24,51.2a13.453,13.453,0,0,0,.492-2.2A12.814,12.814,0,0,1,134.218,51.229Z" transform="translate(-121.13 -40.707)" fill="#162447"/>
  </g>
  <g id="Group_8" data-name="Group 8" transform="translate(31.981 23.221)">
    <path id="Path_42" data-name="Path 42" d="M127.806,98.728V96.474a.5.5,0,0,0-.544-.57.938.938,0,0,0-.726.415v2.41H125.6V96.474a.5.5,0,0,0-.544-.57.938.938,0,0,0-.726.415v2.41H123.4V95.178h.933v.466A1.6,1.6,0,0,1,125.5,95.1a.93.93,0,0,1,.985.648A1.538,1.538,0,0,1,127.7,95.1a.947.947,0,0,1,1.037,1.088v2.566h-.933Z" transform="translate(-123.4 -93.675)" fill="#00adee"/>
    <path id="Path_43" data-name="Path 43" d="M159.184,98.654v-.389a1.5,1.5,0,0,1-1.14.467A1.2,1.2,0,0,1,156.8,97.54a1.137,1.137,0,0,1,1.244-1.14,1.483,1.483,0,0,1,1.14.441V96.4c0-.363-.311-.6-.777-.6a1.592,1.592,0,0,0-1.037.415l-.363-.648a2.309,2.309,0,0,1,1.555-.57c.829,0,1.555.337,1.555,1.348v2.307Zm0-.855v-.441a.923.923,0,0,0-.752-.311.557.557,0,1,0,0,1.088A1.074,1.074,0,0,0,159.184,97.8Z" transform="translate(-148.144 -93.601)" fill="#00adee"/>
    <path id="Path_44" data-name="Path 44" d="M183.3,98.728V95.178h.933v.492a1.575,1.575,0,0,1,1.14-.57v.907a.8.8,0,0,0-.259-.026,1.191,1.191,0,0,0-.881.415v2.358H183.3Z" transform="translate(-167.776 -93.675)" fill="#00adee"/>
    <path id="Path_45" data-name="Path 45" d="M206.007,95.024l-.933-1.374-.441.466v.907H203.7V90.1h.933v2.954l1.348-1.581h1.14l-1.4,1.607,1.451,1.944Z" transform="translate(-182.889 -89.97)" fill="#00adee"/>
    <path id="Path_46" data-name="Path 46" d="M227.9,96.866A1.82,1.82,0,0,1,229.74,95a1.787,1.787,0,0,1,1.788,1.944v.233h-2.643a.964.964,0,0,0,1.037.8,1.467,1.467,0,0,0,.933-.337l.415.622a2.167,2.167,0,0,1-1.477.492A1.809,1.809,0,0,1,227.9,96.866Zm1.866-1.088a.858.858,0,0,0-.881.752h1.762A.8.8,0,0,0,229.766,95.777Z" transform="translate(-200.818 -93.601)" fill="#00adee"/>
    <path id="Path_47" data-name="Path 47" d="M253.7,95.18V93.314h-.6v-.829h.6V91.5h.933v.985h.726v.829h-.726v1.607a.342.342,0,0,0,.337.389.577.577,0,0,0,.337-.1l.207.726a1.1,1.1,0,0,1-.777.233A.9.9,0,0,1,253.7,95.18Z" transform="translate(-219.487 -91.008)" fill="#00adee"/>
    <path id="Path_48" data-name="Path 48" d="M274.1,90.144a.547.547,0,0,1,.544-.544.553.553,0,0,1,.57.544.557.557,0,1,1-1.114,0Zm.078,4.509V91.1h.933V94.68h-.933Z" transform="translate(-235.044 -89.6)" fill="#00adee"/>
    <path id="Path_49" data-name="Path 49" d="M294.184,98.728V96.577c0-.492-.259-.674-.648-.674a1.023,1.023,0,0,0-.8.415v2.41H291.8V95.178h.933v.466a1.7,1.7,0,0,1,1.244-.544,1.045,1.045,0,0,1,1.166,1.14v2.514h-.959Z" transform="translate(-248.157 -93.675)" fill="#00adee"/>
    <path id="Path_50" data-name="Path 50" d="M317.581,99.661l.415-.674a1.446,1.446,0,0,0,1.114.441.87.87,0,0,0,.985-.907v-.337a1.374,1.374,0,0,1-1.114.544,1.831,1.831,0,0,1,0-3.628,1.374,1.374,0,0,1,1.114.544v-.466h.933V98.5c0,1.348-1.037,1.685-1.918,1.685A2.157,2.157,0,0,1,317.581,99.661Zm2.514-2.177V96.318a1.007,1.007,0,0,0-.8-.389.988.988,0,0,0,0,1.97A1.213,1.213,0,0,0,320.1,97.484Z" transform="translate(-267.123 -93.675)" fill="#00adee"/>
  </g>
</svg>
